SplineFontDB: 3.2
FontName: pnzabi5m
FullName: pnzabi5m
FamilyName: pnzabi5m
Weight: Regular
Copyright: Copyright 2022 The Noto Project Authors (https://github.com/notofonts/gurmukhi)
Version: 2.003
ItalicAngle: 0
UnderlinePosition: -125
UnderlineWidth: 50
Ascent: 800
Descent: 200
InvalidEm: 0
sfntRevision: 0x000200c5
LayerCount: 2
Layer: 0 1 "Back" 1
Layer: 1 1 "Fore" 0
XUID: [1021 467 -1121320856 7114971]
StyleMap: 0x0040
FSType: 0
OS2Version: 4
OS2_WeightWidthSlopeOnly: 0
OS2_UseTypoMetrics: 1
CreationTime: 1550733484
ModificationTime: 1716721382
PfmFamily: 81
TTFWeight: 400
TTFWidth: 5
LineGap: 0
VLineGap: 0
Panose: 0 0 0 0 0 0 0 0 0 0
OS2TypoAscent: 896
OS2TypoAOffset: 0
OS2TypoDescent: -408
OS2TypoDOffset: 0
OS2TypoLinegap: 0
OS2WinAscent: 896
OS2WinAOffset: 0
OS2WinDescent: 408
OS2WinDOffset: 0
HheadAscent: 896
HheadAOffset: 0
HheadDescent: -408
HheadDOffset: 0
OS2SubXSize: 650
OS2SubYSize: 600
OS2SubXOff: 0
OS2SubYOff: 75
OS2SupXSize: 650
OS2SupYSize: 600
OS2SupXOff: 0
OS2SupYOff: 350
OS2StrikeYSize: 50
OS2StrikeYPos: 373
OS2CapHeight: 622
OS2XHeight: 622
OS2Vendor: 'GOOG'
OS2CodePages: 00000093.00000000
OS2UnicodeRanges: 80028003.00006042.00000000.00000000
Lookup: 2 0 0 "Multiple Substitution lookup 0" { "Multiple Substitution lookup 0 subtable"  } []
Lookup: 2 0 0 "Multiple Substitution lookup 1" { "Multiple Substitution lookup 1 subtable"  } []
Lookup: 4 0 0 "'nukt' Nukta Forms in Gurmukhi2 lookup 2" { "'nukt' Nukta Forms in Gurmukhi2 lookup 2 subtable"  } ['nukt' ('gur2' <'dflt' > ) ]
Lookup: 4 0 0 "'blwf' Below Base Forms in Gurmukhi2 lookup 3" { "'blwf' Below Base Forms in Gurmukhi2 lookup 3 subtable"  } ['blwf' ('gur2' <'dflt' > ) ]
Lookup: 4 0 0 "'pstf' Post Base Forms in Gurmukhi2 lookup 4" { "'pstf' Post Base Forms in Gurmukhi2 lookup 4 subtable"  } ['pstf' ('gur2' <'dflt' > ) ]
Lookup: 6 0 0 "'blws' Below Base Substitutions in Gurmukhi2 lookup 5" { "'blws' Below Base Substitutions in Gurmukhi2 lookup 5 subtable"  } ['blws' ('gur2' <'dflt' > ) ]

StartChar: exclam.guru
Encoding: 33 33 3
Width: 899
Flags: W
LayerCount: 2
Fore
SplineSet
421.5 201 m 1,0,-1
 396.5 714 l 1,1,-1
 503.5 714 l 1,2,-1
 478.5 201 l 1,3,-1
 421.5 201 l 1,0,-1
387.5 54 m 0,4,5
 387.5 91 387.5 91 405.5 106 c 128,-1,6
 423.5 121 423.5 121 449.5 121 c 0,7,8
 474.5 121 474.5 121 493 106 c 128,-1,9
 511.5 91 511.5 91 511.5 54 c 0,10,11
 511.5 18 511.5 18 493 2 c 128,-1,12
 474.5 -14 474.5 -14 449.5 -14 c 0,13,14
 423.5 -14 423.5 -14 405.5 2 c 128,-1,15
 387.5 18 387.5 18 387.5 54 c 0,4,5
EndSplineSet
EndChar

StartChar: quotedbl.guru
Encoding: 34 34 4
Width: 899
Flags: W
LayerCount: 2
Fore
SplineSet
331.5 471 m 1,0,-1
 306.5 729 l 1,1,-1
 417.5 729 l 1,2,-1
 392.5 471 l 1,3,-1
 331.5 471 l 1,0,-1
507.5 471 m 1,4,-1
 482.5 729 l 1,5,-1
 592.5 729 l 1,6,-1
 567.5 471 l 1,7,-1
 507.5 471 l 1,4,-1
EndSplineSet
EndChar

StartChar: numbersign.guru
Encoding: 35 35 5
Width: 899
Flags: W
LayerCount: 2
Fore
SplineSet
282 176 m 1,0,-1
 157 176 l 1,1,-1
 157 242 l 1,2,-1
 294 242 l 1,3,-1
 325 394 l 1,4,-1
 193 394 l 1,5,-1
 193 459 l 1,6,-1
 336 459 l 1,7,-1
 370 632 l 1,8,-1
 440 632 l 1,9,-1
 407 459 l 1,10,-1
 547 459 l 1,11,-1
 581 632 l 1,12,-1
 650 632 l 1,13,-1
 616 459 l 1,14,-1
 742 459 l 1,15,-1
 742 394 l 1,16,-1
 603 394 l 1,17,-1
 574 242 l 1,18,-1
 707 242 l 1,19,-1
 707 176 l 1,20,-1
 561 176 l 1,21,-1
 527 0 l 1,22,-1
 457 0 l 1,23,-1
 492 176 l 1,24,-1
 352 176 l 1,25,-1
 318 0 l 1,26,-1
 249 0 l 1,27,-1
 282 176 l 1,0,-1
504 242 m 1,28,-1
 534 394 l 1,29,-1
 394 394 l 1,30,-1
 365 242 l 1,31,-1
 504 242 l 1,28,-1
EndSplineSet
EndChar

StartChar: percent.guru
Encoding: 37 37 6
Width: 899
Flags: W
LayerCount: 2
Fore
SplineSet
605 622 m 1,0,-1
 682 622 l 1,1,-1
 297 0 l 1,2,-1
 219 0 l 1,3,-1
 605 622 l 1,0,-1
238 271 m 0,4,5
 167 271 167 271 130 319 c 128,-1,6
 93 367 93 367 93 452 c 0,7,8
 93 538 93 538 127.5 585 c 128,-1,9
 162 632 162 632 238 632 c 0,10,11
 310 632 310 632 347.5 585 c 128,-1,12
 385 538 385 538 385 452 c 0,13,14
 385 367 385 367 350 319 c 128,-1,15
 315 271 315 271 238 271 c 0,4,5
237 334 m 256,16,17
 275 334 275 334 293.5 364 c 128,-1,18
 312 394 312 394 312 452 c 0,19,20
 312 511 312 511 293.5 540 c 128,-1,21
 275 569 275 569 237 569 c 256,22,23
 199 569 199 569 182 540 c 128,-1,24
 165 511 165 511 165 452 c 0,25,26
 165 394 165 394 182 364 c 128,-1,27
 199 334 199 334 237 334 c 256,16,17
660 -10 m 0,28,29
 588 -10 588 -10 551.5 38.5 c 128,-1,30
 515 87 515 87 515 171 c 0,31,32
 515 257 515 257 549.5 304.5 c 128,-1,33
 584 352 584 352 660 352 c 0,34,35
 733 352 733 352 769.5 304.5 c 128,-1,36
 806 257 806 257 806 171 c 0,37,38
 806 87 806 87 771.5 38.5 c 128,-1,39
 737 -10 737 -10 660 -10 c 0,28,29
660 55 m 256,40,41
 698 55 698 55 716.5 84 c 128,-1,42
 735 113 735 113 735 171 c 0,43,44
 735 230 735 230 716.5 259.5 c 128,-1,45
 698 289 698 289 660 289 c 256,46,47
 622 289 622 289 605 259.5 c 128,-1,48
 588 230 588 230 588 171 c 0,49,50
 588 113 588 113 605 84 c 128,-1,51
 622 55 622 55 660 55 c 256,40,41
EndSplineSet
EndChar

StartChar: quotesingle.guru
Encoding: 39 39 7
Width: 899
Flags: W
LayerCount: 2
Fore
SplineSet
419 471 m 1,0,-1
 394 729 l 1,1,-1
 505 729 l 1,2,-1
 480 471 l 1,3,-1
 419 471 l 1,0,-1
EndSplineSet
EndChar

StartChar: parenleft.guru
Encoding: 40 40 8
Width: 899
Flags: W
LayerCount: 2
Fore
SplineSet
481 -165 m 1,0,1
 406 -62 406 -62 371 68.5 c 128,-1,2
 336 199 336 199 336 337 c 0,3,4
 336 477 336 477 370.5 603.5 c 128,-1,5
 405 730 405 730 481 832 c 1,6,-1
 562 832 l 1,7,8
 517 762 517 762 485.5 681.5 c 128,-1,9
 454 601 454 601 437.5 514 c 128,-1,10
 421 427 421 427 421 336 c 0,11,12
 421 248 421 248 437 160 c 128,-1,13
 453 72 453 72 484.5 -10 c 128,-1,14
 516 -92 516 -92 563 -165 c 1,15,-1
 481 -165 l 1,0,1
EndSplineSet
EndChar

StartChar: parenright.guru
Encoding: 41 41 9
Width: 899
Flags: W
LayerCount: 2
Fore
SplineSet
337 -165 m 1,0,1
 382 -94 382 -94 413.5 -13 c 128,-1,2
 445 68 445 68 461 155 c 128,-1,3
 477 242 477 242 477 330 c 0,4,5
 477 419 477 419 461 506.5 c 128,-1,6
 445 594 445 594 414 676.5 c 128,-1,7
 383 759 383 759 336 832 c 1,8,-1
 418 832 l 1,9,10
 493 729 493 729 528 598 c 128,-1,11
 563 467 563 467 563 329 c 0,12,13
 563 190 563 190 528 63 c 128,-1,14
 493 -64 493 -64 418 -165 c 1,15,-1
 337 -165 l 1,0,1
EndSplineSet
EndChar

StartChar: asterisk.guru
Encoding: 42 42 10
Width: 899
Flags: W
LayerCount: 2
Fore
SplineSet
279.5 340 m 1,0,-1
 397.5 499 l 1,1,-1
 214.5 513 l 1,2,-1
 228.5 607 l 1,3,-1
 419.5 553 l 1,4,-1
 398.5 745 l 1,5,-1
 498.5 745 l 1,6,-1
 477.5 553 l 1,7,-1
 671.5 607 l 1,8,-1
 684.5 513 l 1,9,-1
 499.5 499 l 1,10,-1
 619.5 340 l 1,11,-1
 532.5 293 l 1,12,-1
 446.5 468 l 1,13,-1
 369.5 293 l 1,14,-1
 279.5 340 l 1,0,-1
EndSplineSet
EndChar

StartChar: plus.guru
Encoding: 43 43 11
Width: 899
Flags: W
LayerCount: 2
Fore
SplineSet
413 286 m 1,0,-1
 224 286 l 1,1,-1
 224 359 l 1,2,-1
 413 359 l 1,3,-1
 413 548 l 1,4,-1
 486 548 l 1,5,-1
 486 359 l 1,6,-1
 675 359 l 1,7,-1
 675 286 l 1,8,-1
 486 286 l 1,9,-1
 486 97 l 1,10,-1
 413 97 l 1,11,-1
 413 286 l 1,0,-1
EndSplineSet
EndChar

StartChar: comma.guru
Encoding: 44 44 12
Width: 899
Flags: W
LayerCount: 2
Fore
SplineSet
373 -129 m 1,0,1
 383 -89 383 -89 392.5 -45.5 c 128,-1,2
 402 -2 402 -2 409.5 40 c 128,-1,3
 417 82 417 82 422 116 c 1,4,-1
 519 116 l 1,5,-1
 526 105 l 1,6,7
 517 70 517 70 503 29.5 c 128,-1,8
 489 -11 489 -11 473 -51.5 c 128,-1,9
 457 -92 457 -92 440 -129 c 1,10,-1
 373 -129 l 1,0,1
EndSplineSet
EndChar

StartChar: hyphen.guru
Encoding: 45 45 13
Width: 899
Flags: W
LayerCount: 2
Fore
SplineSet
328.5 338 m 1,0,-1
 570.5 338 l 1,1,-1
 570.5 256 l 1,2,-1
 328.5 256 l 1,3,-1
 328.5 338 l 1,0,-1
EndSplineSet
EndChar

StartChar: period.guru
Encoding: 46 46 14
Width: 899
Flags: W
LayerCount: 2
Fore
SplineSet
387.5 54 m 0,0,1
 387.5 91 387.5 91 405.5 106 c 128,-1,2
 423.5 121 423.5 121 448.5 121 c 0,3,4
 474.5 121 474.5 121 493 106 c 128,-1,5
 511.5 91 511.5 91 511.5 54 c 0,6,7
 511.5 18 511.5 18 493 2 c 128,-1,8
 474.5 -14 474.5 -14 448.5 -14 c 0,9,10
 423.5 -14 423.5 -14 405.5 2 c 128,-1,11
 387.5 18 387.5 18 387.5 54 c 0,0,1
EndSplineSet
EndChar

StartChar: slash.guru
Encoding: 47 47 15
Width: 899
Flags: W
LayerCount: 2
Fore
SplineSet
540 833 m 1,0,-1
 622 833 l 1,1,-1
 360 -166 l 1,2,-1
 277 -166 l 1,3,-1
 540 833 l 1,0,-1
EndSplineSet
EndChar

StartChar: zero.guru
Encoding: 48 48 16
Width: 899
Flags: W
LayerCount: 2
Fore
SplineSet
448.5 -10 m 0,0,1
 333.5 -10 333.5 -10 277.5 87.5 c 128,-1,2
 221.5 185 221.5 185 221.5 358 c 0,3,4
 221.5 474 221.5 474 244 556 c 128,-1,5
 266.5 638 266.5 638 316.5 681.5 c 128,-1,6
 366.5 725 366.5 725 448.5 725 c 0,7,8
 564.5 725 564.5 725 621 628.5 c 128,-1,9
 677.5 532 677.5 532 677.5 358 c 0,10,11
 677.5 271 677.5 271 665 203 c 128,-1,12
 652.5 135 652.5 135 625.5 87.5 c 128,-1,13
 598.5 40 598.5 40 554.5 15 c 128,-1,14
 510.5 -10 510.5 -10 448.5 -10 c 0,0,1
448.5 66 m 256,15,16
 523.5 66 523.5 66 555.5 138 c 128,-1,17
 587.5 210 587.5 210 587.5 358 c 0,18,19
 587.5 504 587.5 504 555.5 576.5 c 128,-1,20
 523.5 649 523.5 649 448.5 649 c 256,21,22
 373.5 649 373.5 649 342.5 576.5 c 128,-1,23
 311.5 504 311.5 504 311.5 358 c 256,24,25
 311.5 212 311.5 212 342.5 139 c 128,-1,26
 373.5 66 373.5 66 448.5 66 c 256,15,16
EndSplineSet
EndChar

StartChar: one.guru
Encoding: 49 49 17
Width: 899
Flags: W
LayerCount: 2
Fore
SplineSet
493.5 0 m 1,0,-1
 493.5 446 l 2,1,2
 493.5 474 493.5 474 494.5 506.5 c 128,-1,3
 495.5 539 495.5 539 496.5 569.5 c 128,-1,4
 497.5 600 497.5 600 497.5 622 c 1,5,6
 481.5 605 481.5 605 470 594.5 c 128,-1,7
 458.5 584 458.5 584 438.5 567 c 2,8,-1
 366.5 508 l 1,9,-1
 319.5 568 l 1,10,-1
 506.5 714 l 1,11,-1
 579.5 714 l 1,12,-1
 579.5 0 l 1,13,-1
 493.5 0 l 1,0,-1
EndSplineSet
EndChar

StartChar: two.guru
Encoding: 50 50 18
Width: 899
Flags: W
LayerCount: 2
Fore
SplineSet
227 76 m 1,0,-1
 398 262 l 2,1,2
 447 315 447 315 481.5 357 c 128,-1,3
 516 399 516 399 535 440 c 128,-1,4
 554 481 554 481 554 530 c 0,5,6
 554 587 554 587 522 618 c 128,-1,7
 490 649 490 649 439 649 c 0,8,9
 393 649 393 649 355.5 630 c 128,-1,10
 318 611 318 611 284 582 c 1,11,-1
 234 640 l 1,12,13
 260 664 260 664 291.5 683 c 128,-1,14
 323 702 323 702 360.5 713 c 128,-1,15
 398 724 398 724 440 724 c 0,16,17
 503 724 503 724 548.5 701 c 128,-1,18
 594 678 594 678 619 635.5 c 128,-1,19
 644 593 644 593 644 533 c 0,20,21
 644 478 644 478 622 429 c 128,-1,22
 600 380 600 380 561.5 332 c 128,-1,23
 523 284 523 284 473 231 c 2,24,-1
 336 85 l 1,25,-1
 336 81 l 1,26,-1
 672 81 l 1,27,-1
 672 0 l 1,28,-1
 227 0 l 1,29,-1
 227 76 l 1,0,-1
EndSplineSet
EndChar

StartChar: three.guru
Encoding: 51 51 19
Width: 899
Flags: W
LayerCount: 2
Fore
SplineSet
413 -10 m 0,0,1
 360 -10 360 -10 312.5 -1.5 c 128,-1,2
 265 7 265 7 224 29 c 1,3,-1
 224 112 l 1,4,5
 267 90 267 90 316 77.5 c 128,-1,6
 365 65 365 65 411 65 c 0,7,8
 501 65 501 65 542.5 102.5 c 128,-1,9
 584 140 584 140 584 206 c 0,10,11
 584 250 584 250 561.5 278 c 128,-1,12
 539 306 539 306 497.5 319 c 128,-1,13
 456 332 456 332 398 332 c 2,14,-1
 333 332 l 1,15,-1
 333 406 l 1,16,-1
 398 406 l 2,17,18
 451 406 451 406 487.5 423 c 128,-1,19
 524 440 524 440 543 470.5 c 128,-1,20
 562 501 562 501 562 541 c 0,21,22
 562 575 562 575 546.5 599 c 128,-1,23
 531 623 531 623 504 636 c 128,-1,24
 477 649 477 649 440 649 c 0,25,26
 388 649 388 649 348 632.5 c 128,-1,27
 308 616 308 616 272 590 c 1,28,-1
 227 651 l 1,29,30
 264 681 264 681 318 702.5 c 128,-1,31
 372 724 372 724 440 724 c 0,32,33
 510 724 510 724 557.5 701 c 128,-1,34
 605 678 605 678 629 638.5 c 128,-1,35
 653 599 653 599 653 547 c 0,36,37
 653 499 653 499 633.5 463.5 c 128,-1,38
 614 428 614 428 579.5 406 c 128,-1,39
 545 384 545 384 499 376 c 1,40,-1
 499 373 l 1,41,42
 585 363 585 363 630 318.5 c 128,-1,43
 675 274 675 274 675 203 c 0,44,45
 675 141 675 141 647 92.5 c 128,-1,46
 619 44 619 44 561 17 c 128,-1,47
 503 -10 503 -10 413 -10 c 0,0,1
EndSplineSet
EndChar

StartChar: four.guru
Encoding: 52 52 20
Width: 899
Flags: W
LayerCount: 2
Fore
SplineSet
519.5 160 m 1,0,-1
 189.5 160 l 1,1,-1
 189.5 238 l 1,2,-1
 513.5 718 l 1,3,-1
 605.5 718 l 1,4,-1
 605.5 241 l 1,5,-1
 709.5 241 l 1,6,-1
 709.5 160 l 1,7,-1
 605.5 160 l 1,8,-1
 605.5 0 l 1,9,-1
 519.5 0 l 1,10,-1
 519.5 160 l 1,0,-1
519.5 241 m 1,11,-1
 519.5 415 l 2,12,13
 519.5 452 519.5 452 521 492.5 c 128,-1,14
 522.5 533 522.5 533 524 568.5 c 128,-1,15
 525.5 604 525.5 604 525.5 626 c 1,16,-1
 521.5 626 l 1,17,18
 514.5 607 514.5 607 501.5 581 c 128,-1,19
 488.5 555 488.5 555 477.5 538 c 2,20,-1
 276.5 241 l 1,21,-1
 519.5 241 l 1,11,-1
EndSplineSet
EndChar

StartChar: five.guru
Encoding: 53 53 21
Width: 899
Flags: W
LayerCount: 2
Fore
SplineSet
408 -10 m 0,0,1
 358 -10 358 -10 312 -0.5 c 128,-1,2
 266 9 266 9 234 29 c 1,3,-1
 234 113 l 1,4,5
 256 98 256 98 286.5 87.5 c 128,-1,6
 317 77 317 77 350 71.5 c 128,-1,7
 383 66 383 66 410 66 c 0,8,9
 487 66 487 66 530.5 103 c 128,-1,10
 574 140 574 140 574 219 c 0,11,12
 574 290 574 290 531 326.5 c 128,-1,13
 488 363 488 363 406 363 c 0,14,15
 380 363 380 363 346.5 358.5 c 128,-1,16
 313 354 313 354 293 350 c 1,17,-1
 249 378 l 1,18,-1
 276 714 l 1,19,-1
 613 714 l 1,20,-1
 613 633 l 1,21,-1
 353 633 l 1,22,-1
 334 428 l 1,23,24
 350 432 350 432 377.5 435 c 128,-1,25
 405 438 405 438 436 438 c 0,26,27
 501 438 501 438 552.5 414.5 c 128,-1,28
 604 391 604 391 634.5 344.5 c 128,-1,29
 665 298 665 298 665 229 c 0,30,31
 665 117 665 117 599 53.5 c 128,-1,32
 533 -10 533 -10 408 -10 c 0,0,1
EndSplineSet
EndChar

StartChar: six.guru
Encoding: 54 54 22
Width: 899
Flags: W
LayerCount: 2
Fore
SplineSet
457.5 -10 m 0,0,1
 392.5 -10 392.5 -10 339.5 24 c 128,-1,2
 286.5 58 286.5 58 255.5 128 c 128,-1,3
 224.5 198 224.5 198 224.5 305 c 0,4,5
 224.5 367 224.5 367 232 427 c 128,-1,6
 239.5 487 239.5 487 259.5 540.5 c 128,-1,7
 279.5 594 279.5 594 314.5 635.5 c 128,-1,8
 349.5 677 349.5 677 404 700.5 c 128,-1,9
 458.5 724 458.5 724 536.5 724 c 0,10,11
 555.5 724 555.5 724 580 722 c 128,-1,12
 604.5 720 604.5 720 620.5 715 c 1,13,-1
 620.5 639 l 1,14,15
 603.5 645 603.5 645 582 648 c 128,-1,16
 560.5 651 560.5 651 539.5 651 c 0,17,18
 473.5 651 473.5 651 431 628 c 128,-1,19
 388.5 605 388.5 605 364 565.5 c 128,-1,20
 339.5 526 339.5 526 328.5 474 c 128,-1,21
 317.5 422 317.5 422 315.5 364 c 1,22,-1
 321.5 364 l 1,23,24
 341.5 399 341.5 399 377.5 423 c 128,-1,25
 413.5 447 413.5 447 471.5 447 c 0,26,27
 533.5 447 533.5 447 579 421.5 c 128,-1,28
 624.5 396 624.5 396 649.5 347.5 c 128,-1,29
 674.5 299 674.5 299 674.5 230 c 0,30,31
 674.5 156 674.5 156 648 102 c 128,-1,32
 621.5 48 621.5 48 573 19 c 128,-1,33
 524.5 -10 524.5 -10 457.5 -10 c 0,0,1
456.5 65 m 0,34,35
 515.5 65 515.5 65 552 105 c 128,-1,36
 588.5 145 588.5 145 588.5 230 c 0,37,38
 588.5 298 588.5 298 556.5 337.5 c 128,-1,39
 524.5 377 524.5 377 459.5 377 c 0,40,41
 415.5 377 415.5 377 382.5 357.5 c 128,-1,42
 349.5 338 349.5 338 331.5 308.5 c 128,-1,43
 313.5 279 313.5 279 313.5 247 c 0,44,45
 313.5 204 313.5 204 329.5 162 c 128,-1,46
 345.5 120 345.5 120 377 92.5 c 128,-1,47
 408.5 65 408.5 65 456.5 65 c 0,34,35
EndSplineSet
EndChar

StartChar: seven.guru
Encoding: 55 55 23
Width: 899
Flags: W
LayerCount: 2
Fore
SplineSet
588 633 m 1,0,-1
 220 633 l 1,1,-1
 220 714 l 1,2,-1
 679 714 l 1,3,-1
 679 643 l 1,4,-1
 408 0 l 1,5,-1
 313 0 l 1,6,-1
 588 633 l 1,0,-1
EndSplineSet
EndChar

StartChar: eight.guru
Encoding: 56 56 24
Width: 899
Flags: W
LayerCount: 2
Fore
SplineSet
449.5 -10 m 0,0,1
 342.5 -10 342.5 -10 284 41.5 c 128,-1,2
 225.5 93 225.5 93 225.5 182 c 0,3,4
 225.5 231 225.5 231 244 267 c 128,-1,5
 262.5 303 262.5 303 294 329.5 c 128,-1,6
 325.5 356 325.5 356 363.5 374 c 1,7,8
 331.5 395 331.5 395 305.5 420 c 128,-1,9
 279.5 445 279.5 445 264 478 c 128,-1,10
 248.5 511 248.5 511 248.5 554 c 0,11,12
 248.5 611 248.5 611 276.5 649 c 128,-1,13
 304.5 687 304.5 687 350.5 706 c 128,-1,14
 396.5 725 396.5 725 449.5 725 c 0,15,16
 504.5 725 504.5 725 550 706 c 128,-1,17
 595.5 687 595.5 687 623 649 c 128,-1,18
 650.5 611 650.5 611 650.5 553 c 0,19,20
 650.5 510 650.5 510 633.5 477.5 c 128,-1,21
 616.5 445 616.5 445 588 421 c 128,-1,22
 559.5 397 559.5 397 522.5 378 c 1,23,24
 560.5 358 560.5 358 595 331.5 c 128,-1,25
 629.5 305 629.5 305 651.5 269.5 c 128,-1,26
 673.5 234 673.5 234 673.5 186 c 0,27,28
 673.5 126 673.5 126 645 82 c 128,-1,29
 616.5 38 616.5 38 566.5 14 c 128,-1,30
 516.5 -10 516.5 -10 449.5 -10 c 0,0,1
447.5 64 m 0,31,32
 516.5 64 516.5 64 551.5 97 c 128,-1,33
 586.5 130 586.5 130 586.5 185 c 0,34,35
 586.5 233 586.5 233 550 268.5 c 128,-1,36
 513.5 304 513.5 304 436.5 340 c 1,37,38
 395.5 321 395.5 321 368 297.5 c 128,-1,39
 340.5 274 340.5 274 326.5 245.5 c 128,-1,40
 312.5 217 312.5 217 312.5 181 c 0,41,42
 312.5 129 312.5 129 345 96.5 c 128,-1,43
 377.5 64 377.5 64 447.5 64 c 0,31,32
450.5 414 m 1,44,45
 482.5 429 482.5 429 508 447 c 128,-1,46
 533.5 465 533.5 465 548.5 490 c 128,-1,47
 563.5 515 563.5 515 563.5 550 c 0,48,49
 563.5 600 563.5 600 533 625.5 c 128,-1,50
 502.5 651 502.5 651 448.5 651 c 0,51,52
 414.5 651 414.5 651 389 639.5 c 128,-1,53
 363.5 628 363.5 628 349.5 605.5 c 128,-1,54
 335.5 583 335.5 583 335.5 550 c 0,55,56
 335.5 514 335.5 514 350.5 489.5 c 128,-1,57
 365.5 465 365.5 465 391.5 447.5 c 128,-1,58
 417.5 430 417.5 430 450.5 414 c 1,44,45
EndSplineSet
EndChar

StartChar: nine.guru
Encoding: 57 57 25
Width: 899
Flags: W
LayerCount: 2
Fore
SplineSet
362.5 -10 m 0,0,1
 343.5 -10 343.5 -10 319.5 -7.5 c 128,-1,2
 295.5 -5 295.5 -5 278.5 -1 c 1,3,-1
 278.5 75 l 1,4,5
 295.5 69 295.5 69 317 66 c 128,-1,6
 338.5 63 338.5 63 359.5 63 c 0,7,8
 425.5 63 425.5 63 468.5 86 c 128,-1,9
 511.5 109 511.5 109 535.5 148.5 c 128,-1,10
 559.5 188 559.5 188 570.5 240 c 128,-1,11
 581.5 292 581.5 292 583.5 350 c 1,12,-1
 577.5 350 l 1,13,14
 564.5 327 564.5 327 544 308 c 128,-1,15
 523.5 289 523.5 289 495 278 c 128,-1,16
 466.5 267 466.5 267 427.5 267 c 0,17,18
 366.5 267 366.5 267 320.5 292.5 c 128,-1,19
 274.5 318 274.5 318 249.5 366.5 c 128,-1,20
 224.5 415 224.5 415 224.5 484 c 0,21,22
 224.5 559 224.5 559 251 612.5 c 128,-1,23
 277.5 666 277.5 666 326.5 695 c 128,-1,24
 375.5 724 375.5 724 441.5 724 c 256,25,26
 507.5 724 507.5 724 560 690 c 128,-1,27
 612.5 656 612.5 656 643.5 586 c 128,-1,28
 674.5 516 674.5 516 674.5 409 c 0,29,30
 674.5 348 674.5 348 667 287.5 c 128,-1,31
 659.5 227 659.5 227 639.5 173.5 c 128,-1,32
 619.5 120 619.5 120 584.5 78.5 c 128,-1,33
 549.5 37 549.5 37 495 13.5 c 128,-1,34
 440.5 -10 440.5 -10 362.5 -10 c 0,0,1
439.5 337 m 0,35,36
 483.5 337 483.5 337 516.5 356.5 c 128,-1,37
 549.5 376 549.5 376 567.5 406 c 128,-1,38
 585.5 436 585.5 436 585.5 467 c 0,39,40
 585.5 500 585.5 500 576.5 532 c 128,-1,41
 567.5 564 567.5 564 549.5 590.5 c 128,-1,42
 531.5 617 531.5 617 505 633 c 128,-1,43
 478.5 649 478.5 649 442.5 649 c 0,44,45
 384.5 649 384.5 649 347.5 609 c 128,-1,46
 310.5 569 310.5 569 310.5 484 c 0,47,48
 310.5 416 310.5 416 343 376.5 c 128,-1,49
 375.5 337 375.5 337 439.5 337 c 0,35,36
EndSplineSet
EndChar

StartChar: colon.guru
Encoding: 58 58 26
Width: 899
Flags: W
LayerCount: 2
Fore
SplineSet
449.5 414 m 256,0,1
 423.5 414 423.5 414 405.5 430 c 128,-1,2
 387.5 446 387.5 446 387.5 482 c 0,3,4
 387.5 520 387.5 520 405.5 535 c 128,-1,5
 423.5 550 423.5 550 449.5 550 c 256,6,7
 475.5 550 475.5 550 493.5 535 c 128,-1,8
 511.5 520 511.5 520 511.5 482 c 0,9,10
 511.5 446 511.5 446 493.5 430 c 128,-1,11
 475.5 414 475.5 414 449.5 414 c 256,0,1
449.5 -14 m 256,12,13
 423.5 -14 423.5 -14 405.5 2 c 128,-1,14
 387.5 18 387.5 18 387.5 54 c 0,15,16
 387.5 92 387.5 92 405.5 107 c 128,-1,17
 423.5 122 423.5 122 449.5 122 c 256,18,19
 475.5 122 475.5 122 493.5 107 c 128,-1,20
 511.5 92 511.5 92 511.5 54 c 0,21,22
 511.5 18 511.5 18 493.5 2 c 128,-1,23
 475.5 -14 475.5 -14 449.5 -14 c 256,12,13
EndSplineSet
EndChar

StartChar: semicolon.guru
Encoding: 59 59 27
Width: 899
Flags: W
LayerCount: 2
Fore
SplineSet
513 116 m 1,0,-1
 520 105 l 1,1,2
 511 70 511 70 497 29.5 c 128,-1,3
 483 -11 483 -11 467 -51.5 c 128,-1,4
 451 -92 451 -92 434 -129 c 1,5,-1
 367 -129 l 1,6,7
 377 -89 377 -89 386.5 -45.5 c 128,-1,8
 396 -2 396 -2 403.5 40 c 128,-1,9
 411 82 411 82 416 116 c 1,10,-1
 513 116 l 1,0,-1
470 414 m 256,11,12
 444 414 444 414 426 430 c 128,-1,13
 408 446 408 446 408 482 c 0,14,15
 408 520 408 520 426 535 c 128,-1,16
 444 550 444 550 470 550 c 256,17,18
 496 550 496 550 514 535 c 128,-1,19
 532 520 532 520 532 482 c 0,20,21
 532 446 532 446 514 430 c 128,-1,22
 496 414 496 414 470 414 c 256,11,12
EndSplineSet
EndChar

StartChar: less.guru
Encoding: 60 60 28
Width: 899
Flags: W
LayerCount: 2
Fore
SplineSet
224 284 m 1,0,-1
 224 333 l 1,1,-1
 675 568 l 1,2,-1
 675 490 l 1,3,-1
 316 313 l 1,4,-1
 675 155 l 1,5,-1
 675 77 l 1,6,-1
 224 284 l 1,0,-1
EndSplineSet
EndChar

StartChar: equal.guru
Encoding: 61 61 29
Width: 899
Flags: W
LayerCount: 2
Fore
SplineSet
224 459 m 1,0,-1
 675 459 l 1,1,-1
 675 386 l 1,2,-1
 224 386 l 1,3,-1
 224 459 l 1,0,-1
224 259 m 1,4,-1
 675 259 l 1,5,-1
 675 186 l 1,6,-1
 224 186 l 1,7,-1
 224 259 l 1,4,-1
EndSplineSet
EndChar

StartChar: greater.guru
Encoding: 62 62 30
Width: 899
Flags: W
LayerCount: 2
Fore
SplineSet
224 155 m 1,0,-1
 583 313 l 1,1,-1
 224 490 l 1,2,-1
 224 568 l 1,3,-1
 675 333 l 1,4,-1
 675 284 l 1,5,-1
 224 77 l 1,6,-1
 224 155 l 1,0,-1
EndSplineSet
EndChar

StartChar: question.guru
Encoding: 63 63 31
Width: 899
Flags: W
LayerCount: 2
Fore
SplineSet
381 202 m 1,0,-1
 381 220 l 2,1,2
 381 258 381 258 388 285.5 c 128,-1,3
 395 313 395 313 413.5 338 c 128,-1,4
 432 363 432 363 464 390 c 0,5,6
 495 417 495 417 514.5 438 c 128,-1,7
 534 459 534 459 543 483 c 128,-1,8
 552 507 552 507 552 541 c 0,9,10
 552 588 552 588 523.5 617 c 128,-1,11
 495 646 495 646 441 646 c 0,12,13
 401 646 401 646 364 633.5 c 128,-1,14
 327 621 327 621 293 604 c 1,15,-1
 262 675 l 1,16,17
 302 695 302 695 348 709.5 c 128,-1,18
 394 724 394 724 441 724 c 0,19,20
 532 724 532 724 584.5 676 c 128,-1,21
 637 628 637 628 637 542 c 0,22,23
 637 499 637 499 625.5 467 c 128,-1,24
 614 435 614 435 590.5 408 c 128,-1,25
 567 381 567 381 532 350 c 0,26,27
 499 321 499 321 481 300.5 c 128,-1,28
 463 280 463 280 456 260 c 128,-1,29
 449 240 449 240 449 211 c 2,30,-1
 449 202 l 1,31,-1
 381 202 l 1,0,-1
358 54 m 0,32,33
 358 92 358 92 376 107 c 128,-1,34
 394 122 394 122 420 122 c 256,35,36
 446 122 446 122 464 107 c 128,-1,37
 482 92 482 92 482 54 c 0,38,39
 482 18 482 18 464 2 c 128,-1,40
 446 -14 446 -14 420 -14 c 256,41,42
 394 -14 394 -14 376 2 c 128,-1,43
 358 18 358 18 358 54 c 0,32,33
EndSplineSet
EndChar

StartChar: bracketleft.guru
Encoding: 91 91 32
Width: 899
Flags: W
LayerCount: 2
Fore
SplineSet
352.5 832 m 1,0,-1
 546.5 832 l 1,1,-1
 546.5 762 l 1,2,-1
 432.5 762 l 1,3,-1
 432.5 -96 l 1,4,-1
 546.5 -96 l 1,5,-1
 546.5 -166 l 1,6,-1
 352.5 -166 l 1,7,-1
 352.5 832 l 1,0,-1
EndSplineSet
EndChar

StartChar: backslash.guru
Encoding: 92 92 33
Width: 899
Flags: W
LayerCount: 2
Fore
SplineSet
277 832 m 1,0,-1
 359 832 l 1,1,-1
 622 -166 l 1,2,-1
 540 -166 l 1,3,-1
 277 832 l 1,0,-1
EndSplineSet
EndChar

StartChar: bracketright.guru
Encoding: 93 93 34
Width: 899
Flags: W
LayerCount: 2
Fore
SplineSet
352.5 -96 m 1,0,-1
 465.5 -96 l 1,1,-1
 465.5 762 l 1,2,-1
 352.5 762 l 1,3,-1
 352.5 832 l 1,4,-1
 546.5 832 l 1,5,-1
 546.5 -166 l 1,6,-1
 352.5 -166 l 1,7,-1
 352.5 -96 l 1,0,-1
EndSplineSet
EndChar

StartChar: asciicircum.guru
Encoding: 94 94 35
Width: 899
Flags: W
LayerCount: 2
Fore
SplineSet
427.5 719 m 1,0,-1
 477.5 719 l 1,1,-1
 695.5 268 l 1,2,-1
 617.5 268 l 1,3,-1
 452.5 627 l 1,4,-1
 282.5 268 l 1,5,-1
 203.5 268 l 1,6,-1
 427.5 719 l 1,0,-1
EndSplineSet
EndChar

StartChar: underscore.guru
Encoding: 95 95 36
Width: 899
Flags: W
LayerCount: 2
Fore
SplineSet
242 -90 m 1,0,-1
 657 -90 l 1,1,-1
 657 -158 l 1,2,-1
 242 -158 l 1,3,-1
 242 -90 l 1,0,-1
EndSplineSet
EndChar

StartChar: braceleft.guru
Encoding: 123 123 37
Width: 899
Flags: W
LayerCount: 2
Fore
SplineSet
303 370 m 1,0,1
 343 370 343 370 370.5 379 c 128,-1,2
 398 388 398 388 412 408 c 128,-1,3
 426 428 426 428 426 460 c 2,4,-1
 426 691 l 2,5,6
 426 741 426 741 448 771.5 c 128,-1,7
 470 802 470 802 508.5 816.5 c 128,-1,8
 547 831 547 831 596 832 c 1,9,-1
 596 760 l 1,10,11
 569 760 569 760 549 753.5 c 128,-1,12
 529 747 529 747 518 731.5 c 128,-1,13
 507 716 507 716 507 685 c 2,14,-1
 507 455 l 2,15,16
 507 405 507 405 480 375.5 c 128,-1,17
 453 346 453 346 401 335 c 1,18,-1
 401 330 l 1,19,20
 453 320 453 320 480 291 c 128,-1,21
 507 262 507 262 507 211 c 2,22,-1
 507 -18 l 2,23,24
 507 -49 507 -49 518 -65 c 128,-1,25
 529 -81 529 -81 549 -87 c 128,-1,26
 569 -93 569 -93 596 -94 c 1,27,-1
 596 -166 l 1,28,29
 547 -165 547 -165 508.5 -150.5 c 128,-1,30
 470 -136 470 -136 448 -105.5 c 128,-1,31
 426 -75 426 -75 426 -25 c 2,32,-1
 426 206 l 2,33,34
 426 239 426 239 412 258.5 c 128,-1,35
 398 278 398 278 370.5 287 c 128,-1,36
 343 296 343 296 303 296 c 1,37,-1
 303 370 l 1,0,1
EndSplineSet
EndChar

StartChar: bar.guru
Encoding: 124 124 38
Width: 899
Flags: W
LayerCount: 2
Fore
SplineSet
413.5 832 m 1,0,-1
 485.5 832 l 1,1,-1
 485.5 -166 l 1,2,-1
 413.5 -166 l 1,3,-1
 413.5 832 l 1,0,-1
EndSplineSet
EndChar

StartChar: braceright.guru
Encoding: 125 125 39
Width: 899
Flags: W
LayerCount: 2
Fore
SplineSet
596 296 m 1,0,1
 556 296 556 296 529 287 c 128,-1,2
 502 278 502 278 488 258.5 c 128,-1,3
 474 239 474 239 474 206 c 2,4,-1
 474 -25 l 2,5,6
 474 -75 474 -75 451.5 -105.5 c 128,-1,7
 429 -136 429 -136 390.5 -150.5 c 128,-1,8
 352 -165 352 -165 303 -166 c 1,9,-1
 303 -94 l 1,10,11
 331 -93 331 -93 351 -87 c 128,-1,12
 371 -81 371 -81 381.5 -65 c 128,-1,13
 392 -49 392 -49 392 -18 c 2,14,-1
 392 211 l 2,15,16
 392 262 392 262 419 291 c 128,-1,17
 446 320 446 320 498 330 c 1,18,-1
 498 335 l 1,19,20
 446 346 446 346 419 375.5 c 128,-1,21
 392 405 392 405 392 455 c 2,22,-1
 392 685 l 2,23,24
 392 716 392 716 381.5 731.5 c 128,-1,25
 371 747 371 747 351 753.5 c 128,-1,26
 331 760 331 760 303 760 c 1,27,-1
 303 832 l 1,28,29
 352 831 352 831 390.5 816.5 c 128,-1,30
 429 802 429 802 451.5 771.5 c 128,-1,31
 474 741 474 741 474 691 c 2,32,-1
 474 460 l 2,33,34
 474 428 474 428 488 408 c 128,-1,35
 502 388 502 388 529 379 c 128,-1,36
 556 370 556 370 596 370 c 1,37,-1
 596 296 l 1,0,1
EndSplineSet
EndChar

StartChar: asciitilde.guru
Encoding: 126 126 40
Width: 899
Flags: W
LayerCount: 2
Fore
SplineSet
224 335 m 1,0,1
 249 362 249 362 279 375 c 128,-1,2
 309 388 309 388 345 388 c 0,3,4
 364 388 364 388 380 385.5 c 128,-1,5
 396 383 396 383 416 376.5 c 128,-1,6
 436 370 436 370 466 357 c 0,7,8
 503 341 503 341 523 335.5 c 128,-1,9
 543 330 543 330 564 330 c 0,10,11
 592 330 592 330 622 347 c 128,-1,12
 652 364 652 364 675 389 c 1,13,-1
 675 310 l 1,14,15
 651 284 651 284 620.5 270.5 c 128,-1,16
 590 257 590 257 554 257 c 0,17,18
 535 257 535 257 519 259.5 c 128,-1,19
 503 262 503 262 483.5 268.5 c 128,-1,20
 464 275 464 275 433 288 c 0,21,22
 397 304 397 304 377.5 309.5 c 128,-1,23
 358 315 358 315 335 315 c 0,24,25
 308 315 308 315 278 298 c 128,-1,26
 248 281 248 281 224 256 c 1,27,-1
 224 335 l 1,0,1
EndSplineSet
EndChar

StartChar: A
Encoding: 65 65 41
Width: 899
Flags: W
AnchorPoint: "Anchor-1" 372.5 0 basechar 0
LayerCount: 2
Fore
SplineSet
650.5 0 m 1,0,-1
 650.5 373 l 1,1,-1
 662.5 356 l 1,2,3
 627.5 348 627.5 348 596.5 336 c 128,-1,4
 565.5 324 565.5 324 538 308 c 128,-1,5
 510.5 292 510.5 292 484.5 271 c 1,6,-1
 503.5 305 l 1,7,8
 503.5 248 503.5 248 494.5 203.5 c 128,-1,9
 485.5 159 485.5 159 467 133.5 c 128,-1,10
 448.5 108 448.5 108 419.5 108 c 0,11,12
 398.5 108 398.5 108 384.5 120.5 c 128,-1,13
 370.5 133 370.5 133 370.5 166 c 0,14,15
 370.5 204 370.5 204 389 246 c 128,-1,16
 407.5 288 407.5 288 434.5 317 c 1,17,18
 433.5 348 433.5 348 428 380 c 128,-1,19
 422.5 412 422.5 412 414 438.5 c 128,-1,20
 405.5 465 405.5 465 394.5 478 c 1,21,-1
 426.5 473 l 1,22,23
 393.5 463 393.5 463 359.5 447 c 128,-1,24
 325.5 431 325.5 431 298 413 c 128,-1,25
 270.5 395 270.5 395 253.5 379 c 1,26,-1
 267.5 422 l 1,27,28
 267.5 360 267.5 360 259 312.5 c 128,-1,29
 250.5 265 250.5 265 232 238.5 c 128,-1,30
 213.5 212 213.5 212 182.5 212 c 0,31,32
 161.5 212 161.5 212 148 224.5 c 128,-1,33
 134.5 237 134.5 237 134.5 271 c 0,34,35
 134.5 308 134.5 308 152.5 349.5 c 128,-1,36
 170.5 391 170.5 391 196.5 419 c 1,37,38
 193.5 482 193.5 482 180 516 c 128,-1,39
 166.5 550 166.5 550 155.5 558 c 1,40,-1
 198.5 551 l 1,41,-1
 71.5 551 l 1,42,-1
 71.5 622 l 1,43,-1
 222.5 622 l 1,44,45
 232.5 602 232.5 602 242 572 c 128,-1,46
 251.5 542 251.5 542 258 509 c 128,-1,47
 264.5 476 264.5 476 264.5 445 c 1,48,-1
 251.5 456 l 1,49,50
 263.5 471 263.5 471 295 490.5 c 128,-1,51
 326.5 510 326.5 510 368.5 527.5 c 128,-1,52
 410.5 545 410.5 545 452.5 554 c 1,53,54
 462.5 537 462.5 537 471.5 510.5 c 128,-1,55
 480.5 484 480.5 484 487.5 453.5 c 128,-1,56
 494.5 423 494.5 423 498.5 393 c 128,-1,57
 502.5 363 502.5 363 502.5 339 c 1,58,-1
 485.5 353 l 1,59,60
 503.5 368 503.5 368 530.5 383 c 128,-1,61
 557.5 398 557.5 398 591.5 411.5 c 128,-1,62
 625.5 425 625.5 425 662.5 433 c 1,63,-1
 650.5 405 l 1,64,-1
 650.5 622 l 1,65,-1
 827.5 622 l 1,66,-1
 827.5 551 l 1,67,-1
 731.5 551 l 1,68,-1
 731.5 0 l 1,69,-1
 650.5 0 l 1,0,-1
EndSplineSet
EndChar

StartChar: B
Encoding: 66 66 42
Width: 899
Flags: W
LayerCount: 2
Fore
SplineSet
636 617 m 0,0,1
 636 583 636 583 622 557.5 c 128,-1,2
 608 532 608 532 587 512.5 c 128,-1,3
 566 493 566 493 545 477 c 128,-1,4
 524 461 524 461 510 445.5 c 128,-1,5
 496 430 496 430 496 412 c 0,6,7
 496 399 496 399 502.5 388 c 128,-1,8
 509 377 509 377 528 362.5 c 128,-1,9
 547 348 547 348 584 323 c 0,10,11
 620 299 620 299 646 275 c 128,-1,12
 672 251 672 251 686 222 c 128,-1,13
 700 193 700 193 700 153 c 0,14,15
 700 96 700 96 676.5 60 c 128,-1,16
 653 24 653 24 611 7 c 128,-1,17
 569 -10 569 -10 514 -10 c 0,18,19
 467 -10 467 -10 431 -1 c 128,-1,20
 395 8 395 8 369 24 c 1,21,-1
 369 103 l 1,22,23
 386 93 386 93 409 83 c 128,-1,24
 432 73 432 73 458.5 67 c 128,-1,25
 485 61 485 61 511 61 c 0,26,27
 566 61 566 61 590 84 c 128,-1,28
 614 107 614 107 614 147 c 0,29,30
 614 171 614 171 605.5 189.5 c 128,-1,31
 597 208 597 208 576.5 226 c 128,-1,32
 556 244 556 244 520 267 c 0,33,34
 478 294 478 294 454.5 315.5 c 128,-1,35
 431 337 431 337 421 359 c 128,-1,36
 411 381 411 381 411 407 c 0,37,38
 411 438 411 438 424.5 460 c 128,-1,39
 438 482 438 482 458.5 498.5 c 128,-1,40
 479 515 479 515 499.5 531 c 128,-1,41
 520 547 520 547 533.5 566 c 128,-1,42
 547 585 547 585 547 612 c 0,43,44
 547 654 547 654 511.5 673 c 128,-1,45
 476 692 476 692 420 692 c 0,46,47
 385 692 385 692 354.5 682.5 c 128,-1,48
 324 673 324 673 305.5 650 c 128,-1,49
 287 627 287 627 287 584 c 2,50,-1
 287 0 l 1,51,-1
 199 0 l 1,52,-1
 199 584 l 2,53,54
 199 651 199 651 228 690.5 c 128,-1,55
 257 730 257 730 307 747.5 c 128,-1,56
 357 765 357 765 420 765 c 0,57,58
 485 765 485 765 533.5 748.5 c 128,-1,59
 582 732 582 732 609 699.5 c 128,-1,60
 636 667 636 667 636 617 c 0,0,1
EndSplineSet
EndChar

StartChar: C
Encoding: 67 67 43
Width: 899
Flags: W
LayerCount: 2
Fore
SplineSet
489.5 737 m 4,0,1
 509.5 737 509.5 737 525 723.5 c 132,-1,2
 540.5 710 540.5 710 540.5 681 c 4,3,4
 540.5 653 540.5 653 525 639 c 132,-1,5
 509.5 625 509.5 625 489.5 625 c 4,6,7
 467.5 625 467.5 625 452.5 639 c 132,-1,8
 437.5 653 437.5 653 437.5 681 c 4,9,10
 437.5 710 437.5 710 452.5 723.5 c 132,-1,11
 467.5 737 467.5 737 489.5 737 c 4,0,1
505.5 -10 m 0,12,13
 387.5 -10 387.5 -10 322.5 57 c 128,-1,14
 257.5 124 257.5 124 257.5 245 c 0,15,16
 257.5 325 257.5 325 286.5 380.5 c 128,-1,17
 315.5 436 315.5 436 369.5 465 c 1,18,-1
 236.5 465 l 1,19,-1
 236.5 537 l 1,20,-1
 662.5 537 l 1,21,-1
 662.5 465 l 1,22,-1
 549.5 465 l 2,23,24
 455.5 465 455.5 465 402 411.5 c 128,-1,25
 348.5 358 348.5 358 348.5 252 c 0,26,27
 348.5 165 348.5 165 391.5 114.5 c 128,-1,28
 434.5 64 434.5 64 514.5 64 c 0,29,30
 551.5 64 551.5 64 585.5 73.5 c 128,-1,31
 619.5 83 619.5 83 651.5 99 c 1,32,-1
 651.5 21 l 1,33,34
 622.5 5 622.5 5 587.5 -2.5 c 128,-1,35
 552.5 -10 552.5 -10 505.5 -10 c 0,12,13
EndSplineSet
EndChar

StartChar: D
Encoding: 68 68 44
Width: 899
Flags: W
LayerCount: 2
Fore
SplineSet
508 0 m 0,0,1
 417 0 417 0 358 35.5 c 128,-1,2
 299 71 299 71 270 134 c 128,-1,3
 241 197 241 197 241 280 c 2,4,-1
 241 291 l 1,5,-1
 223 291 l 2,6,7
 195 291 195 291 183.5 302 c 128,-1,8
 172 313 172 313 172 329 c 0,9,10
 172 347 172 347 182.5 366.5 c 128,-1,11
 193 386 193 386 209.5 403.5 c 128,-1,12
 226 421 226 421 244.5 431.5 c 128,-1,13
 263 442 263 442 279 442 c 0,14,15
 303 442 303 442 312.5 425.5 c 128,-1,16
 322 409 322 409 322 387 c 2,17,-1
 322 362 l 1,18,-1
 587 362 l 1,19,-1
 587 551 l 1,20,-1
 203 551 l 1,21,-1
 203 622 l 1,22,-1
 727 622 l 5,23,-1
 727 551 l 5,24,-1
 667 551 l 1,25,-1
 667 320 l 1,26,-1
 638 291 l 1,27,-1
 322 291 l 1,28,29
 322 223 322 223 339 180 c 128,-1,30
 356 137 356 137 383 114 c 128,-1,31
 410 91 410 91 443 82 c 128,-1,32
 476 73 476 73 509 73 c 0,33,34
 556 73 556 73 596.5 84 c 128,-1,35
 637 95 637 95 682 117 c 1,36,-1
 710 46 l 1,37,38
 664 24 664 24 612.5 12 c 128,-1,39
 561 0 561 0 508 0 c 0,0,1
EndSplineSet
EndChar

StartChar: E
Encoding: 69 69 45
Width: 899
Flags: W
LayerCount: 2
Fore
SplineSet
649 0 m 1,0,-1
 250 0 l 1,1,-1
 250 714 l 1,2,-1
 649 714 l 1,3,-1
 649 635 l 1,4,-1
 340 635 l 1,5,-1
 340 412 l 1,6,-1
 631 412 l 1,7,-1
 631 334 l 1,8,-1
 340 334 l 1,9,-1
 340 79 l 1,10,-1
 649 79 l 1,11,-1
 649 0 l 1,0,-1
EndSplineSet
EndChar

StartChar: F
Encoding: 70 70 46
Width: 899
Flags: W
LayerCount: 2
Fore
SplineSet
340 0 m 1,0,-1
 250 0 l 1,1,-1
 250 714 l 1,2,-1
 649 714 l 1,3,-1
 649 635 l 1,4,-1
 340 635 l 1,5,-1
 340 382 l 1,6,-1
 630 382 l 1,7,-1
 630 303 l 1,8,-1
 340 303 l 1,9,-1
 340 0 l 1,0,-1
EndSplineSet
EndChar

StartChar: G
Encoding: 71 71 47
Width: 899
Flags: W
LayerCount: 2
Fore
SplineSet
432 546 m 0,0,1
 485 546 485 546 527.5 526 c 128,-1,2
 570 506 570 506 600 465 c 1,3,-1
 605 465 l 1,4,-1
 617 536 l 1,5,-1
 687 536 l 1,6,-1
 687 -9 l 2,7,8
 687 -85 687 -85 661 -136.5 c 128,-1,9
 635 -188 635 -188 582 -214 c 128,-1,10
 529 -240 529 -240 447 -240 c 0,11,12
 389 -240 389 -240 340.5 -231.5 c 128,-1,13
 292 -223 292 -223 254 -206 c 1,14,-1
 254 -125 l 1,15,16
 292 -145 292 -145 343 -156 c 128,-1,17
 394 -167 394 -167 452 -167 c 0,18,19
 521 -167 521 -167 560.5 -126.5 c 128,-1,20
 600 -86 600 -86 600 -16 c 2,21,-1
 600 5 l 2,22,23
 600 17 600 17 601 39.5 c 128,-1,24
 602 62 602 62 603 71 c 1,25,-1
 599 71 l 1,26,27
 571 30 571 30 529.5 10 c 128,-1,28
 488 -10 488 -10 433 -10 c 0,29,30
 329 -10 329 -10 270.5 63 c 128,-1,31
 212 136 212 136 212 267 c 0,32,33
 212 395 212 395 270.5 470.5 c 128,-1,34
 329 546 329 546 432 546 c 0,0,1
444 472 m 0,35,36
 399 472 399 472 367.5 448 c 128,-1,37
 336 424 336 424 319.5 378 c 128,-1,38
 303 332 303 332 303 266 c 0,39,40
 303 167 303 167 339.5 114.5 c 128,-1,41
 376 62 376 62 446 62 c 0,42,43
 487 62 487 62 516 72.5 c 128,-1,44
 545 83 545 83 564 105.5 c 128,-1,45
 583 128 583 128 592 163 c 128,-1,46
 601 198 601 198 601 246 c 2,47,-1
 601 267 l 2,48,49
 601 340 601 340 584.5 385 c 128,-1,50
 568 430 568 430 533 451 c 128,-1,51
 498 472 498 472 444 472 c 0,35,36
455 737 m 0,52,53
 475 737 475 737 490.5 723.5 c 128,-1,54
 506 710 506 710 506 681 c 0,55,56
 506 653 506 653 490.5 639 c 128,-1,57
 475 625 475 625 455 625 c 0,58,59
 433 625 433 625 418 639 c 128,-1,60
 403 653 403 653 403 681 c 0,61,62
 403 710 403 710 418 723.5 c 128,-1,63
 433 737 433 737 455 737 c 0,52,53
EndSplineSet
EndChar

StartChar: H
Encoding: 72 72 48
Width: 899
Flags: W
AnchorPoint: "Anchor-2" 514.5 0 basechar 0
LayerCount: 2
Fore
SplineSet
466.5 0 m 0,0,1
 412.5 0 412.5 0 364 21.5 c 128,-1,2
 315.5 43 315.5 43 277 79.5 c 128,-1,3
 238.5 116 238.5 116 216.5 162.5 c 128,-1,4
 194.5 209 194.5 209 194.5 258 c 0,5,6
 194.5 310 194.5 310 217.5 343 c 128,-1,7
 240.5 376 240.5 376 283 392 c 128,-1,8
 325.5 408 325.5 408 385.5 408 c 0,9,10
 396.5 408 396.5 408 408.5 407.5 c 128,-1,11
 420.5 407 420.5 407 427.5 405 c 1,12,-1
 421.5 333 l 1,13,14
 413.5 335 413.5 335 402.5 335 c 128,-1,15
 391.5 335 391.5 335 383.5 335 c 0,16,17
 332.5 335 332.5 335 304 317.5 c 128,-1,18
 275.5 300 275.5 300 275.5 253 c 0,19,20
 275.5 220 275.5 220 292.5 188 c 128,-1,21
 309.5 156 309.5 156 338 130 c 128,-1,22
 366.5 104 366.5 104 402 88.5 c 128,-1,23
 437.5 73 437.5 73 474.5 73 c 0,24,25
 495.5 73 495.5 73 514.5 78 c 128,-1,26
 533.5 83 533.5 83 544.5 96 c 0,27,28
 553.5 107 553.5 107 558.5 124.5 c 128,-1,29
 563.5 142 563.5 142 563.5 183 c 2,30,-1
 563.5 551 l 1,31,-1
 223.5 551 l 1,32,-1
 223.5 622 l 1,33,-1
 704.5 622 l 5,34,-1
 704.5 551 l 5,35,-1
 644.5 551 l 1,36,-1
 644.5 172 l 2,37,38
 644.5 113 644.5 113 625 75 c 128,-1,39
 605.5 37 605.5 37 566 18.5 c 128,-1,40
 526.5 0 526.5 0 466.5 0 c 0,0,1
EndSplineSet
EndChar

StartChar: I
Encoding: 73 73 49
Width: 899
Flags: W
LayerCount: 2
Fore
SplineSet
550 756 m 1,0,1
 541 742 541 742 524 722 c 0,2,3
 507 702 507 702 486.5 680.5 c 0,4,5
 466 659 466 659 445.5 639.5 c 0,6,7
 425 620 425 620 407 606 c 1,8,-1
 349 606 l 1,9,-1
 349 618 l 1,10,11
 364 637 364 637 381.5 663 c 0,12,13
 399 689 399 689 416 716.5 c 0,14,15
 433 744 433 744 444 766 c 1,16,-1
 550 766 l 1,17,-1
 550 756 l 1,0,1
446 0 m 5,18,-1
 358 0 l 5,19,-1
 358 536 l 5,20,-1
 446 536 l 5,21,-1
 446 0 l 5,18,-1
EndSplineSet
EndChar

StartChar: J
Encoding: 74 74 50
Width: 899
Flags: W
LayerCount: 2
Fore
SplineSet
399 -8 m 4,0,1
 344 -8 344 -8 300 4 c 132,-1,2
 256 16 256 16 222 33 c 5,3,-1
 253 103 l 5,4,5
 283 89 283 89 319.5 77 c 132,-1,6
 356 65 356 65 397 65 c 4,7,8
 454 65 454 65 484 94.5 c 132,-1,9
 514 124 514 124 514 190 c 6,10,-1
 514 329 l 5,11,-1
 310 329 l 5,12,-1
 310 395 l 5,13,-1
 514 395 l 5,14,-1
 514 499 l 6,15,16
 514 539 514 539 523.5 565.5 c 132,-1,17
 533 592 533 592 548.5 608 c 132,-1,18
 564 624 564 624 582 635 c 5,19,-1
 198 635 l 5,20,-1
 198 715 l 5,21,-1
 701 715 l 5,22,-1
 701 641 l 5,23,24
 672 634 672 634 650 617.5 c 132,-1,25
 628 601 628 601 615 572.5 c 132,-1,26
 602 544 602 544 602 500 c 6,27,-1
 602 395 l 5,28,-1
 698 395 l 5,29,-1
 698 329 l 5,30,-1
 602 329 l 5,31,-1
 602 181 l 6,32,33
 602 121 602 121 577 79 c 132,-1,34
 552 37 552 37 506 14.5 c 132,-1,35
 460 -8 460 -8 399 -8 c 4,0,1
EndSplineSet
EndChar

StartChar: K
Encoding: 75 75 51
Width: 899
Flags: W
LayerCount: 2
Fore
SplineSet
429.5 737 m 4,0,1
 449.5 737 449.5 737 465 723.5 c 132,-1,2
 480.5 710 480.5 710 480.5 681 c 4,3,4
 480.5 653 480.5 653 465 639 c 132,-1,5
 449.5 625 449.5 625 429.5 625 c 4,6,7
 407.5 625 407.5 625 392.5 639 c 132,-1,8
 377.5 653 377.5 653 377.5 681 c 4,9,10
 377.5 710 377.5 710 392.5 723.5 c 132,-1,11
 407.5 737 407.5 737 429.5 737 c 4,0,1
316.5 363 m 2,12,13
 316.5 347 316.5 347 315 321 c 128,-1,14
 313.5 295 313.5 295 312.5 276 c 1,15,-1
 316.5 276 l 1,16,17
 322.5 284 322.5 284 334.5 299 c 128,-1,18
 346.5 314 346.5 314 359 329.5 c 128,-1,19
 371.5 345 371.5 345 380.5 355 c 2,20,-1
 551.5 536 l 1,21,-1
 654.5 536 l 1,22,-1
 437.5 307 l 1,23,-1
 669.5 0 l 1,24,-1
 563.5 0 l 1,25,-1
 377.5 250 l 1,26,-1
 316.5 197 l 1,27,-1
 316.5 0 l 1,28,-1
 229.5 0 l 1,29,-1
 229.5 536 l 1,30,-1
 316.5 536 l 1,31,-1
 316.5 363 l 2,12,13
EndSplineSet
EndChar

StartChar: L
Encoding: 76 76 52
Width: 899
Flags: W
LayerCount: 2
Fore
SplineSet
500 723 m 0,0,1
 555 723 555 723 599 711 c 128,-1,2
 643 699 643 699 677 682 c 1,3,-1
 646 612 l 1,4,5
 616 626 616 626 579.5 638 c 128,-1,6
 543 650 543 650 502 650 c 0,7,8
 445 650 445 650 415 620.5 c 128,-1,9
 385 591 385 591 385 525 c 2,10,-1
 385 386 l 1,11,-1
 589 386 l 1,12,-1
 589 320 l 1,13,-1
 385 320 l 1,14,-1
 385 216 l 2,15,16
 385 176 385 176 375.5 149.5 c 128,-1,17
 366 123 366 123 350.5 107 c 128,-1,18
 335 91 335 91 317 80 c 1,19,-1
 701 80 l 1,20,-1
 701 0 l 1,21,-1
 198 0 l 1,22,-1
 198 74 l 1,23,24
 227 81 227 81 249 97.5 c 128,-1,25
 271 114 271 114 284 142.5 c 128,-1,26
 297 171 297 171 297 215 c 2,27,-1
 297 320 l 1,28,-1
 201 320 l 1,29,-1
 201 386 l 1,30,-1
 297 386 l 1,31,-1
 297 534 l 2,32,33
 297 594 297 594 322 636 c 128,-1,34
 347 678 347 678 393 700.5 c 128,-1,35
 439 723 439 723 500 723 c 0,0,1
EndSplineSet
EndChar

StartChar: M
Encoding: 77 77 53
Width: 899
Flags: W
LayerCount: 2
Fore
SplineSet
653 546 m 0,0,1
 744 546 744 546 789 499.5 c 128,-1,2
 834 453 834 453 834 349 c 2,3,-1
 834 0 l 1,4,-1
 747 0 l 1,5,-1
 747 345 l 2,6,7
 747 408 747 408 720.5 440 c 128,-1,8
 694 472 694 472 638 472 c 0,9,10
 560 472 560 472 526.5 427 c 128,-1,11
 493 382 493 382 493 296 c 2,12,-1
 493 0 l 1,13,-1
 406 0 l 1,14,-1
 406 345 l 2,15,16
 406 387 406 387 394 415.5 c 128,-1,17
 382 444 382 444 358 458 c 128,-1,18
 334 472 334 472 296 472 c 0,19,20
 242 472 242 472 211 449.5 c 128,-1,21
 180 427 180 427 166.5 384 c 128,-1,22
 153 341 153 341 153 278 c 2,23,-1
 153 0 l 1,24,-1
 65 0 l 1,25,-1
 65 536 l 1,26,-1
 136 536 l 1,27,-1
 149 463 l 1,28,-1
 154 463 l 1,29,30
 171 491 171 491 195.5 509.5 c 128,-1,31
 220 528 220 528 250 537 c 128,-1,32
 280 546 280 546 312 546 c 0,33,34
 374 546 374 546 415.5 524 c 128,-1,35
 457 502 457 502 476 456 c 1,36,-1
 481 456 l 1,37,38
 508 502 508 502 554.5 524 c 128,-1,39
 601 546 601 546 653 546 c 0,0,1
460 737 m 0,40,41
 480 737 480 737 495.5 723.5 c 128,-1,42
 511 710 511 710 511 681 c 0,43,44
 511 653 511 653 495.5 639 c 128,-1,45
 480 625 480 625 460 625 c 0,46,47
 438 625 438 625 423 639 c 128,-1,48
 408 653 408 653 408 681 c 0,49,50
 408 710 408 710 423 723.5 c 128,-1,51
 438 737 438 737 460 737 c 0,40,41
EndSplineSet
EndChar

StartChar: N
Encoding: 78 78 54
Width: 899
Flags: W
LayerCount: 2
Fore
SplineSet
423.5 737 m 4,0,1
 443.5 737 443.5 737 459 723.5 c 132,-1,2
 474.5 710 474.5 710 474.5 681 c 4,3,4
 474.5 653 474.5 653 459 639 c 132,-1,5
 443.5 625 443.5 625 423.5 625 c 4,6,7
 401.5 625 401.5 625 386.5 639 c 132,-1,8
 371.5 653 371.5 653 371.5 681 c 4,9,10
 371.5 710 371.5 710 386.5 723.5 c 132,-1,11
 401.5 737 401.5 737 423.5 737 c 4,0,1
481.5 546 m 0,12,13
 577.5 546 577.5 546 626.5 499.5 c 128,-1,14
 675.5 453 675.5 453 675.5 349 c 2,15,-1
 675.5 0 l 1,16,-1
 588.5 0 l 1,17,-1
 588.5 343 l 2,18,19
 588.5 408 588.5 408 559.5 440 c 128,-1,20
 530.5 472 530.5 472 468.5 472 c 0,21,22
 379.5 472 379.5 472 345.5 422 c 128,-1,23
 311.5 372 311.5 372 311.5 278 c 2,24,-1
 311.5 0 l 1,25,-1
 223.5 0 l 1,26,-1
 223.5 536 l 1,27,-1
 294.5 536 l 1,28,-1
 307.5 463 l 1,29,-1
 312.5 463 l 1,30,31
 330.5 491 330.5 491 357 509.5 c 128,-1,32
 383.5 528 383.5 528 415.5 537 c 128,-1,33
 447.5 546 447.5 546 481.5 546 c 0,12,13
EndSplineSet
EndChar

StartChar: O
Encoding: 79 79 55
Width: 899
Flags: W
LayerCount: 2
Fore
SplineSet
697.5 269 m 256,0,1
 697.5 180 697.5 180 667 117.5 c 128,-1,2
 636.5 55 636.5 55 580.5 22.5 c 128,-1,3
 524.5 -10 524.5 -10 447.5 -10 c 0,4,5
 376.5 -10 376.5 -10 321 22.5 c 128,-1,6
 265.5 55 265.5 55 233.5 117.5 c 128,-1,7
 201.5 180 201.5 180 201.5 269 c 0,8,9
 201.5 402 201.5 402 268.5 474 c 128,-1,10
 335.5 546 335.5 546 450.5 546 c 0,11,12
 523.5 546 523.5 546 579 513.5 c 128,-1,13
 634.5 481 634.5 481 666 419.5 c 128,-1,14
 697.5 358 697.5 358 697.5 269 c 256,0,1
449.5 63 m 256,15,16
 500.5 63 500.5 63 534 83 c 128,-1,17
 567.5 103 567.5 103 585 142.5 c 128,-1,18
 602.5 182 602.5 182 605.5 239 c 1,19,-1
 292.5 239 l 1,20,21
 295.5 182 295.5 182 313.5 142.5 c 128,-1,22
 331.5 103 331.5 103 365 83 c 128,-1,23
 398.5 63 398.5 63 449.5 63 c 256,15,16
448.5 472 m 0,24,25
 374.5 472 374.5 472 337.5 431.5 c 128,-1,26
 300.5 391 300.5 391 293.5 312 c 1,27,-1
 605.5 312 l 1,28,29
 600.5 365 600.5 365 582 400.5 c 128,-1,30
 563.5 436 563.5 436 530.5 454 c 128,-1,31
 497.5 472 497.5 472 448.5 472 c 0,24,25
EndSplineSet
EndChar

StartChar: P
Encoding: 80 80 56
Width: 899
Flags: W
LayerCount: 2
Fore
SplineSet
330.5 744 m 4,0,1
 350.5 744 350.5 744 366 730.5 c 132,-1,2
 381.5 717 381.5 717 381.5 688 c 4,3,4
 381.5 660 381.5 660 366 646 c 132,-1,5
 350.5 632 350.5 632 330.5 632 c 4,6,7
 308.5 632 308.5 632 293.5 646 c 132,-1,8
 278.5 660 278.5 660 278.5 688 c 4,9,10
 278.5 717 278.5 717 293.5 730.5 c 132,-1,11
 308.5 744 308.5 744 330.5 744 c 4,0,1
468.5 546 m 0,12,13
 528.5 546 528.5 546 575.5 521 c 128,-1,14
 622.5 496 622.5 496 649.5 446.5 c 128,-1,15
 676.5 397 676.5 397 676.5 323 c 0,16,17
 676.5 252 676.5 252 649.5 193 c 128,-1,18
 622.5 134 622.5 134 573.5 90.5 c 128,-1,19
 524.5 47 524.5 47 457.5 21 c 128,-1,20
 390.5 -5 390.5 -5 310.5 -10 c 1,21,-1
 310.5 -240 l 1,22,-1
 222.5 -240 l 1,23,-1
 222.5 536 l 1,24,-1
 294.5 536 l 1,25,-1
 306.5 463 l 1,26,-1
 310.5 463 l 1,27,28
 325.5 486 325.5 486 346.5 505 c 128,-1,29
 367.5 524 367.5 524 397.5 535 c 128,-1,30
 427.5 546 427.5 546 468.5 546 c 0,12,13
450.5 472 m 0,31,32
 400.5 472 400.5 472 369.5 451.5 c 128,-1,33
 338.5 431 338.5 431 324.5 390 c 128,-1,34
 310.5 349 310.5 349 310.5 286 c 2,35,-1
 310.5 62 l 1,36,37
 375.5 70 375.5 70 426 91.5 c 128,-1,38
 476.5 113 476.5 113 512.5 146.5 c 128,-1,39
 548.5 180 548.5 180 567 224 c 128,-1,40
 585.5 268 585.5 268 585.5 321 c 0,41,42
 585.5 367 585.5 367 569.5 400.5 c 128,-1,43
 553.5 434 553.5 434 523.5 453 c 128,-1,44
 493.5 472 493.5 472 450.5 472 c 0,31,32
EndSplineSet
EndChar

StartChar: Q
Encoding: 81 81 57
Width: 899
Flags: W
LayerCount: 2
Fore
SplineSet
700.5 -5 m 1,0,1
 680.5 -5 680.5 -5 661.5 2 c 128,-1,2
 642.5 9 642.5 9 628.5 26 c 1,3,-1
 628.5 291 l 5,4,5
 600.5 266 600.5 266 563.5 250.5 c 132,-1,6
 526.5 235 526.5 235 476.5 235 c 4,7,8
 434.5 235 434.5 235 385.5 258 c 132,-1,9
 336.5 281 336.5 281 294.5 318 c 132,-1,10
 252.5 355 252.5 355 224.5 401 c 132,-1,11
 196.5 447 196.5 447 196.5 493 c 4,12,13
 196.5 541 196.5 541 214 578 c 132,-1,14
 231.5 615 231.5 615 261.5 640.5 c 132,-1,15
 291.5 666 291.5 666 332 679 c 132,-1,16
 372.5 692 372.5 692 418.5 692 c 4,17,18
 452.5 692 452.5 692 482.5 684 c 4,19,20
 531.5 671 531.5 671 538.5 662.5 c 4,21,22
 573.5 622 573.5 622 587 631.5 c 4,23,24
 590.5 634 590.5 634 628.5 718 c 5,25,-1
 626.5 717 l 5,26,-1
 702.5 717 l 6,27,-1
 700.5 -5 l 1,0,1
419.5 292 m 4,28,29
 457.5 292 457.5 292 493.5 304.5 c 132,-1,30
 529.5 317 529.5 317 559.5 340 c 5,31,-1
 326.5 580 l 5,32,33
 299.5 556 299.5 556 284.5 521.5 c 132,-1,34
 269.5 487 269.5 487 269.5 442 c 4,35,36
 269.5 406 269.5 406 281 378 c 132,-1,37
 292.5 350 292.5 350 312.5 331 c 132,-1,38
 332.5 312 332.5 312 360 302 c 132,-1,39
 387.5 292 387.5 292 419.5 292 c 4,28,29
628.5 571 m 5,40,41
 593.5 598 593.5 598 556 613.5 c 132,-1,42
 518.5 629 518.5 629 469.5 629 c 4,43,44
 397.5 629 397.5 629 346.5 596 c 5,45,-1
 577.5 356 l 5,46,47
 593.5 371 593.5 371 606.5 389 c 132,-1,48
 619.5 407 619.5 407 628.5 427 c 5,49,-1
 628.5 571 l 5,40,41
EndSplineSet
EndChar

StartChar: R
Encoding: 82 82 58
Width: 899
Flags: W
AnchorPoint: "Anchor-5" 334 0 basechar 0
LayerCount: 2
Fore
SplineSet
467 744 m 4,0,1
 487 744 487 744 502.5 730.5 c 132,-1,2
 518 717 518 717 518 688 c 4,3,4
 518 660 518 660 502.5 646 c 132,-1,5
 487 632 487 632 467 632 c 4,6,7
 445 632 445 632 430 646 c 132,-1,8
 415 660 415 660 415 688 c 4,9,10
 415 717 415 717 430 730.5 c 132,-1,11
 445 744 445 744 467 744 c 4,0,1
543 546 m 0,12,13
 558 546 558 546 575.5 544.5 c 128,-1,14
 593 543 593 543 606 540 c 1,15,-1
 595 459 l 1,16,17
 582 462 582 462 566.5 464 c 128,-1,18
 551 466 551 466 537 466 c 0,19,20
 506 466 506 466 478 453 c 128,-1,21
 450 440 450 440 428 416.5 c 128,-1,22
 406 393 406 393 393.5 360 c 128,-1,23
 381 327 381 327 381 286 c 2,24,-1
 381 0 l 1,25,-1
 293 0 l 1,26,-1
 293 536 l 1,27,-1
 365 536 l 1,28,-1
 375 438 l 1,29,-1
 379 438 l 1,30,31
 396 468 396 468 420 492.5 c 128,-1,32
 444 517 444 517 475 531.5 c 128,-1,33
 506 546 506 546 543 546 c 0,12,13
EndSplineSet
EndChar

StartChar: S
Encoding: 83 83 59
Width: 899
Flags: W
AnchorPoint: "Anchor-5" 447 0 basechar 0
LayerCount: 2
Fore
SplineSet
466 744 m 4,0,1
 486 744 486 744 501.5 730.5 c 132,-1,2
 517 717 517 717 517 688 c 4,3,4
 517 660 517 660 501.5 646 c 132,-1,5
 486 632 486 632 466 632 c 4,6,7
 444 632 444 632 429 646 c 132,-1,8
 414 660 414 660 414 688 c 4,9,10
 414 717 414 717 429 730.5 c 132,-1,11
 444 744 444 744 466 744 c 4,0,1
641 148 m 0,12,13
 641 96 641 96 615 61 c 128,-1,14
 589 26 589 26 541 8 c 128,-1,15
 493 -10 493 -10 427 -10 c 0,16,17
 371 -10 371 -10 330.5 -1 c 128,-1,18
 290 8 290 8 259 24 c 1,19,-1
 259 104 l 1,20,21
 291 88 291 88 336.5 74.5 c 128,-1,22
 382 61 382 61 429 61 c 0,23,24
 496 61 496 61 526 82.5 c 128,-1,25
 556 104 556 104 556 140 c 0,26,27
 556 160 556 160 545 176 c 128,-1,28
 534 192 534 192 505.5 208 c 128,-1,29
 477 224 477 224 424 244 c 0,30,31
 372 264 372 264 335 284 c 128,-1,32
 298 304 298 304 278 332 c 128,-1,33
 258 360 258 360 258 404 c 0,34,35
 258 472 258 472 313.5 509 c 128,-1,36
 369 546 369 546 459 546 c 0,37,38
 508 546 508 546 550.5 536.5 c 128,-1,39
 593 527 593 527 630 510 c 1,40,-1
 600 440 l 1,41,42
 566 454 566 454 529 464 c 128,-1,43
 492 474 492 474 453 474 c 0,44,45
 399 474 399 474 370.5 456.5 c 128,-1,46
 342 439 342 439 342 409 c 0,47,48
 342 387 342 387 355 371.5 c 128,-1,49
 368 356 368 356 398.5 341.5 c 128,-1,50
 429 327 429 327 480 307 c 0,51,52
 531 288 531 288 567 268 c 128,-1,53
 603 248 603 248 622 219.5 c 128,-1,54
 641 191 641 191 641 148 c 0,12,13
EndSplineSet
EndChar

StartChar: T
Encoding: 84 84 60
Width: 899
Flags: W
AnchorPoint: "Anchor-2" 526.5 0 basechar 0
LayerCount: 2
Fore
SplineSet
433.5 0 m 0,0,1
 366.5 0 366.5 0 306 18 c 128,-1,2
 245.5 36 245.5 36 196.5 64 c 1,3,-1
 228.5 137 l 1,4,5
 276.5 106 276.5 106 326.5 89.5 c 128,-1,6
 376.5 73 376.5 73 431.5 73 c 0,7,8
 475.5 73 475.5 73 511 84.5 c 128,-1,9
 546.5 96 546.5 96 568 121.5 c 128,-1,10
 589.5 147 589.5 147 589.5 189 c 0,11,12
 589.5 222 589.5 222 575.5 247 c 128,-1,13
 561.5 272 561.5 272 536.5 291.5 c 128,-1,14
 511.5 311 511.5 311 477.5 324 c 1,15,16
 455.5 320 455.5 320 425.5 316 c 128,-1,17
 395.5 312 395.5 312 364.5 312 c 0,18,19
 318.5 312 318.5 312 294.5 320.5 c 128,-1,20
 270.5 329 270.5 329 261.5 342 c 128,-1,21
 252.5 355 252.5 355 252.5 369 c 0,22,23
 252.5 398 252.5 398 278 408.5 c 128,-1,24
 303.5 419 303.5 419 340.5 419 c 0,25,26
 380.5 419 380.5 419 416 412.5 c 128,-1,27
 451.5 406 451.5 406 485.5 393 c 1,28,29
 520.5 407 520.5 407 543 436 c 128,-1,30
 565.5 465 565.5 465 565.5 512 c 0,31,32
 565.5 526 565.5 526 563 542.5 c 128,-1,33
 560.5 559 560.5 559 553.5 578 c 1,34,-1
 597.5 551 l 1,35,-1
 215.5 551 l 1,36,-1
 215.5 622 l 1,37,-1
 702.5 622 l 5,38,-1
 702.5 551 l 5,39,-1
 607.5 551 l 1,40,-1
 638.5 576 l 1,41,42
 642.5 560 642.5 560 644.5 542.5 c 128,-1,43
 646.5 525 646.5 525 646.5 511 c 0,44,45
 646.5 449 646.5 449 622 416.5 c 128,-1,46
 597.5 384 597.5 384 560.5 362 c 1,47,48
 593.5 344 593.5 344 618.5 320 c 128,-1,49
 643.5 296 643.5 296 657.5 264 c 128,-1,50
 671.5 232 671.5 232 671.5 188 c 0,51,52
 671.5 127 671.5 127 641 85 c 128,-1,53
 610.5 43 610.5 43 557 21.5 c 128,-1,54
 503.5 0 503.5 0 433.5 0 c 0,0,1
EndSplineSet
EndChar

StartChar: U
Encoding: 85 85 61
Width: 899
Flags: W
LayerCount: 2
Fore
SplineSet
672.5 536 m 1,0,-1
 672.5 0 l 1,1,-1
 600.5 0 l 1,2,-1
 587.5 71 l 1,3,-1
 583.5 71 l 1,4,5
 566.5 43 566.5 43 539.5 25 c 128,-1,6
 512.5 7 512.5 7 480.5 -1.5 c 128,-1,7
 448.5 -10 448.5 -10 413.5 -10 c 0,8,9
 349.5 -10 349.5 -10 306 10.5 c 128,-1,10
 262.5 31 262.5 31 240.5 74 c 128,-1,11
 218.5 117 218.5 117 218.5 185 c 2,12,-1
 218.5 536 l 1,13,-1
 307.5 536 l 1,14,-1
 307.5 191 l 2,15,16
 307.5 127 307.5 127 336.5 95 c 128,-1,17
 365.5 63 365.5 63 426.5 63 c 0,18,19
 486.5 63 486.5 63 521 85.5 c 128,-1,20
 555.5 108 555.5 108 570 151.5 c 128,-1,21
 584.5 195 584.5 195 584.5 257 c 2,22,-1
 584.5 536 l 1,23,-1
 672.5 536 l 1,0,-1
587.5 -116 m 0,24,25
 587.5 -138 587.5 -138 599.5 -149.5 c 128,-1,26
 611.5 -161 611.5 -161 632.5 -161 c 0,27,28
 649.5 -161 649.5 -161 661 -158.5 c 128,-1,29
 672.5 -156 672.5 -156 680.5 -155 c 1,30,-1
 680.5 -211 l 1,31,32
 666.5 -215 666.5 -215 652.5 -217.5 c 128,-1,33
 638.5 -220 638.5 -220 618.5 -220 c 0,34,35
 565.5 -220 565.5 -220 540.5 -195 c 128,-1,36
 515.5 -170 515.5 -170 515.5 -126 c 0,37,38
 515.5 -97 515.5 -97 530 -70 c 128,-1,39
 544.5 -43 544.5 -43 566 -21 c 128,-1,40
 587.5 1 587.5 1 607.5 15 c 1,41,-1
 655.5 0 l 1,42,43
 621.5 -32 621.5 -32 604.5 -58.5 c 128,-1,44
 587.5 -85 587.5 -85 587.5 -116 c 0,24,25
EndSplineSet
EndChar

StartChar: V
Encoding: 86 86 62
Width: 899
Flags: W
LayerCount: 2
Fore
SplineSet
437.5 737 m 4,0,1
 457.5 737 457.5 737 473 723.5 c 132,-1,2
 488.5 710 488.5 710 488.5 681 c 4,3,4
 488.5 653 488.5 653 473 639 c 132,-1,5
 457.5 625 457.5 625 437.5 625 c 4,6,7
 415.5 625 415.5 625 400.5 639 c 132,-1,8
 385.5 653 385.5 653 385.5 681 c 4,9,10
 385.5 710 385.5 710 400.5 723.5 c 132,-1,11
 415.5 737 415.5 737 437.5 737 c 4,0,1
396.5 0 m 1,12,-1
 206.5 536 l 1,13,-1
 297.5 536 l 1,14,-1
 394.5 247 l 2,15,16
 402.5 223 402.5 223 414.5 190 c 128,-1,17
 426.5 157 426.5 157 437 125.5 c 128,-1,18
 447.5 94 447.5 94 452.5 74 c 1,19,-1
 456.5 74 l 1,20,21
 513.5 137 513.5 137 546 206.5 c 128,-1,22
 578.5 276 578.5 276 592 357.5 c 128,-1,23
 605.5 439 605.5 439 605.5 536 c 1,24,-1
 692.5 536 l 1,25,26
 692.5 431 692.5 431 674.5 340.5 c 128,-1,27
 656.5 250 656.5 250 613 166.5 c 128,-1,28
 569.5 83 569.5 83 491.5 0 c 1,29,-1
 396.5 0 l 1,12,-1
EndSplineSet
EndChar

StartChar: W
Encoding: 87 87 63
Width: 899
Flags: W
LayerCount: 2
Fore
SplineSet
305.5 -10 m 0,0,1
 243.5 -10 243.5 -10 201 24 c 128,-1,2
 158.5 58 158.5 58 136.5 119 c 128,-1,3
 114.5 180 114.5 180 114.5 260 c 0,4,5
 114.5 322 114.5 322 126 467 c 128,-1,6
 137.5 612 137.5 612 156.5 652 c 5,7,-1
 42.5 652 l 5,8,-1
 42.5 725 l 5,9,-1
 856.5 725 l 5,10,-1
 856.5 652 l 5,11,-1
 742.5 652 l 5,12,13
 762.5 612 762.5 612 773.5 467 c 128,-1,14
 784.5 322 784.5 322 784.5 260 c 0,15,16
 784.5 180 784.5 180 762.5 119 c 128,-1,17
 740.5 58 740.5 58 698 24 c 128,-1,18
 655.5 -10 655.5 -10 593.5 -10 c 0,19,20
 538.5 -10 538.5 -10 503.5 15.5 c 128,-1,21
 468.5 41 468.5 41 451.5 100 c 1,22,-1
 446.5 100 l 1,23,24
 436.5 61 436.5 61 417.5 36.5 c 128,-1,25
 398.5 12 398.5 12 370.5 1 c 128,-1,26
 342.5 -10 342.5 -10 305.5 -10 c 0,0,1
311.5 63 m 0,27,28
 344.5 63 344.5 63 366 80 c 128,-1,29
 387.5 97 387.5 97 397.5 126.5 c 128,-1,30
 407.5 156 407.5 156 407.5 193 c 2,31,-1
 407.5 344 l 1,32,-1
 491.5 344 l 1,33,-1
 491.5 193 l 2,34,35
 491.5 152 491.5 152 503 122.5 c 128,-1,36
 514.5 93 514.5 93 535.5 78 c 128,-1,37
 556.5 63 556.5 63 586.5 63 c 0,38,39
 620.5 63 620.5 63 645 85 c 128,-1,40
 669.5 107 669.5 107 683 151 c 128,-1,41
 696.5 195 696.5 195 696.5 259 c 0,42,43
 696.5 322 696.5 322 685.5 467 c 128,-1,44
 674.5 612 674.5 612 654.5 652 c 5,45,-1
 245.5 652 l 5,46,47
 226.5 612 226.5 612 214.5 467 c 128,-1,48
 202.5 322 202.5 322 202.5 259 c 0,49,50
 202.5 162 202.5 162 232.5 112.5 c 128,-1,51
 262.5 63 262.5 63 311.5 63 c 0,27,28
EndSplineSet
EndChar

StartChar: X
Encoding: 88 88 64
Width: 899
Flags: W
LayerCount: 2
Fore
SplineSet
440.5 722 m 0,0,1
 460.5 722 460.5 722 476 708.5 c 128,-1,2
 491.5 695 491.5 695 491.5 666 c 0,3,4
 491.5 638 491.5 638 476 624 c 128,-1,5
 460.5 610 460.5 610 440.5 610 c 0,6,7
 418.5 610 418.5 610 403.5 624 c 128,-1,8
 388.5 638 388.5 638 388.5 666 c 0,9,10
 388.5 695 388.5 695 403.5 708.5 c 128,-1,11
 418.5 722 418.5 722 440.5 722 c 0,0,1
620.5 574 m 1,12,-1
 670.5 523 l 1,13,-1
 500.5 353 l 1,14,-1
 669.5 183 l 1,15,-1
 619.5 132 l 1,16,-1
 448.5 301 l 1,17,-1
 281.5 132 l 1,18,-1
 229.5 183 l 1,19,-1
 398.5 353 l 1,20,-1
 228.5 522 l 1,21,-1
 280.5 574 l 1,22,-1
 449.5 403 l 1,23,-1
 620.5 574 l 1,12,-1
EndSplineSet
EndChar

StartChar: Y
Encoding: 89 89 65
Width: 899
Flags: W
LayerCount: 2
Fore
SplineSet
453 744 m 4,0,1
 473 744 473 744 488.5 730.5 c 132,-1,2
 504 717 504 717 504 688 c 4,3,4
 504 660 504 660 488.5 646 c 132,-1,5
 473 632 473 632 453 632 c 4,6,7
 431 632 431 632 416 646 c 132,-1,8
 401 660 401 660 401 688 c 4,9,10
 401 717 401 717 416 730.5 c 132,-1,11
 431 744 431 744 453 744 c 4,0,1
195 536 m 1,12,-1
 289 536 l 1,13,-1
 405 231 l 2,14,15
 415 204 415 204 423.5 179 c 128,-1,16
 432 154 432 154 439 130.5 c 128,-1,17
 446 107 446 107 450 85 c 1,18,-1
 454 85 l 1,19,20
 460 110 460 110 473 150.5 c 128,-1,21
 486 191 486 191 500 232 c 2,22,-1
 609 536 l 1,23,-1
 704 536 l 1,24,-1
 473 -74 l 2,25,26
 454 -124 454 -124 428.5 -161.5 c 128,-1,27
 403 -199 403 -199 366.5 -219.5 c 128,-1,28
 330 -240 330 -240 278 -240 c 0,29,30
 254 -240 254 -240 236 -237.5 c 128,-1,31
 218 -235 218 -235 205 -232 c 1,32,-1
 205 -162 l 1,33,34
 216 -164 216 -164 231.5 -166 c 128,-1,35
 247 -168 247 -168 264 -168 c 0,36,37
 295 -168 295 -168 317.5 -156.5 c 128,-1,38
 340 -145 340 -145 356 -123.5 c 128,-1,39
 372 -102 372 -102 383 -73 c 2,40,-1
 411 -2 l 1,41,-1
 195 536 l 1,12,-1
EndSplineSet
EndChar

StartChar: Z
Encoding: 90 90 66
Width: 899
Flags: W
LayerCount: 2
Fore
SplineSet
238.5 0 m 1,0,-1
 238.5 56 l 1,1,-1
 541.5 499 l 1,2,-1
 249.5 499 l 1,3,-1
 249.5 572 l 1,4,-1
 652.5 572 l 1,5,-1
 652.5 515 l 1,6,-1
 349.5 73 l 1,7,-1
 660.5 73 l 1,8,-1
 660.5 0 l 1,9,-1
 238.5 0 l 1,0,-1
454.5 773 m 0,10,11
 474.5 773 474.5 773 490 759.5 c 128,-1,12
 505.5 746 505.5 746 505.5 717 c 0,13,14
 505.5 689 505.5 689 490 675 c 128,-1,15
 474.5 661 474.5 661 454.5 661 c 0,16,17
 432.5 661 432.5 661 417.5 675 c 128,-1,18
 402.5 689 402.5 689 402.5 717 c 0,19,20
 402.5 746 402.5 746 417.5 759.5 c 128,-1,21
 432.5 773 432.5 773 454.5 773 c 0,10,11
EndSplineSet
EndChar

StartChar: a
Encoding: 97 97 67
Width: 899
Flags: W
LayerCount: 2
Fore
SplineSet
396.5 -10 m 0,0,1
 296.5 -10 296.5 -10 236.5 59.5 c 128,-1,2
 176.5 129 176.5 129 176.5 267 c 256,3,4
 176.5 405 176.5 405 237 475.5 c 128,-1,5
 297.5 546 297.5 546 397.5 546 c 0,6,7
 459.5 546 459.5 546 499 523 c 128,-1,8
 538.5 500 538.5 500 563.5 467 c 1,9,-1
 567.5 467 l 1,10,-1
 581.5 536 l 1,11,-1
 651.5 536 l 1,12,-1
 651.5 118 l 2,13,14
 651.5 87 651.5 87 663.5 74.5 c 128,-1,15
 675.5 62 675.5 62 692.5 62 c 0,16,17
 700.5 62 700.5 62 709.5 64 c 128,-1,18
 718.5 66 718.5 66 722.5 67 c 1,19,-1
 722.5 3 l 1,20,21
 717.5 0 717.5 0 708.5 -3 c 128,-1,22
 699.5 -6 699.5 -6 688.5 -8 c 128,-1,23
 677.5 -10 677.5 -10 666.5 -10 c 0,24,25
 628.5 -10 628.5 -10 603.5 8 c 128,-1,26
 578.5 26 578.5 26 567.5 72 c 1,27,-1
 563.5 72 l 1,28,29
 539.5 38 539.5 38 499.5 14 c 128,-1,30
 459.5 -10 459.5 -10 396.5 -10 c 0,0,1
410.5 63 m 0,31,32
 467.5 63 467.5 63 501 83.5 c 128,-1,33
 534.5 104 534.5 104 549.5 146 c 128,-1,34
 564.5 188 564.5 188 564.5 250 c 2,35,-1
 564.5 266 l 2,36,37
 564.5 366 564.5 366 531.5 419.5 c 128,-1,38
 498.5 473 498.5 473 409.5 473 c 0,39,40
 338.5 473 338.5 473 303 416.5 c 128,-1,41
 267.5 360 267.5 360 267.5 265 c 0,42,43
 267.5 169 267.5 169 303 116 c 128,-1,44
 338.5 63 338.5 63 410.5 63 c 0,31,32
EndSplineSet
EndChar

StartChar: b
Encoding: 98 98 68
Width: 899
Flags: W
LayerCount: 2
Fore
SplineSet
186 248 m 1,0,1
 201 271 201 271 223 292.5 c 128,-1,2
 245 314 245 314 273 332 c 128,-1,3
 301 350 301 350 334 361 c 1,4,-1
 341 343 l 1,5,6
 298 358 298 358 267 384 c 128,-1,7
 236 410 236 410 220 452 c 128,-1,8
 204 494 204 494 204 555 c 1,9,-1
 240 551 l 1,10,-1
 138 551 l 1,11,-1
 138 622 l 1,12,-1
 714 622 l 1,13,-1
 714 551 l 1,14,-1
 250 551 l 1,15,-1
 286 554 l 1,16,17
 286 511 286 511 295.5 477.5 c 128,-1,18
 305 444 305 444 327 423 c 0,19,20
 345 407 345 407 369.5 399.5 c 128,-1,21
 394 392 394 392 441 392 c 2,22,-1
 601 392 l 1,23,-1
 599 322 l 1,24,-1
 458 322 l 2,25,26
 417 322 417 322 383 312 c 128,-1,27
 349 302 349 302 320 281 c 128,-1,28
 291 260 291 260 265 225 c 1,29,-1
 267 268 l 1,30,31
 287 226 287 226 313 198 c 128,-1,32
 339 170 339 170 373.5 156.5 c 128,-1,33
 408 143 408 143 452 143 c 0,34,35
 490 143 490 143 525 151 c 128,-1,36
 560 159 560 159 591 176 c 1,37,-1
 597 100 l 1,38,39
 565 85 565 85 529 77 c 128,-1,40
 493 69 493 69 452 69 c 0,41,42
 385 69 385 69 334 92.5 c 128,-1,43
 283 116 283 116 246.5 156.5 c 128,-1,44
 210 197 210 197 186 248 c 1,0,1
583 0 m 1,45,-1
 583 551 l 1,46,-1
 487 551 l 1,47,-1
 487 622 l 1,48,-1
 761 622 l 1,49,-1
 761 551 l 1,50,-1
 664 551 l 1,51,-1
 664 0 l 1,52,-1
 583 0 l 1,45,-1
EndSplineSet
EndChar

StartChar: c
Encoding: 99 99 69
Width: 899
Flags: W
AnchorPoint: "Anchor-1" 449.5 536 basechar 0
AnchorPoint: "Anchor-0" 449.5 0 basechar 0
LayerCount: 2
Fore
SplineSet
505.5 -10 m 0,0,1
 387.5 -10 387.5 -10 322.5 57 c 128,-1,2
 257.5 124 257.5 124 257.5 245 c 0,3,4
 257.5 325 257.5 325 286.5 380.5 c 128,-1,5
 315.5 436 315.5 436 369.5 465 c 1,6,-1
 236.5 465 l 1,7,-1
 236.5 537 l 1,8,-1
 662.5 537 l 1,9,-1
 662.5 465 l 1,10,-1
 549.5 465 l 2,11,12
 455.5 465 455.5 465 402 411.5 c 128,-1,13
 348.5 358 348.5 358 348.5 252 c 0,14,15
 348.5 165 348.5 165 391.5 114.5 c 128,-1,16
 434.5 64 434.5 64 514.5 64 c 0,17,18
 551.5 64 551.5 64 585.5 73.5 c 128,-1,19
 619.5 83 619.5 83 651.5 99 c 1,20,-1
 651.5 21 l 1,21,22
 622.5 5 622.5 5 587.5 -2.5 c 128,-1,23
 552.5 -10 552.5 -10 505.5 -10 c 0,0,1
EndSplineSet
EndChar

StartChar: d
Encoding: 100 100 70
Width: 899
Flags: W
AnchorPoint: "Anchor-2" 508 0 basechar 0
AnchorPoint: "Anchor-1" 423 0 basechar 0
AnchorPoint: "Anchor-0" 644 622 basechar 0
LayerCount: 2
Fore
SplineSet
391 0 m 0,0,1
 317 0 317 0 269.5 15.5 c 128,-1,2
 222 31 222 31 199.5 59.5 c 128,-1,3
 177 88 177 88 177 127 c 0,4,5
 177 157 177 157 193 182 c 128,-1,6
 209 207 209 207 240.5 222 c 128,-1,7
 272 237 272 237 320 237 c 0,8,9
 378 237 378 237 424.5 217 c 128,-1,10
 471 197 471 197 507 165.5 c 128,-1,11
 543 134 543 134 566 101 c 1,12,-1
 504 67 l 1,13,14
 472 104 472 104 426 135 c 128,-1,15
 380 166 380 166 324 166 c 0,16,17
 291 166 291 166 274.5 155 c 128,-1,18
 258 144 258 144 258 125 c 0,19,20
 258 97 258 97 291.5 83 c 128,-1,21
 325 69 325 69 390 69 c 0,22,23
 426 69 426 69 463.5 74 c 128,-1,24
 501 79 501 79 532.5 93 c 128,-1,25
 564 107 564 107 583.5 133 c 128,-1,26
 603 159 603 159 603 202 c 0,27,28
 603 243 603 243 572 276 c 128,-1,29
 541 309 541 309 491 324 c 1,30,31
 468 320 468 320 438.5 316 c 128,-1,32
 409 312 409 312 378 312 c 0,33,34
 333 312 333 312 309 320.5 c 128,-1,35
 285 329 285 329 276 342 c 128,-1,36
 267 355 267 355 267 369 c 0,37,38
 267 398 267 398 292.5 408.5 c 128,-1,39
 318 419 318 419 354 419 c 0,40,41
 394 419 394 419 429.5 412.5 c 128,-1,42
 465 406 465 406 499 393 c 1,43,44
 534 407 534 407 556.5 436 c 128,-1,45
 579 465 579 465 579 512 c 0,46,47
 579 526 579 526 576.5 542.5 c 128,-1,48
 574 559 574 559 567 578 c 1,49,-1
 600 551 l 1,50,-1
 191 551 l 1,51,-1
 191 622 l 1,52,-1
 722 622 l 5,53,-1
 722 551 l 5,54,-1
 629 551 l 1,55,-1
 652 576 l 1,56,57
 656 560 656 560 658 543 c 128,-1,58
 660 526 660 526 660 511 c 0,59,60
 660 449 660 449 635.5 416.5 c 128,-1,61
 611 384 611 384 574 362 c 1,62,63
 630 333 630 333 657.5 293 c 128,-1,64
 685 253 685 253 685 199 c 0,65,66
 685 149 685 149 663.5 111.5 c 128,-1,67
 642 74 642 74 603 49.5 c 128,-1,68
 564 25 564 25 510 12.5 c 128,-1,69
 456 0 456 0 391 0 c 0,0,1
EndSplineSet
EndChar

StartChar: e
Encoding: 101 101 71
Width: 899
Flags: W
LayerCount: 2
Fore
SplineSet
457.5 546 m 0,0,1
 526.5 546 526.5 546 576 516 c 128,-1,2
 625.5 486 625.5 486 652 431.5 c 128,-1,3
 678.5 377 678.5 377 678.5 304 c 2,4,-1
 678.5 251 l 1,5,-1
 311.5 251 l 1,6,7
 313.5 160 313.5 160 358 112.5 c 128,-1,8
 402.5 65 402.5 65 482.5 65 c 0,9,10
 533.5 65 533.5 65 573 74.5 c 128,-1,11
 612.5 84 612.5 84 654.5 102 c 1,12,-1
 654.5 25 l 1,13,14
 613.5 7 613.5 7 573.5 -1.5 c 128,-1,15
 533.5 -10 533.5 -10 478.5 -10 c 0,16,17
 402.5 -10 402.5 -10 344 21 c 128,-1,18
 285.5 52 285.5 52 253 113.5 c 128,-1,19
 220.5 175 220.5 175 220.5 264 c 0,20,21
 220.5 352 220.5 352 250 415 c 128,-1,22
 279.5 478 279.5 478 333 512 c 128,-1,23
 386.5 546 386.5 546 457.5 546 c 0,0,1
456.5 474 m 0,24,25
 393.5 474 393.5 474 357 433.5 c 128,-1,26
 320.5 393 320.5 393 313.5 321 c 1,27,-1
 586.5 321 l 1,28,29
 586.5 367 586.5 367 572.5 401 c 128,-1,30
 558.5 435 558.5 435 530 454.5 c 128,-1,31
 501.5 474 501.5 474 456.5 474 c 0,24,25
EndSplineSet
EndChar

StartChar: f
Encoding: 102 102 72
Width: 899
Flags: W
AnchorPoint: "Anchor-0" 641.5 622 basechar 0
LayerCount: 2
Fore
SplineSet
488.5 0 m 0,0,1
 423.5 0 423.5 0 368.5 20 c 128,-1,2
 313.5 40 313.5 40 273.5 76.5 c 128,-1,3
 233.5 113 233.5 113 211.5 161 c 128,-1,4
 189.5 209 189.5 209 189.5 264 c 0,5,6
 189.5 299 189.5 299 201.5 327.5 c 128,-1,7
 213.5 356 213.5 356 234.5 374 c 0,8,9
 253.5 390 253.5 390 276 400 c 128,-1,10
 298.5 410 298.5 410 333 415 c 128,-1,11
 367.5 420 367.5 420 420.5 420 c 2,12,-1
 560.5 420 l 1,13,-1
 560.5 551 l 1,14,-1
 212.5 551 l 1,15,-1
 212.5 622 l 1,16,-1
 709.5 622 l 5,17,-1
 709.5 551 l 5,18,-1
 641.5 551 l 1,19,-1
 641.5 378 l 1,20,-1
 612.5 349 l 1,21,-1
 431.5 349 l 2,22,23
 391.5 349 391.5 349 365.5 346 c 128,-1,24
 339.5 343 339.5 343 323 337 c 128,-1,25
 306.5 331 306.5 331 293.5 320 c 0,26,27
 280.5 310 280.5 310 275.5 294 c 128,-1,28
 270.5 278 270.5 278 270.5 259 c 0,29,30
 270.5 219 270.5 219 287 184 c 128,-1,31
 303.5 149 303.5 149 333.5 123.5 c 128,-1,32
 363.5 98 363.5 98 404.5 83.5 c 128,-1,33
 445.5 69 445.5 69 493.5 69 c 0,34,35
 552.5 69 552.5 69 581 82.5 c 128,-1,36
 609.5 96 609.5 96 609.5 124 c 0,37,38
 609.5 143 609.5 143 592.5 154.5 c 128,-1,39
 575.5 166 575.5 166 540.5 166 c 0,40,41
 502.5 166 502.5 166 468.5 151.5 c 128,-1,42
 434.5 137 434.5 137 406.5 114.5 c 128,-1,43
 378.5 92 378.5 92 356.5 67 c 1,44,-1
 296.5 100 l 1,45,46
 321.5 133 321.5 133 357 164.5 c 128,-1,47
 392.5 196 392.5 196 440 216.5 c 128,-1,48
 487.5 237 487.5 237 548.5 237 c 0,49,50
 597.5 237 597.5 237 628.5 222 c 128,-1,51
 659.5 207 659.5 207 674.5 182 c 128,-1,52
 689.5 157 689.5 157 689.5 127 c 0,53,54
 689.5 98 689.5 98 678.5 74.5 c 128,-1,55
 667.5 51 667.5 51 643.5 34.5 c 128,-1,56
 619.5 18 619.5 18 581.5 9 c 128,-1,57
 543.5 0 543.5 0 488.5 0 c 0,0,1
EndSplineSet
EndChar

StartChar: g
Encoding: 103 103 73
Width: 899
Flags: W
LayerCount: 2
Fore
SplineSet
432 546 m 0,0,1
 485 546 485 546 527.5 526 c 128,-1,2
 570 506 570 506 600 465 c 1,3,-1
 605 465 l 1,4,-1
 617 536 l 1,5,-1
 687 536 l 1,6,-1
 687 -9 l 2,7,8
 687 -85 687 -85 661 -136.5 c 128,-1,9
 635 -188 635 -188 582 -214 c 128,-1,10
 529 -240 529 -240 447 -240 c 0,11,12
 389 -240 389 -240 340.5 -231.5 c 128,-1,13
 292 -223 292 -223 254 -206 c 1,14,-1
 254 -125 l 1,15,16
 292 -145 292 -145 343 -156 c 128,-1,17
 394 -167 394 -167 452 -167 c 0,18,19
 521 -167 521 -167 560.5 -126.5 c 128,-1,20
 600 -86 600 -86 600 -16 c 2,21,-1
 600 5 l 2,22,23
 600 17 600 17 601 39.5 c 128,-1,24
 602 62 602 62 603 71 c 1,25,-1
 599 71 l 1,26,27
 571 30 571 30 529.5 10 c 128,-1,28
 488 -10 488 -10 433 -10 c 0,29,30
 329 -10 329 -10 270.5 63 c 128,-1,31
 212 136 212 136 212 267 c 0,32,33
 212 395 212 395 270.5 470.5 c 128,-1,34
 329 546 329 546 432 546 c 0,0,1
444 472 m 0,35,36
 399 472 399 472 367.5 448 c 128,-1,37
 336 424 336 424 319.5 378 c 128,-1,38
 303 332 303 332 303 266 c 0,39,40
 303 167 303 167 339.5 114.5 c 128,-1,41
 376 62 376 62 446 62 c 0,42,43
 487 62 487 62 516 72.5 c 128,-1,44
 545 83 545 83 564 105.5 c 128,-1,45
 583 128 583 128 592 163 c 128,-1,46
 601 198 601 198 601 246 c 2,47,-1
 601 267 l 2,48,49
 601 340 601 340 584.5 385 c 128,-1,50
 568 430 568 430 533 451 c 128,-1,51
 498 472 498 472 444 472 c 0,35,36
EndSplineSet
EndChar

StartChar: h
Encoding: 104 104 74
Width: 899
Flags: W
LayerCount: 2
Fore
SplineSet
311.5 537 m 2,0,1
 311.5 518 311.5 518 310 498 c 128,-1,2
 308.5 478 308.5 478 306.5 462 c 1,3,-1
 312.5 462 l 1,4,5
 329.5 490 329.5 490 355.5 508 c 128,-1,6
 381.5 526 381.5 526 413.5 535.5 c 128,-1,7
 445.5 545 445.5 545 479.5 545 c 0,8,9
 544.5 545 544.5 545 588 524.5 c 128,-1,10
 631.5 504 631.5 504 653.5 461 c 128,-1,11
 675.5 418 675.5 418 675.5 349 c 2,12,-1
 675.5 0 l 1,13,-1
 588.5 0 l 1,14,-1
 588.5 343 l 2,15,16
 588.5 408 588.5 408 559.5 440 c 128,-1,17
 530.5 472 530.5 472 468.5 472 c 0,18,19
 408.5 472 408.5 472 374.5 449.5 c 128,-1,20
 340.5 427 340.5 427 326 383.5 c 128,-1,21
 311.5 340 311.5 340 311.5 277 c 2,22,-1
 311.5 0 l 1,23,-1
 223.5 0 l 1,24,-1
 223.5 760 l 1,25,-1
 311.5 760 l 1,26,-1
 311.5 537 l 2,0,1
EndSplineSet
EndChar

StartChar: i
Encoding: 105 105 75
Width: 899
Flags: W
LayerCount: 2
Fore
SplineSet
493 536 m 1,0,-1
 493 0 l 1,1,-1
 405 0 l 1,2,-1
 405 536 l 1,3,-1
 493 536 l 1,0,-1
450 737 m 0,4,5
 470 737 470 737 485.5 723.5 c 128,-1,6
 501 710 501 710 501 681 c 0,7,8
 501 653 501 653 485.5 639 c 128,-1,9
 470 625 470 625 450 625 c 0,10,11
 428 625 428 625 413 639 c 128,-1,12
 398 653 398 653 398 681 c 0,13,14
 398 710 398 710 413 723.5 c 128,-1,15
 428 737 428 737 450 737 c 0,4,5
EndSplineSet
Substitution2: "Single Substitution lookup 25 subtable" dotlessi
Substitution2: "Single Substitution lookup 24 subtable" dotlessi
EndChar

StartChar: j
Encoding: 106 106 76
Width: 899
Flags: W
AnchorPoint: "Anchor-1" 449.5 536 basechar 0
AnchorPoint: "Anchor-0" 449.5 0 basechar 0
LayerCount: 2
Fore
SplineSet
638.5 536 m 1,0,-1
 638.5 470 l 1,1,-1
 527.5 313 l 1,2,-1
 628.5 313 l 1,3,-1
 628.5 243 l 1,4,-1
 477.5 243 l 1,5,-1
 354.5 68 l 1,6,-1
 645.5 68 l 1,7,-1
 645.5 0 l 1,8,-1
 253.5 0 l 1,9,-1
 253.5 58 l 1,10,-1
 383.5 243 l 1,11,-1
 271.5 243 l 1,12,-1
 271.5 313 l 1,13,-1
 432.5 313 l 1,14,-1
 541.5 468 l 1,15,-1
 270.5 468 l 1,16,-1
 270.5 536 l 1,17,-1
 638.5 536 l 1,0,-1
EndSplineSet
Substitution2: "Single Substitution lookup 25 subtable" uni0237
Substitution2: "Single Substitution lookup 24 subtable" uni0237
EndChar

StartChar: k
Encoding: 107 107 77
Width: 899
Flags: W
LayerCount: 2
Fore
SplineSet
316.5 363 m 2,0,1
 316.5 347 316.5 347 315 321 c 128,-1,2
 313.5 295 313.5 295 312.5 276 c 1,3,-1
 316.5 276 l 1,4,5
 322.5 284 322.5 284 334.5 299 c 128,-1,6
 346.5 314 346.5 314 359 329.5 c 128,-1,7
 371.5 345 371.5 345 380.5 355 c 2,8,-1
 551.5 536 l 1,9,-1
 654.5 536 l 1,10,-1
 437.5 307 l 1,11,-1
 669.5 0 l 1,12,-1
 563.5 0 l 1,13,-1
 377.5 250 l 1,14,-1
 316.5 197 l 1,15,-1
 316.5 0 l 1,16,-1
 229.5 0 l 1,17,-1
 229.5 760 l 1,18,-1
 316.5 760 l 1,19,-1
 316.5 363 l 2,0,1
EndSplineSet
EndChar

StartChar: l
Encoding: 108 108 78
Width: 899
Flags: W
AnchorPoint: "Anchor-2" 594.5 0 basechar 0
AnchorPoint: "Anchor-1" 452.5 0 basechar 0
AnchorPoint: "Anchor-0" 672.5 622 basechar 0
LayerCount: 2
Fore
SplineSet
452.5 250 m 1,0,1
 397.5 281 397.5 281 351.5 328.5 c 128,-1,2
 305.5 376 305.5 376 274.5 433.5 c 128,-1,3
 243.5 491 243.5 491 232.5 551 c 1,4,-1
 142.5 551 l 1,5,-1
 142.5 622 l 1,6,-1
 756.5 622 l 5,7,-1
 756.5 551 l 5,8,-1
 672.5 551 l 1,9,10
 664.5 504 664.5 504 645 460.5 c 128,-1,11
 625.5 417 625.5 417 597 378 c 128,-1,12
 568.5 339 568.5 339 532 306.5 c 128,-1,13
 495.5 274 495.5 274 452.5 250 c 1,0,1
590.5 551 m 1,14,-1
 314.5 551 l 1,15,16
 322.5 498 322.5 498 345 455 c 128,-1,17
 367.5 412 367.5 412 400.5 379 c 128,-1,18
 433.5 346 433.5 346 471.5 322 c 1,19,-1
 433.5 323 l 1,20,21
 472.5 345 472.5 345 505 378 c 128,-1,22
 537.5 411 537.5 411 560 454.5 c 128,-1,23
 582.5 498 582.5 498 590.5 551 c 1,14,-1
154.5 193 m 0,24,25
 154.5 261 154.5 261 198.5 317.5 c 128,-1,26
 242.5 374 242.5 374 321.5 408 c 1,27,-1
 361.5 353 l 1,28,29
 309.5 329 309.5 329 272 289.5 c 128,-1,30
 234.5 250 234.5 250 234.5 195 c 0,31,32
 234.5 141 234.5 141 266.5 107 c 128,-1,33
 298.5 73 298.5 73 369.5 73 c 2,34,-1
 374.5 73 l 1,35,-1
 369.5 0 l 1,36,-1
 363.5 0 l 2,37,38
 301.5 0 301.5 0 261 19 c 128,-1,39
 220.5 38 220.5 38 197 67.5 c 128,-1,40
 173.5 97 173.5 97 164 130.5 c 128,-1,41
 154.5 164 154.5 164 154.5 193 c 0,24,25
750.5 194 m 0,42,43
 750.5 165 750.5 165 740.5 131.5 c 128,-1,44
 730.5 98 730.5 98 707.5 68 c 128,-1,45
 684.5 38 684.5 38 644 19 c 128,-1,46
 603.5 0 603.5 0 541.5 0 c 2,47,-1
 535.5 0 l 1,48,-1
 530.5 73 l 1,49,-1
 541.5 73 l 2,50,51
 608.5 73 608.5 73 639.5 106.5 c 128,-1,52
 670.5 140 670.5 140 670.5 191 c 0,53,54
 670.5 241 670.5 241 638 283 c 128,-1,55
 605.5 325 605.5 325 536.5 353 c 1,56,-1
 579.5 412 l 1,57,58
 671.5 370 671.5 370 711 312.5 c 128,-1,59
 750.5 255 750.5 255 750.5 194 c 0,42,43
EndSplineSet
EndChar

StartChar: m
Encoding: 109 109 79
Width: 899
Flags: W
LayerCount: 2
Fore
SplineSet
577.5 0 m 1,0,-1
 577.5 261 l 1,1,-1
 343.5 261 l 1,2,3
 341.5 206 341.5 206 331 165.5 c 128,-1,4
 320.5 125 320.5 125 302 103 c 128,-1,5
 283.5 81 283.5 81 256.5 81 c 0,6,7
 236.5 81 236.5 81 223 93 c 128,-1,8
 209.5 105 209.5 105 209.5 139 c 0,9,10
 209.5 154 209.5 154 214.5 178.5 c 128,-1,11
 219.5 203 219.5 203 233 232 c 128,-1,12
 246.5 261 246.5 261 270.5 288 c 1,13,14
 268.5 331 268.5 331 262 376.5 c 128,-1,15
 255.5 422 255.5 422 244.5 466.5 c 128,-1,16
 233.5 511 233.5 511 218.5 551 c 1,17,-1
 144.5 551 l 1,18,-1
 144.5 622 l 1,19,-1
 281.5 622 l 1,20,21
 300.5 576 300.5 576 314.5 526 c 128,-1,22
 328.5 476 328.5 476 336.5 427 c 128,-1,23
 344.5 378 344.5 378 344.5 332 c 1,24,-1
 577.5 332 l 1,25,-1
 577.5 622 l 1,26,-1
 754.5 622 l 1,27,-1
 754.5 551 l 1,28,-1
 658.5 551 l 1,29,-1
 658.5 0 l 1,30,-1
 577.5 0 l 1,0,-1
EndSplineSet
EndChar

StartChar: n
Encoding: 110 110 80
Width: 899
Flags: W
AnchorPoint: "Anchor-2" 579.5 0 basechar 0
AnchorPoint: "Anchor-1" 449.5 0 basechar 0
AnchorPoint: "Anchor-0" 489.5 622 basechar 0
LayerCount: 2
Fore
SplineSet
365.5 0 m 1,0,1
 306.5 0 306.5 0 267.5 19 c 128,-1,2
 228.5 38 228.5 38 206 68 c 128,-1,3
 183.5 98 183.5 98 174 131.5 c 128,-1,4
 164.5 165 164.5 165 164.5 194 c 0,5,6
 164.5 245 164.5 245 190.5 292.5 c 128,-1,7
 216.5 340 216.5 340 271 378 c 128,-1,8
 325.5 416 325.5 416 409.5 438 c 1,9,-1
 409.5 551 l 1,10,-1
 179.5 551 l 1,11,-1
 179.5 622 l 1,12,-1
 714.5 622 l 5,13,-1
 714.5 551 l 5,14,-1
 489.5 551 l 1,15,-1
 489.5 438 l 1,16,17
 574.5 416 574.5 416 628.5 378 c 128,-1,18
 682.5 340 682.5 340 708.5 292.5 c 128,-1,19
 734.5 245 734.5 245 734.5 194 c 0,20,21
 734.5 165 734.5 165 725.5 131.5 c 128,-1,22
 716.5 98 716.5 98 694 68 c 128,-1,23
 671.5 38 671.5 38 632.5 19 c 128,-1,24
 593.5 0 593.5 0 534.5 0 c 1,25,-1
 529.5 73 l 1,26,27
 596.5 73 596.5 73 625.5 107 c 128,-1,28
 654.5 141 654.5 141 654.5 195 c 0,29,30
 654.5 257 654.5 257 602.5 305 c 128,-1,31
 550.5 353 550.5 353 449.5 378 c 1,32,33
 348.5 353 348.5 353 296.5 305 c 128,-1,34
 244.5 257 244.5 257 244.5 195 c 0,35,36
 244.5 141 244.5 141 274 107 c 128,-1,37
 303.5 73 303.5 73 370.5 73 c 1,38,-1
 365.5 0 l 1,0,1
EndSplineSet
EndChar

StartChar: o
Encoding: 111 111 81
Width: 899
Flags: W
LayerCount: 2
Fore
SplineSet
697.5 269 m 0,0,1
 697.5 202 697.5 202 680 150.5 c 128,-1,2
 662.5 99 662.5 99 630 63 c 128,-1,3
 597.5 27 597.5 27 551 8.5 c 128,-1,4
 504.5 -10 504.5 -10 447.5 -10 c 0,5,6
 394.5 -10 394.5 -10 349.5 8.5 c 128,-1,7
 304.5 27 304.5 27 271.5 63 c 128,-1,8
 238.5 99 238.5 99 220 150.5 c 128,-1,9
 201.5 202 201.5 202 201.5 269 c 0,10,11
 201.5 358 201.5 358 231.5 419.5 c 128,-1,12
 261.5 481 261.5 481 317.5 513.5 c 128,-1,13
 373.5 546 373.5 546 450.5 546 c 0,14,15
 523.5 546 523.5 546 579 513.5 c 128,-1,16
 634.5 481 634.5 481 666 419.5 c 128,-1,17
 697.5 358 697.5 358 697.5 269 c 0,0,1
292.5 269 m 0,18,19
 292.5 206 292.5 206 309 159.5 c 128,-1,20
 325.5 113 325.5 113 360.5 88 c 128,-1,21
 395.5 63 395.5 63 449.5 63 c 256,22,23
 503.5 63 503.5 63 538.5 88 c 128,-1,24
 573.5 113 573.5 113 590 159.5 c 128,-1,25
 606.5 206 606.5 206 606.5 269 c 0,26,27
 606.5 333 606.5 333 589.5 378 c 128,-1,28
 572.5 423 572.5 423 538 447.5 c 128,-1,29
 503.5 472 503.5 472 448.5 472 c 0,30,31
 366.5 472 366.5 472 329.5 418 c 128,-1,32
 292.5 364 292.5 364 292.5 269 c 0,18,19
EndSplineSet
EndChar

StartChar: p
Encoding: 112 112 82
Width: 899
Flags: W
LayerCount: 2
Fore
SplineSet
576 0 m 1,0,-1
 576 180 l 1,1,-1
 582 165 l 1,2,3
 548 149 548 149 514 140.5 c 128,-1,4
 480 132 480 132 437 132 c 0,5,6
 349 132 349 132 289 186.5 c 128,-1,7
 229 241 229 241 191 333 c 1,8,9
 221 359 221 359 241 389 c 128,-1,10
 261 419 261 419 261 459 c 0,11,12
 261 481 261 481 254.5 506.5 c 128,-1,13
 248 532 248 532 237 551 c 1,14,-1
 146 551 l 1,15,-1
 146 622 l 1,16,-1
 295 622 l 1,17,18
 317 582 317 582 329 539.5 c 128,-1,19
 341 497 341 497 341 460 c 0,20,21
 341 407 341 407 320.5 371.5 c 128,-1,22
 300 336 300 336 267 313 c 1,23,-1
 271 357 l 1,24,25
 303 282 303 282 341 244 c 128,-1,26
 379 206 379 206 437 206 c 0,27,28
 478 206 478 206 512 217.5 c 128,-1,29
 546 229 546 229 582 251 c 1,30,-1
 576 240 l 1,31,-1
 576 622 l 1,32,-1
 753 622 l 1,33,-1
 753 551 l 1,34,-1
 657 551 l 1,35,-1
 657 0 l 1,36,-1
 576 0 l 1,0,-1
EndSplineSet
EndChar

StartChar: q
Encoding: 113 113 83
Width: 899
Flags: W
AnchorPoint: "Anchor-1" 411.5 765 basechar 0
AnchorPoint: "Anchor-0" 411.5 0 basechar 0
LayerCount: 2
Fore
SplineSet
350.5 765 m 0,0,1
 369.5 765 369.5 765 387.5 761 c 128,-1,2
 405.5 757 405.5 757 415.5 752 c 1,3,-1
 415.5 679 l 1,4,5
 408.5 682 408.5 682 394.5 685.5 c 128,-1,6
 380.5 689 380.5 689 363.5 689 c 0,7,8
 341.5 689 341.5 689 329 676 c 128,-1,9
 316.5 663 316.5 663 316.5 631 c 2,10,-1
 316.5 363 l 2,11,12
 316.5 347 316.5 347 315.5 321 c 128,-1,13
 314.5 295 314.5 295 312.5 276 c 1,14,-1
 316.5 276 l 1,15,16
 322.5 285 322.5 285 334.5 299.5 c 128,-1,17
 346.5 314 346.5 314 359 329.5 c 128,-1,18
 371.5 345 371.5 345 380.5 355 c 2,19,-1
 551.5 536 l 1,20,-1
 654.5 536 l 1,21,-1
 437.5 307 l 1,22,-1
 669.5 0 l 1,23,-1
 563.5 0 l 1,24,-1
 377.5 250 l 1,25,-1
 316.5 197 l 1,26,-1
 316.5 0 l 1,27,-1
 229.5 0 l 1,28,-1
 229.5 625 l 2,29,30
 229.5 765 229.5 765 350.5 765 c 0,0,1
EndSplineSet
EndChar

StartChar: r
Encoding: 114 114 84
Width: 899
Flags: W
AnchorPoint: "Anchor-2" 514 0 basechar 0
LayerCount: 2
Fore
SplineSet
464 0 m 0,0,1
 410 0 410 0 361 21.5 c 128,-1,2
 312 43 312 43 273.5 79.5 c 128,-1,3
 235 116 235 116 213 162.5 c 128,-1,4
 191 209 191 209 191 258 c 0,5,6
 191 294 191 294 203.5 319.5 c 128,-1,7
 216 345 216 345 236 363 c 0,8,9
 263 386 263 386 304.5 397 c 128,-1,10
 346 408 346 408 426 408 c 2,11,-1
 563 408 l 1,12,-1
 563 551 l 1,13,-1
 210 551 l 1,14,-1
 210 622 l 1,15,-1
 708 622 l 5,16,-1
 708 551 l 5,17,-1
 644 551 l 1,18,-1
 644 172 l 2,19,20
 644 114 644 114 624.5 76 c 128,-1,21
 605 38 605 38 565.5 19 c 128,-1,22
 526 0 526 0 464 0 c 0,0,1
471 73 m 0,23,24
 494 73 494 73 513 78 c 128,-1,25
 532 83 532 83 544 96 c 0,26,27
 553 107 553 107 558 124.5 c 128,-1,28
 563 142 563 142 563 183 c 2,29,-1
 563 337 l 1,30,-1
 436 337 l 2,31,32
 374 337 374 337 343 331.5 c 128,-1,33
 312 326 312 326 295 311 c 0,34,35
 282 300 282 300 277 285 c 128,-1,36
 272 270 272 270 272 252 c 0,37,38
 272 220 272 220 289 188 c 128,-1,39
 306 156 306 156 334.5 130 c 128,-1,40
 363 104 363 104 398.5 88.5 c 128,-1,41
 434 73 434 73 471 73 c 0,23,24
EndSplineSet
EndChar

StartChar: s
Encoding: 115 115 85
Width: 899
Flags: W
LayerCount: 2
Fore
SplineSet
578.5 0 m 1,0,-1
 578.5 261 l 1,1,-1
 344.5 261 l 1,2,3
 342.5 206 342.5 206 332 165.5 c 128,-1,4
 321.5 125 321.5 125 303 103 c 128,-1,5
 284.5 81 284.5 81 257.5 81 c 0,6,7
 237.5 81 237.5 81 224 93 c 128,-1,8
 210.5 105 210.5 105 210.5 139 c 0,9,10
 210.5 154 210.5 154 215.5 178.5 c 128,-1,11
 220.5 203 220.5 203 234 232 c 128,-1,12
 247.5 261 247.5 261 271.5 288 c 1,13,14
 269.5 331 269.5 331 263 376.5 c 128,-1,15
 256.5 422 256.5 422 245.5 466.5 c 128,-1,16
 234.5 511 234.5 511 219.5 551 c 1,17,-1
 165.5 551 l 5,18,-1
 165.5 622 l 5,19,-1
 733.5 622 l 1,20,-1
 733.5 551 l 1,21,-1
 659.5 551 l 1,22,-1
 659.5 0 l 1,23,-1
 578.5 0 l 1,0,-1
345.5 332 m 1,24,-1
 578.5 332 l 1,25,-1
 578.5 551 l 1,26,-1
 305.5 551 l 1,27,28
 318.5 511 318.5 511 327 472.5 c 128,-1,29
 335.5 434 335.5 434 340.5 399 c 128,-1,30
 345.5 364 345.5 364 345.5 332 c 1,24,-1
EndSplineSet
EndChar

StartChar: t
Encoding: 116 116 86
Width: 899
Flags: W
AnchorPoint: "Anchor-1" 448.5 0 basechar 0
LayerCount: 2
Fore
SplineSet
478.5 0 m 0,0,1
 421.5 0 421.5 0 378 17.5 c 128,-1,2
 334.5 35 334.5 35 300.5 66 c 128,-1,3
 266.5 97 266.5 97 240 140 c 128,-1,4
 213.5 183 213.5 183 190.5 234 c 1,5,6
 222.5 275 222.5 275 251.5 306.5 c 128,-1,7
 280.5 338 280.5 338 311.5 361 c 0,8,9
 339.5 381 339.5 381 367.5 394 c 128,-1,10
 395.5 407 395.5 407 433.5 413.5 c 128,-1,11
 471.5 420 471.5 420 526.5 420 c 2,12,-1
 561.5 420 l 1,13,-1
 561.5 551 l 1,14,-1
 203.5 551 l 1,15,-1
 203.5 622 l 1,16,-1
 708.5 622 l 5,17,-1
 708.5 551 l 5,18,-1
 641.5 551 l 1,19,-1
 641.5 378 l 1,20,-1
 612.5 349 l 1,21,-1
 575.5 349 l 2,22,23
 517.5 349 517.5 349 482.5 347 c 128,-1,24
 447.5 345 447.5 345 424.5 337.5 c 128,-1,25
 401.5 330 401.5 330 377.5 315 c 0,26,27
 345.5 296 345.5 296 320 269.5 c 128,-1,28
 294.5 243 294.5 243 263.5 204 c 1,29,-1
 270.5 253 l 1,30,31
 296.5 200 296.5 200 324.5 159.5 c 128,-1,32
 352.5 119 352.5 119 389.5 96 c 128,-1,33
 426.5 73 426.5 73 478.5 73 c 0,34,35
 515.5 73 515.5 73 543.5 78 c 128,-1,36
 571.5 83 571.5 83 600.5 93.5 c 128,-1,37
 629.5 104 629.5 104 666.5 122 c 1,38,-1
 694.5 51 l 1,39,40
 640.5 25 640.5 25 589.5 12.5 c 128,-1,41
 538.5 0 538.5 0 478.5 0 c 0,0,1
EndSplineSet
EndChar

StartChar: u
Encoding: 117 117 87
Width: 899
Flags: W
LayerCount: 2
Fore
SplineSet
676.5 536 m 1,0,-1
 676.5 0 l 1,1,-1
 604.5 0 l 1,2,-1
 591.5 71 l 1,3,-1
 587.5 71 l 1,4,5
 570.5 43 570.5 43 543.5 25 c 128,-1,6
 516.5 7 516.5 7 484.5 -1.5 c 128,-1,7
 452.5 -10 452.5 -10 417.5 -10 c 0,8,9
 353.5 -10 353.5 -10 310 10.5 c 128,-1,10
 266.5 31 266.5 31 244.5 74 c 128,-1,11
 222.5 117 222.5 117 222.5 185 c 2,12,-1
 222.5 536 l 1,13,-1
 311.5 536 l 1,14,-1
 311.5 191 l 2,15,16
 311.5 127 311.5 127 340.5 95 c 128,-1,17
 369.5 63 369.5 63 430.5 63 c 0,18,19
 490.5 63 490.5 63 525 85.5 c 128,-1,20
 559.5 108 559.5 108 574 151.5 c 128,-1,21
 588.5 195 588.5 195 588.5 257 c 2,22,-1
 588.5 536 l 1,23,-1
 676.5 536 l 1,0,-1
EndSplineSet
EndChar

StartChar: v
Encoding: 118 118 88
Width: 899
Flags: W
LayerCount: 2
Fore
SplineSet
398.5 0 m 1,0,-1
 195.5 536 l 1,1,-1
 289.5 536 l 1,2,-1
 403.5 220 l 2,3,4
 411.5 198 411.5 198 420.5 171 c 128,-1,5
 429.5 144 429.5 144 436.5 119.5 c 128,-1,6
 443.5 95 443.5 95 446.5 78 c 1,7,-1
 450.5 78 l 1,8,9
 454.5 95 454.5 95 462 120 c 128,-1,10
 469.5 145 469.5 145 479 172 c 128,-1,11
 488.5 199 488.5 199 495.5 220 c 2,12,-1
 609.5 536 l 1,13,-1
 703.5 536 l 1,14,-1
 499.5 0 l 1,15,-1
 398.5 0 l 1,0,-1
EndSplineSet
EndChar

StartChar: w
Encoding: 119 119 89
Width: 899
Flags: W
AnchorPoint: "Anchor-1" 440 536 basechar 0
AnchorPoint: "Anchor-0" 439 0 basechar 0
LayerCount: 2
Fore
SplineSet
379 766 m 5,0,1
 390 744 390 744 406.5 716.5 c 132,-1,2
 423 689 423 689 441.5 663 c 132,-1,3
 460 637 460 637 475 618 c 5,4,-1
 475 606 l 5,5,-1
 416 606 l 5,6,7
 399 620 399 620 378 639.5 c 132,-1,8
 357 659 357 659 336.5 680.5 c 132,-1,9
 316 702 316 702 299.5 722 c 132,-1,10
 283 742 283 742 274 756 c 5,11,-1
 274 766 l 5,12,-1
 379 766 l 5,0,1
677 541 m 0,13,14
 689 541 689 541 699 539 c 128,-1,15
 709 537 709 537 718 535 c 1,16,-1
 718 467 l 1,17,18
 705 472 705 472 684 472 c 0,19,20
 662 472 662 472 648 452 c 128,-1,21
 634 432 634 432 620 390 c 2,22,-1
 497 0 l 1,23,-1
 380 0 l 1,24,-1
 181 536 l 1,25,-1
 273 536 l 1,26,-1
 400 181 l 2,27,28
 415 139 415 139 425 107.5 c 128,-1,29
 435 76 435 76 437 62 c 1,30,-1
 441 62 l 1,31,32
 445 83 445 83 453 119 c 128,-1,33
 461 155 461 155 472 189 c 2,34,-1
 542 407 l 2,35,36
 559 459 559 459 575.5 488 c 128,-1,37
 592 517 592 517 615.5 529 c 128,-1,38
 639 541 639 541 677 541 c 0,13,14
EndSplineSet
EndChar

StartChar: x
Encoding: 120 120 90
Width: 899
Flags: W
LayerCount: 2
Fore
SplineSet
397 274 m 1,0,-1
 212 536 l 1,1,-1
 312 536 l 1,2,-1
 450 334 l 1,3,-1
 587 536 l 1,4,-1
 686 536 l 1,5,-1
 501 274 l 1,6,-1
 696 0 l 1,7,-1
 596 0 l 1,8,-1
 450 214 l 1,9,-1
 302 0 l 1,10,-1
 203 0 l 1,11,-1
 397 274 l 1,0,-1
EndSplineSet
EndChar

StartChar: y
Encoding: 121 121 91
Width: 899
Flags: W
LayerCount: 2
Fore
SplineSet
627.5 0 m 1,0,-1
 627.5 299 l 1,1,-1
 498.5 299 l 1,2,-1
 498.5 136 l 1,3,4
 476.5 129 476.5 129 447 124.5 c 128,-1,5
 417.5 120 417.5 120 386.5 120 c 0,6,7
 298.5 120 298.5 120 238.5 176.5 c 128,-1,8
 178.5 233 178.5 233 140.5 327 c 1,9,10
 170.5 353 170.5 353 190.5 384 c 128,-1,11
 210.5 415 210.5 415 210.5 457 c 0,12,13
 210.5 479 210.5 479 204 505.5 c 128,-1,14
 197.5 532 197.5 532 186.5 551 c 1,15,-1
 125.5 551 l 5,16,-1
 125.5 622 l 5,17,-1
 773.5 622 l 1,18,-1
 773.5 551 l 1,19,-1
 708.5 551 l 1,20,-1
 708.5 0 l 1,21,-1
 627.5 0 l 1,0,-1
417.5 371 m 1,22,-1
 627.5 371 l 1,23,-1
 627.5 551 l 1,24,-1
 271.5 551 l 1,25,26
 281.5 526 281.5 526 286 502 c 128,-1,27
 290.5 478 290.5 478 290.5 457 c 0,28,29
 290.5 403 290.5 403 270 367 c 128,-1,30
 249.5 331 249.5 331 217.5 307 c 1,31,-1
 221.5 352 l 1,32,33
 253.5 273 253.5 273 291 233 c 128,-1,34
 328.5 193 328.5 193 386.5 193 c 0,35,36
 397.5 193 397.5 193 404.5 193.5 c 128,-1,37
 411.5 194 411.5 194 417.5 195 c 1,38,-1
 417.5 371 l 1,22,-1
EndSplineSet
EndChar

StartChar: z
Encoding: 122 122 92
Width: 899
Flags: W
LayerCount: 2
Fore
SplineSet
645.5 0 m 1,0,-1
 253.5 0 l 1,1,-1
 253.5 58 l 1,2,-1
 541.5 468 l 1,3,-1
 270.5 468 l 1,4,-1
 270.5 536 l 1,5,-1
 638.5 536 l 1,6,-1
 638.5 470 l 1,7,-1
 354.5 68 l 1,8,-1
 645.5 68 l 1,9,-1
 645.5 0 l 1,0,-1
EndSplineSet
EndChar

StartChar: at
Encoding: 64 64 93
Width: 899
Flags: W
LayerCount: 2
Fore
SplineSet
841 357 m 0,0,1
 841 311 841 311 830.5 267 c 128,-1,2
 820 223 820 223 798 187.5 c 128,-1,3
 776 152 776 152 744 130.5 c 128,-1,4
 712 109 712 109 668 109 c 0,5,6
 622 109 622 109 595.5 135.5 c 128,-1,7
 569 162 569 162 563 196 c 1,8,-1
 558 196 l 1,9,10
 540 159 540 159 505 134 c 128,-1,11
 470 109 470 109 417 109 c 0,12,13
 341 109 341 109 299.5 160 c 128,-1,14
 258 211 258 211 258 295 c 0,15,16
 258 361 258 361 284 411.5 c 128,-1,17
 310 462 310 462 357.5 491 c 128,-1,18
 405 520 405 520 470 520 c 0,19,20
 514 520 514 520 556.5 512.5 c 128,-1,21
 599 505 599 505 623 496 c 1,22,-1
 613 293 l 2,23,24
 612 275 612 275 612 267.5 c 128,-1,25
 612 260 612 260 612 257 c 0,26,27
 612 205 612 205 630.5 188 c 128,-1,28
 649 171 649 171 674 171 c 0,29,30
 705 171 705 171 726.5 196.5 c 128,-1,31
 748 222 748 222 759.5 264.5 c 128,-1,32
 771 307 771 307 771 358 c 0,33,34
 771 451 771 451 733.5 515.5 c 128,-1,35
 696 580 696 580 630.5 614 c 128,-1,36
 565 648 565 648 482 648 c 0,37,38
 397 648 397 648 331 621 c 128,-1,39
 265 594 265 594 220.5 545 c 128,-1,40
 176 496 176 496 153 429.5 c 128,-1,41
 130 363 130 363 130 283 c 0,42,43
 130 185 130 185 165 116.5 c 128,-1,44
 200 48 200 48 267.5 12.5 c 128,-1,45
 335 -23 335 -23 433 -23 c 0,46,47
 494 -23 494 -23 549.5 -9.5 c 128,-1,48
 605 4 605 4 648 20 c 1,49,-1
 648 -48 l 1,50,51
 605 -66 605 -66 551.5 -77.5 c 128,-1,52
 498 -89 498 -89 433 -89 c 0,53,54
 315 -89 315 -89 231 -45 c 128,-1,55
 147 -1 147 -1 102.5 81.5 c 128,-1,56
 58 164 58 164 58 280 c 0,57,58
 58 373 58 373 87 452.5 c 128,-1,59
 116 532 116 532 171 590.5 c 128,-1,60
 226 649 226 649 304.5 681.5 c 128,-1,61
 383 714 383 714 482 714 c 0,62,63
 560 714 560 714 625.5 689.5 c 128,-1,64
 691 665 691 665 739.5 618.5 c 128,-1,65
 788 572 788 572 814.5 506 c 128,-1,66
 841 440 841 440 841 357 c 0,0,1
336 293 m 0,67,68
 336 229 336 229 361.5 200 c 128,-1,69
 387 171 387 171 430 171 c 0,70,71
 486 171 486 171 510.5 213 c 128,-1,72
 535 255 535 255 539 322 c 2,73,-1
 545 447 l 1,74,75
 532 451 532 451 512 454 c 128,-1,76
 492 457 492 457 471 457 c 0,77,78
 422 457 422 457 392 433 c 128,-1,79
 362 409 362 409 349 371.5 c 128,-1,80
 336 334 336 334 336 293 c 0,67,68
EndSplineSet
EndChar

StartChar: ampersand
Encoding: 38 38 94
Width: 899
Flags: W
LayerCount: 2
Fore
SplineSet
362 725 m 0,0,1
 416 725 416 725 454.5 706.5 c 128,-1,2
 493 688 493 688 514 654 c 128,-1,3
 535 620 535 620 535 571 c 0,4,5
 535 508 535 508 494.5 464 c 128,-1,6
 454 420 454 420 392 384 c 1,7,-1
 585 198 l 1,8,9
 611 229 611 229 627.5 269.5 c 128,-1,10
 644 310 644 310 655 357 c 1,11,-1
 744 357 l 1,12,13
 728 293 728 293 704 238 c 128,-1,14
 680 183 680 183 642 142 c 1,15,-1
 788 0 l 1,16,-1
 669 0 l 1,17,-1
 582 84 l 1,18,19
 551 56 551 56 515 35 c 128,-1,20
 479 14 479 14 435.5 2 c 128,-1,21
 392 -10 392 -10 336 -10 c 0,22,23
 267 -10 267 -10 216.5 12.5 c 128,-1,24
 166 35 166 35 138.5 79 c 128,-1,25
 111 123 111 123 111 186 c 0,26,27
 111 237 111 237 129.5 274 c 128,-1,28
 148 311 148 311 183 340 c 128,-1,29
 218 369 218 369 265 396 c 1,30,31
 244 420 244 420 224 446 c 128,-1,32
 204 472 204 472 191 502.5 c 128,-1,33
 178 533 178 533 178 569 c 0,34,35
 178 618 178 618 200 653 c 128,-1,36
 222 688 222 688 263.5 706.5 c 128,-1,37
 305 725 305 725 362 725 c 0,0,1
318 341 m 1,38,39
 282 320 282 320 256.5 298.5 c 128,-1,40
 231 277 231 277 217 251 c 128,-1,41
 203 225 203 225 203 189 c 0,42,43
 203 134 203 134 240 101 c 128,-1,44
 277 68 277 68 339 68 c 0,45,46
 403 68 403 68 449 89 c 128,-1,47
 495 110 495 110 526 139 c 1,48,-1
 318 341 l 1,38,39
359 653 m 0,49,50
 317 653 317 653 290.5 631 c 128,-1,51
 264 609 264 609 264 570 c 0,52,53
 264 534 264 534 283 503.5 c 128,-1,54
 302 473 302 473 338 436 c 1,55,56
 397 470 397 470 422.5 500.5 c 128,-1,57
 448 531 448 531 448 571 c 0,58,59
 448 607 448 607 424 630 c 128,-1,60
 400 653 400 653 359 653 c 0,49,50
EndSplineSet
EndChar

StartChar: dollar
Encoding: 36 36 95
Width: 899
Flags: W
LayerCount: 2
Fore
SplineSet
413.5 49 m 1,0,1
 358.5 50 358.5 50 306.5 58.5 c 128,-1,2
 254.5 67 254.5 67 222.5 82 c 1,3,-1
 222.5 167 l 1,4,5
 256.5 151 256.5 151 309.5 139 c 128,-1,6
 362.5 127 362.5 127 413.5 126 c 1,7,-1
 413.5 328 l 1,8,9
 347.5 346 347.5 346 305.5 369.5 c 128,-1,10
 263.5 393 263.5 393 243 427 c 128,-1,11
 222.5 461 222.5 461 222.5 508 c 0,12,13
 222.5 557 222.5 557 246 592 c 128,-1,14
 269.5 627 269.5 627 312.5 647.5 c 128,-1,15
 355.5 668 355.5 668 413.5 671 c 1,16,-1
 413.5 759 l 1,17,-1
 477.5 759 l 1,18,-1
 477.5 672 l 1,19,20
 530.5 671 530.5 671 574 660.5 c 128,-1,21
 617.5 650 617.5 650 653.5 635 c 1,22,-1
 626.5 561 l 1,23,24
 594.5 574 594.5 574 556 583.5 c 128,-1,25
 517.5 593 517.5 593 477.5 596 c 1,26,-1
 477.5 395 l 1,27,28
 543.5 376 543.5 376 587.5 354.5 c 128,-1,29
 631.5 333 631.5 333 654 301.5 c 128,-1,30
 676.5 270 676.5 270 676.5 220 c 0,31,32
 676.5 150 676.5 150 624.5 106.5 c 128,-1,33
 572.5 63 572.5 63 477.5 53 c 1,34,-1
 477.5 -58 l 1,35,-1
 413.5 -58 l 1,36,-1
 413.5 49 l 1,0,1
477.5 131 m 1,37,38
 536.5 137 536.5 137 563.5 158.5 c 128,-1,39
 590.5 180 590.5 180 590.5 214 c 0,40,41
 590.5 239 590.5 239 580.5 255.5 c 128,-1,42
 570.5 272 570.5 272 546 284 c 128,-1,43
 521.5 296 521.5 296 477.5 307 c 1,44,-1
 477.5 131 l 1,37,38
413.5 594 m 1,45,46
 377.5 592 377.5 592 354.5 581.5 c 128,-1,47
 331.5 571 331.5 571 320 554 c 128,-1,48
 308.5 537 308.5 537 308.5 515 c 0,49,50
 308.5 489 308.5 489 318 470.5 c 128,-1,51
 327.5 452 327.5 452 350.5 439.5 c 128,-1,52
 373.5 427 373.5 427 413.5 417 c 1,53,-1
 413.5 594 l 1,45,46
EndSplineSet
EndChar

StartChar: grave
Encoding: 96 96 96
Width: 899
Flags: W
LayerCount: 2
Fore
SplineSet
454 766 m 1,0,1
 465 744 465 744 481.5 716.5 c 128,-1,2
 498 689 498 689 516.5 663 c 128,-1,3
 535 637 535 637 550 618 c 1,4,-1
 550 606 l 1,5,-1
 491 606 l 1,6,7
 474 620 474 620 453 639.5 c 128,-1,8
 432 659 432 659 411.5 680.5 c 128,-1,9
 391 702 391 702 374.5 722 c 128,-1,10
 358 742 358 742 349 756 c 1,11,-1
 349 766 l 1,12,-1
 454 766 l 1,0,1
EndSplineSet
EndChar

StartChar: uni0080
Encoding: 128 128 97
Width: 899
Flags: W
LayerCount: 2
Fore
SplineSet
244 85 m 0,0,1
 244 103 244 103 259.5 118 c 128,-1,2
 275 133 275 133 303 144.5 c 128,-1,3
 331 156 331 156 368.5 162.5 c 128,-1,4
 406 169 406 169 449 169 c 0,5,6
 493 169 493 169 530.5 162.5 c 128,-1,7
 568 156 568 156 595.5 144.5 c 128,-1,8
 623 133 623 133 639 118 c 128,-1,9
 655 103 655 103 655 85 c 0,10,11
 655 68 655 68 639 53 c 128,-1,12
 623 38 623 38 595.5 27 c 128,-1,13
 568 16 568 16 530.5 9.5 c 128,-1,14
 493 3 493 3 449 3 c 0,15,16
 406 3 406 3 368.5 9.5 c 128,-1,17
 331 16 331 16 303 27 c 128,-1,18
 275 38 275 38 259.5 53 c 128,-1,19
 244 68 244 68 244 85 c 0,0,1
324 85 m 256,20,21
 324 74 324 74 333.5 64.5 c 128,-1,22
 343 55 343 55 360 48.5 c 128,-1,23
 377 42 377 42 400 38 c 128,-1,24
 423 34 423 34 449 34 c 0,25,26
 476 34 476 34 498.5 38 c 128,-1,27
 521 42 521 42 538 48.5 c 128,-1,28
 555 55 555 55 564.5 64.5 c 128,-1,29
 574 74 574 74 574 85 c 256,30,31
 574 96 574 96 564.5 105.5 c 128,-1,32
 555 115 555 115 538 122 c 128,-1,33
 521 129 521 129 498.5 133 c 128,-1,34
 476 137 476 137 449 137 c 0,35,36
 423 137 423 137 400 133 c 128,-1,37
 377 129 377 129 360 122 c 128,-1,38
 343 115 343 115 333.5 105.5 c 128,-1,39
 324 96 324 96 324 85 c 256,20,21
244 272 m 0,40,41
 244 290 244 290 259.5 305 c 128,-1,42
 275 320 275 320 303 331.5 c 128,-1,43
 331 343 331 343 368.5 349 c 128,-1,44
 406 355 406 355 449 355 c 0,45,46
 493 355 493 355 530.5 349 c 128,-1,47
 568 343 568 343 595.5 331.5 c 128,-1,48
 623 320 623 320 639 305 c 128,-1,49
 655 290 655 290 655 272 c 0,50,51
 655 255 655 255 639 240 c 128,-1,52
 623 225 623 225 595.5 214 c 128,-1,53
 568 203 568 203 530.5 196 c 128,-1,54
 493 189 493 189 449 189 c 0,55,56
 406 189 406 189 368.5 196 c 128,-1,57
 331 203 331 203 303 214 c 128,-1,58
 275 225 275 225 259.5 240 c 128,-1,59
 244 255 244 255 244 272 c 0,40,41
324 272 m 256,60,61
 324 261 324 261 333.5 251.5 c 128,-1,62
 343 242 343 242 360 235 c 128,-1,63
 377 228 377 228 400 224 c 128,-1,64
 423 220 423 220 449 220 c 0,65,66
 476 220 476 220 498.5 224 c 128,-1,67
 521 228 521 228 538 235 c 128,-1,68
 555 242 555 242 564.5 251.5 c 128,-1,69
 574 261 574 261 574 272 c 256,70,71
 574 283 574 283 564.5 292.5 c 128,-1,72
 555 302 555 302 538 309 c 128,-1,73
 521 316 521 316 498.5 320 c 128,-1,74
 476 324 476 324 449 324 c 0,75,76
 423 324 423 324 400 320 c 128,-1,77
 377 316 377 316 360 309 c 128,-1,78
 343 302 343 302 333.5 292.5 c 128,-1,79
 324 283 324 283 324 272 c 256,60,61
244 461 m 256,80,81
 244 478 244 478 259.5 493.5 c 128,-1,82
 275 509 275 509 303 520 c 128,-1,83
 331 531 331 531 368.5 537.5 c 128,-1,84
 406 544 406 544 449 544 c 0,85,86
 493 544 493 544 530.5 537.5 c 128,-1,87
 568 531 568 531 595.5 520 c 128,-1,88
 623 509 623 509 639 493.5 c 128,-1,89
 655 478 655 478 655 461 c 256,90,91
 655 444 655 444 639 429 c 128,-1,92
 623 414 623 414 595.5 402.5 c 128,-1,93
 568 391 568 391 530.5 384.5 c 128,-1,94
 493 378 493 378 449 378 c 0,95,96
 406 378 406 378 368.5 384.5 c 128,-1,97
 331 391 331 391 303 402.5 c 128,-1,98
 275 414 275 414 259.5 429 c 128,-1,99
 244 444 244 444 244 461 c 256,80,81
324 461 m 256,100,101
 324 450 324 450 333.5 440.5 c 128,-1,102
 343 431 343 431 360 424 c 128,-1,103
 377 417 377 417 400 413 c 128,-1,104
 423 409 423 409 449 409 c 0,105,106
 476 409 476 409 498.5 413 c 128,-1,107
 521 417 521 417 538 424 c 128,-1,108
 555 431 555 431 564.5 440.5 c 128,-1,109
 574 450 574 450 574 461 c 256,110,111
 574 472 574 472 564.5 481.5 c 128,-1,112
 555 491 555 491 538 498 c 128,-1,113
 521 505 521 505 498.5 509 c 128,-1,114
 476 513 476 513 449 513 c 0,115,116
 423 513 423 513 400 509 c 128,-1,117
 377 505 377 505 360 498 c 128,-1,118
 343 491 343 491 333.5 481.5 c 128,-1,119
 324 472 324 472 324 461 c 256,100,101
244 648 m 256,120,121
 244 665 244 665 259.5 680.5 c 128,-1,122
 275 696 275 696 303 707 c 128,-1,123
 331 718 331 718 368.5 724.5 c 128,-1,124
 406 731 406 731 449 731 c 0,125,126
 493 731 493 731 530.5 724.5 c 128,-1,127
 568 718 568 718 595.5 707 c 128,-1,128
 623 696 623 696 639 680.5 c 128,-1,129
 655 665 655 665 655 648 c 256,130,131
 655 631 655 631 639 616 c 128,-1,132
 623 601 623 601 595.5 589.5 c 128,-1,133
 568 578 568 578 530.5 571.5 c 128,-1,134
 493 565 493 565 449 565 c 0,135,136
 406 565 406 565 368.5 571.5 c 128,-1,137
 331 578 331 578 303 589.5 c 128,-1,138
 275 601 275 601 259.5 616 c 128,-1,139
 244 631 244 631 244 648 c 256,120,121
324 648 m 0,140,141
 324 637 324 637 333.5 627.5 c 128,-1,142
 343 618 343 618 360 611 c 128,-1,143
 377 604 377 604 400 600 c 128,-1,144
 423 596 423 596 449 596 c 0,145,146
 476 596 476 596 498.5 600 c 128,-1,147
 521 604 521 604 538 611 c 128,-1,148
 555 618 555 618 564.5 627.5 c 128,-1,149
 574 637 574 637 574 648 c 0,150,151
 574 658 574 658 564.5 668 c 128,-1,152
 555 678 555 678 538 685 c 128,-1,153
 521 692 521 692 498.5 696 c 128,-1,154
 476 700 476 700 449 700 c 0,155,156
 423 700 423 700 400 696 c 128,-1,157
 377 692 377 692 360 685 c 128,-1,158
 343 678 343 678 333.5 668 c 128,-1,159
 324 658 324 658 324 648 c 0,140,141
EndSplineSet
EndChar

StartChar: uni0081
Encoding: 129 129 98
Width: 899
Flags: W
LayerCount: 2
Fore
SplineSet
244 85 m 0,0,1
 244 103 244 103 259.5 118 c 128,-1,2
 275 133 275 133 303 144.5 c 128,-1,3
 331 156 331 156 368.5 162.5 c 128,-1,4
 406 169 406 169 449 169 c 0,5,6
 493 169 493 169 530.5 162.5 c 128,-1,7
 568 156 568 156 595.5 144.5 c 128,-1,8
 623 133 623 133 639 118 c 128,-1,9
 655 103 655 103 655 85 c 0,10,11
 655 68 655 68 639 53 c 128,-1,12
 623 38 623 38 595.5 27 c 128,-1,13
 568 16 568 16 530.5 9.5 c 128,-1,14
 493 3 493 3 449 3 c 0,15,16
 406 3 406 3 368.5 9.5 c 128,-1,17
 331 16 331 16 303 27 c 128,-1,18
 275 38 275 38 259.5 53 c 128,-1,19
 244 68 244 68 244 85 c 0,0,1
244 272 m 0,20,21
 244 290 244 290 259.5 305 c 128,-1,22
 275 320 275 320 303 331.5 c 128,-1,23
 331 343 331 343 368.5 349 c 128,-1,24
 406 355 406 355 449 355 c 0,25,26
 493 355 493 355 530.5 349 c 128,-1,27
 568 343 568 343 595.5 331.5 c 128,-1,28
 623 320 623 320 639 305 c 128,-1,29
 655 290 655 290 655 272 c 0,30,31
 655 255 655 255 639 240 c 128,-1,32
 623 225 623 225 595.5 214 c 128,-1,33
 568 203 568 203 530.5 196 c 128,-1,34
 493 189 493 189 449 189 c 0,35,36
 406 189 406 189 368.5 196 c 128,-1,37
 331 203 331 203 303 214 c 128,-1,38
 275 225 275 225 259.5 240 c 128,-1,39
 244 255 244 255 244 272 c 0,20,21
324 272 m 256,40,41
 324 261 324 261 333.5 251.5 c 128,-1,42
 343 242 343 242 360 235 c 128,-1,43
 377 228 377 228 400 224 c 128,-1,44
 423 220 423 220 449 220 c 0,45,46
 476 220 476 220 498.5 224 c 128,-1,47
 521 228 521 228 538 235 c 128,-1,48
 555 242 555 242 564.5 251.5 c 128,-1,49
 574 261 574 261 574 272 c 256,50,51
 574 283 574 283 564.5 292.5 c 128,-1,52
 555 302 555 302 538 309 c 128,-1,53
 521 316 521 316 498.5 320 c 128,-1,54
 476 324 476 324 449 324 c 0,55,56
 423 324 423 324 400 320 c 128,-1,57
 377 316 377 316 360 309 c 128,-1,58
 343 302 343 302 333.5 292.5 c 128,-1,59
 324 283 324 283 324 272 c 256,40,41
244 461 m 256,60,61
 244 478 244 478 259.5 493.5 c 128,-1,62
 275 509 275 509 303 520 c 128,-1,63
 331 531 331 531 368.5 537.5 c 128,-1,64
 406 544 406 544 449 544 c 0,65,66
 493 544 493 544 530.5 537.5 c 128,-1,67
 568 531 568 531 595.5 520 c 128,-1,68
 623 509 623 509 639 493.5 c 128,-1,69
 655 478 655 478 655 461 c 256,70,71
 655 444 655 444 639 429 c 128,-1,72
 623 414 623 414 595.5 402.5 c 128,-1,73
 568 391 568 391 530.5 384.5 c 128,-1,74
 493 378 493 378 449 378 c 0,75,76
 406 378 406 378 368.5 384.5 c 128,-1,77
 331 391 331 391 303 402.5 c 128,-1,78
 275 414 275 414 259.5 429 c 128,-1,79
 244 444 244 444 244 461 c 256,60,61
324 461 m 256,80,81
 324 450 324 450 333.5 440.5 c 128,-1,82
 343 431 343 431 360 424 c 128,-1,83
 377 417 377 417 400 413 c 128,-1,84
 423 409 423 409 449 409 c 0,85,86
 476 409 476 409 498.5 413 c 128,-1,87
 521 417 521 417 538 424 c 128,-1,88
 555 431 555 431 564.5 440.5 c 128,-1,89
 574 450 574 450 574 461 c 256,90,91
 574 472 574 472 564.5 481.5 c 128,-1,92
 555 491 555 491 538 498 c 128,-1,93
 521 505 521 505 498.5 509 c 128,-1,94
 476 513 476 513 449 513 c 0,95,96
 423 513 423 513 400 509 c 128,-1,97
 377 505 377 505 360 498 c 128,-1,98
 343 491 343 491 333.5 481.5 c 128,-1,99
 324 472 324 472 324 461 c 256,80,81
244 648 m 256,100,101
 244 665 244 665 259.5 680.5 c 128,-1,102
 275 696 275 696 303 707 c 128,-1,103
 331 718 331 718 368.5 724.5 c 128,-1,104
 406 731 406 731 449 731 c 0,105,106
 493 731 493 731 530.5 724.5 c 128,-1,107
 568 718 568 718 595.5 707 c 128,-1,108
 623 696 623 696 639 680.5 c 128,-1,109
 655 665 655 665 655 648 c 256,110,111
 655 631 655 631 639 616 c 128,-1,112
 623 601 623 601 595.5 589.5 c 128,-1,113
 568 578 568 578 530.5 571.5 c 128,-1,114
 493 565 493 565 449 565 c 0,115,116
 406 565 406 565 368.5 571.5 c 128,-1,117
 331 578 331 578 303 589.5 c 128,-1,118
 275 601 275 601 259.5 616 c 128,-1,119
 244 631 244 631 244 648 c 256,100,101
324 648 m 0,120,121
 324 637 324 637 333.5 627.5 c 128,-1,122
 343 618 343 618 360 611 c 128,-1,123
 377 604 377 604 400 600 c 128,-1,124
 423 596 423 596 449 596 c 0,125,126
 476 596 476 596 498.5 600 c 128,-1,127
 521 604 521 604 538 611 c 128,-1,128
 555 618 555 618 564.5 627.5 c 128,-1,129
 574 637 574 637 574 648 c 0,130,131
 574 658 574 658 564.5 668 c 128,-1,132
 555 678 555 678 538 685 c 128,-1,133
 521 692 521 692 498.5 696 c 128,-1,134
 476 700 476 700 449 700 c 0,135,136
 423 700 423 700 400 696 c 128,-1,137
 377 692 377 692 360 685 c 128,-1,138
 343 678 343 678 333.5 668 c 128,-1,139
 324 658 324 658 324 648 c 0,120,121
EndSplineSet
EndChar

StartChar: uni0082
Encoding: 130 130 99
Width: 899
Flags: W
LayerCount: 2
Fore
SplineSet
244 85 m 0,0,1
 244 103 244 103 259.5 118 c 128,-1,2
 275 133 275 133 303 144.5 c 128,-1,3
 331 156 331 156 368.5 162.5 c 128,-1,4
 406 169 406 169 449 169 c 0,5,6
 493 169 493 169 530.5 162.5 c 128,-1,7
 568 156 568 156 595.5 144.5 c 128,-1,8
 623 133 623 133 639 118 c 128,-1,9
 655 103 655 103 655 85 c 0,10,11
 655 68 655 68 639 53 c 128,-1,12
 623 38 623 38 595.5 27 c 128,-1,13
 568 16 568 16 530.5 9.5 c 128,-1,14
 493 3 493 3 449 3 c 0,15,16
 406 3 406 3 368.5 9.5 c 128,-1,17
 331 16 331 16 303 27 c 128,-1,18
 275 38 275 38 259.5 53 c 128,-1,19
 244 68 244 68 244 85 c 0,0,1
324 85 m 256,20,21
 324 74 324 74 333.5 64.5 c 128,-1,22
 343 55 343 55 360 48.5 c 128,-1,23
 377 42 377 42 400 38 c 128,-1,24
 423 34 423 34 449 34 c 0,25,26
 476 34 476 34 498.5 38 c 128,-1,27
 521 42 521 42 538 48.5 c 128,-1,28
 555 55 555 55 564.5 64.5 c 128,-1,29
 574 74 574 74 574 85 c 256,30,31
 574 96 574 96 564.5 105.5 c 128,-1,32
 555 115 555 115 538 122 c 128,-1,33
 521 129 521 129 498.5 133 c 128,-1,34
 476 137 476 137 449 137 c 0,35,36
 423 137 423 137 400 133 c 128,-1,37
 377 129 377 129 360 122 c 128,-1,38
 343 115 343 115 333.5 105.5 c 128,-1,39
 324 96 324 96 324 85 c 256,20,21
244 272 m 0,40,41
 244 290 244 290 259.5 305 c 128,-1,42
 275 320 275 320 303 331.5 c 128,-1,43
 331 343 331 343 368.5 349 c 128,-1,44
 406 355 406 355 449 355 c 0,45,46
 493 355 493 355 530.5 349 c 128,-1,47
 568 343 568 343 595.5 331.5 c 128,-1,48
 623 320 623 320 639 305 c 128,-1,49
 655 290 655 290 655 272 c 0,50,51
 655 255 655 255 639 240 c 128,-1,52
 623 225 623 225 595.5 214 c 128,-1,53
 568 203 568 203 530.5 196 c 128,-1,54
 493 189 493 189 449 189 c 0,55,56
 406 189 406 189 368.5 196 c 128,-1,57
 331 203 331 203 303 214 c 128,-1,58
 275 225 275 225 259.5 240 c 128,-1,59
 244 255 244 255 244 272 c 0,40,41
244 461 m 256,60,61
 244 478 244 478 259.5 493.5 c 128,-1,62
 275 509 275 509 303 520 c 128,-1,63
 331 531 331 531 368.5 537.5 c 128,-1,64
 406 544 406 544 449 544 c 0,65,66
 493 544 493 544 530.5 537.5 c 128,-1,67
 568 531 568 531 595.5 520 c 128,-1,68
 623 509 623 509 639 493.5 c 128,-1,69
 655 478 655 478 655 461 c 256,70,71
 655 444 655 444 639 429 c 128,-1,72
 623 414 623 414 595.5 402.5 c 128,-1,73
 568 391 568 391 530.5 384.5 c 128,-1,74
 493 378 493 378 449 378 c 0,75,76
 406 378 406 378 368.5 384.5 c 128,-1,77
 331 391 331 391 303 402.5 c 128,-1,78
 275 414 275 414 259.5 429 c 128,-1,79
 244 444 244 444 244 461 c 256,60,61
324 461 m 256,80,81
 324 450 324 450 333.5 440.5 c 128,-1,82
 343 431 343 431 360 424 c 128,-1,83
 377 417 377 417 400 413 c 128,-1,84
 423 409 423 409 449 409 c 0,85,86
 476 409 476 409 498.5 413 c 128,-1,87
 521 417 521 417 538 424 c 128,-1,88
 555 431 555 431 564.5 440.5 c 128,-1,89
 574 450 574 450 574 461 c 256,90,91
 574 472 574 472 564.5 481.5 c 128,-1,92
 555 491 555 491 538 498 c 128,-1,93
 521 505 521 505 498.5 509 c 128,-1,94
 476 513 476 513 449 513 c 0,95,96
 423 513 423 513 400 509 c 128,-1,97
 377 505 377 505 360 498 c 128,-1,98
 343 491 343 491 333.5 481.5 c 128,-1,99
 324 472 324 472 324 461 c 256,80,81
244 648 m 256,100,101
 244 665 244 665 259.5 680.5 c 128,-1,102
 275 696 275 696 303 707 c 128,-1,103
 331 718 331 718 368.5 724.5 c 128,-1,104
 406 731 406 731 449 731 c 0,105,106
 493 731 493 731 530.5 724.5 c 128,-1,107
 568 718 568 718 595.5 707 c 128,-1,108
 623 696 623 696 639 680.5 c 128,-1,109
 655 665 655 665 655 648 c 256,110,111
 655 631 655 631 639 616 c 128,-1,112
 623 601 623 601 595.5 589.5 c 128,-1,113
 568 578 568 578 530.5 571.5 c 128,-1,114
 493 565 493 565 449 565 c 0,115,116
 406 565 406 565 368.5 571.5 c 128,-1,117
 331 578 331 578 303 589.5 c 128,-1,118
 275 601 275 601 259.5 616 c 128,-1,119
 244 631 244 631 244 648 c 256,100,101
324 648 m 0,120,121
 324 637 324 637 333.5 627.5 c 128,-1,122
 343 618 343 618 360 611 c 128,-1,123
 377 604 377 604 400 600 c 128,-1,124
 423 596 423 596 449 596 c 0,125,126
 476 596 476 596 498.5 600 c 128,-1,127
 521 604 521 604 538 611 c 128,-1,128
 555 618 555 618 564.5 627.5 c 128,-1,129
 574 637 574 637 574 648 c 0,130,131
 574 658 574 658 564.5 668 c 128,-1,132
 555 678 555 678 538 685 c 128,-1,133
 521 692 521 692 498.5 696 c 128,-1,134
 476 700 476 700 449 700 c 0,135,136
 423 700 423 700 400 696 c 128,-1,137
 377 692 377 692 360 685 c 128,-1,138
 343 678 343 678 333.5 668 c 128,-1,139
 324 658 324 658 324 648 c 0,120,121
EndSplineSet
EndChar

StartChar: uni0083
Encoding: 131 131 100
Width: 899
Flags: W
LayerCount: 2
Fore
SplineSet
244 85 m 0,0,1
 244 103 244 103 259.5 118 c 128,-1,2
 275 133 275 133 303 144.5 c 128,-1,3
 331 156 331 156 368.5 162.5 c 128,-1,4
 406 169 406 169 449 169 c 0,5,6
 493 169 493 169 530.5 162.5 c 128,-1,7
 568 156 568 156 595.5 144.5 c 128,-1,8
 623 133 623 133 639 118 c 128,-1,9
 655 103 655 103 655 85 c 0,10,11
 655 68 655 68 639 53 c 128,-1,12
 623 38 623 38 595.5 27 c 128,-1,13
 568 16 568 16 530.5 9.5 c 128,-1,14
 493 3 493 3 449 3 c 0,15,16
 406 3 406 3 368.5 9.5 c 128,-1,17
 331 16 331 16 303 27 c 128,-1,18
 275 38 275 38 259.5 53 c 128,-1,19
 244 68 244 68 244 85 c 0,0,1
244 272 m 0,20,21
 244 290 244 290 259.5 305 c 128,-1,22
 275 320 275 320 303 331.5 c 128,-1,23
 331 343 331 343 368.5 349 c 128,-1,24
 406 355 406 355 449 355 c 0,25,26
 493 355 493 355 530.5 349 c 128,-1,27
 568 343 568 343 595.5 331.5 c 128,-1,28
 623 320 623 320 639 305 c 128,-1,29
 655 290 655 290 655 272 c 0,30,31
 655 255 655 255 639 240 c 128,-1,32
 623 225 623 225 595.5 214 c 128,-1,33
 568 203 568 203 530.5 196 c 128,-1,34
 493 189 493 189 449 189 c 0,35,36
 406 189 406 189 368.5 196 c 128,-1,37
 331 203 331 203 303 214 c 128,-1,38
 275 225 275 225 259.5 240 c 128,-1,39
 244 255 244 255 244 272 c 0,20,21
244 461 m 256,40,41
 244 478 244 478 259.5 493.5 c 128,-1,42
 275 509 275 509 303 520 c 128,-1,43
 331 531 331 531 368.5 537.5 c 128,-1,44
 406 544 406 544 449 544 c 0,45,46
 493 544 493 544 530.5 537.5 c 128,-1,47
 568 531 568 531 595.5 520 c 128,-1,48
 623 509 623 509 639 493.5 c 128,-1,49
 655 478 655 478 655 461 c 256,50,51
 655 444 655 444 639 429 c 128,-1,52
 623 414 623 414 595.5 402.5 c 128,-1,53
 568 391 568 391 530.5 384.5 c 128,-1,54
 493 378 493 378 449 378 c 0,55,56
 406 378 406 378 368.5 384.5 c 128,-1,57
 331 391 331 391 303 402.5 c 128,-1,58
 275 414 275 414 259.5 429 c 128,-1,59
 244 444 244 444 244 461 c 256,40,41
324 461 m 256,60,61
 324 450 324 450 333.5 440.5 c 128,-1,62
 343 431 343 431 360 424 c 128,-1,63
 377 417 377 417 400 413 c 128,-1,64
 423 409 423 409 449 409 c 0,65,66
 476 409 476 409 498.5 413 c 128,-1,67
 521 417 521 417 538 424 c 128,-1,68
 555 431 555 431 564.5 440.5 c 128,-1,69
 574 450 574 450 574 461 c 256,70,71
 574 472 574 472 564.5 481.5 c 128,-1,72
 555 491 555 491 538 498 c 128,-1,73
 521 505 521 505 498.5 509 c 128,-1,74
 476 513 476 513 449 513 c 0,75,76
 423 513 423 513 400 509 c 128,-1,77
 377 505 377 505 360 498 c 128,-1,78
 343 491 343 491 333.5 481.5 c 128,-1,79
 324 472 324 472 324 461 c 256,60,61
244 648 m 256,80,81
 244 665 244 665 259.5 680.5 c 128,-1,82
 275 696 275 696 303 707 c 128,-1,83
 331 718 331 718 368.5 724.5 c 128,-1,84
 406 731 406 731 449 731 c 0,85,86
 493 731 493 731 530.5 724.5 c 128,-1,87
 568 718 568 718 595.5 707 c 128,-1,88
 623 696 623 696 639 680.5 c 128,-1,89
 655 665 655 665 655 648 c 256,90,91
 655 631 655 631 639 616 c 128,-1,92
 623 601 623 601 595.5 589.5 c 128,-1,93
 568 578 568 578 530.5 571.5 c 128,-1,94
 493 565 493 565 449 565 c 0,95,96
 406 565 406 565 368.5 571.5 c 128,-1,97
 331 578 331 578 303 589.5 c 128,-1,98
 275 601 275 601 259.5 616 c 128,-1,99
 244 631 244 631 244 648 c 256,80,81
324 648 m 0,100,101
 324 637 324 637 333.5 627.5 c 128,-1,102
 343 618 343 618 360 611 c 128,-1,103
 377 604 377 604 400 600 c 128,-1,104
 423 596 423 596 449 596 c 0,105,106
 476 596 476 596 498.5 600 c 128,-1,107
 521 604 521 604 538 611 c 128,-1,108
 555 618 555 618 564.5 627.5 c 128,-1,109
 574 637 574 637 574 648 c 0,110,111
 574 658 574 658 564.5 668 c 128,-1,112
 555 678 555 678 538 685 c 128,-1,113
 521 692 521 692 498.5 696 c 128,-1,114
 476 700 476 700 449 700 c 0,115,116
 423 700 423 700 400 696 c 128,-1,117
 377 692 377 692 360 685 c 128,-1,118
 343 678 343 678 333.5 668 c 128,-1,119
 324 658 324 658 324 648 c 0,100,101
EndSplineSet
EndChar

StartChar: uni0084
Encoding: 132 132 101
Width: 899
Flags: W
LayerCount: 2
Fore
SplineSet
244 85 m 0,0,1
 244 103 244 103 259.5 118 c 128,-1,2
 275 133 275 133 303 144.5 c 128,-1,3
 331 156 331 156 368.5 162.5 c 128,-1,4
 406 169 406 169 449 169 c 0,5,6
 493 169 493 169 530.5 162.5 c 128,-1,7
 568 156 568 156 595.5 144.5 c 128,-1,8
 623 133 623 133 639 118 c 128,-1,9
 655 103 655 103 655 85 c 0,10,11
 655 68 655 68 639 53 c 128,-1,12
 623 38 623 38 595.5 27 c 128,-1,13
 568 16 568 16 530.5 9.5 c 128,-1,14
 493 3 493 3 449 3 c 0,15,16
 406 3 406 3 368.5 9.5 c 128,-1,17
 331 16 331 16 303 27 c 128,-1,18
 275 38 275 38 259.5 53 c 128,-1,19
 244 68 244 68 244 85 c 0,0,1
324 85 m 256,20,21
 324 74 324 74 333.5 64.5 c 128,-1,22
 343 55 343 55 360 48.5 c 128,-1,23
 377 42 377 42 400 38 c 128,-1,24
 423 34 423 34 449 34 c 0,25,26
 476 34 476 34 498.5 38 c 128,-1,27
 521 42 521 42 538 48.5 c 128,-1,28
 555 55 555 55 564.5 64.5 c 128,-1,29
 574 74 574 74 574 85 c 256,30,31
 574 96 574 96 564.5 105.5 c 128,-1,32
 555 115 555 115 538 122 c 128,-1,33
 521 129 521 129 498.5 133 c 128,-1,34
 476 137 476 137 449 137 c 0,35,36
 423 137 423 137 400 133 c 128,-1,37
 377 129 377 129 360 122 c 128,-1,38
 343 115 343 115 333.5 105.5 c 128,-1,39
 324 96 324 96 324 85 c 256,20,21
244 272 m 0,40,41
 244 290 244 290 259.5 305 c 128,-1,42
 275 320 275 320 303 331.5 c 128,-1,43
 331 343 331 343 368.5 349 c 128,-1,44
 406 355 406 355 449 355 c 0,45,46
 493 355 493 355 530.5 349 c 128,-1,47
 568 343 568 343 595.5 331.5 c 128,-1,48
 623 320 623 320 639 305 c 128,-1,49
 655 290 655 290 655 272 c 0,50,51
 655 255 655 255 639 240 c 128,-1,52
 623 225 623 225 595.5 214 c 128,-1,53
 568 203 568 203 530.5 196 c 128,-1,54
 493 189 493 189 449 189 c 0,55,56
 406 189 406 189 368.5 196 c 128,-1,57
 331 203 331 203 303 214 c 128,-1,58
 275 225 275 225 259.5 240 c 128,-1,59
 244 255 244 255 244 272 c 0,40,41
324 272 m 256,60,61
 324 261 324 261 333.5 251.5 c 128,-1,62
 343 242 343 242 360 235 c 128,-1,63
 377 228 377 228 400 224 c 128,-1,64
 423 220 423 220 449 220 c 0,65,66
 476 220 476 220 498.5 224 c 128,-1,67
 521 228 521 228 538 235 c 128,-1,68
 555 242 555 242 564.5 251.5 c 128,-1,69
 574 261 574 261 574 272 c 256,70,71
 574 283 574 283 564.5 292.5 c 128,-1,72
 555 302 555 302 538 309 c 128,-1,73
 521 316 521 316 498.5 320 c 128,-1,74
 476 324 476 324 449 324 c 0,75,76
 423 324 423 324 400 320 c 128,-1,77
 377 316 377 316 360 309 c 128,-1,78
 343 302 343 302 333.5 292.5 c 128,-1,79
 324 283 324 283 324 272 c 256,60,61
244 461 m 256,80,81
 244 478 244 478 259.5 493.5 c 128,-1,82
 275 509 275 509 303 520 c 128,-1,83
 331 531 331 531 368.5 537.5 c 128,-1,84
 406 544 406 544 449 544 c 0,85,86
 493 544 493 544 530.5 537.5 c 128,-1,87
 568 531 568 531 595.5 520 c 128,-1,88
 623 509 623 509 639 493.5 c 128,-1,89
 655 478 655 478 655 461 c 256,90,91
 655 444 655 444 639 429 c 128,-1,92
 623 414 623 414 595.5 402.5 c 128,-1,93
 568 391 568 391 530.5 384.5 c 128,-1,94
 493 378 493 378 449 378 c 0,95,96
 406 378 406 378 368.5 384.5 c 128,-1,97
 331 391 331 391 303 402.5 c 128,-1,98
 275 414 275 414 259.5 429 c 128,-1,99
 244 444 244 444 244 461 c 256,80,81
244 648 m 256,100,101
 244 665 244 665 259.5 680.5 c 128,-1,102
 275 696 275 696 303 707 c 128,-1,103
 331 718 331 718 368.5 724.5 c 128,-1,104
 406 731 406 731 449 731 c 0,105,106
 493 731 493 731 530.5 724.5 c 128,-1,107
 568 718 568 718 595.5 707 c 128,-1,108
 623 696 623 696 639 680.5 c 128,-1,109
 655 665 655 665 655 648 c 256,110,111
 655 631 655 631 639 616 c 128,-1,112
 623 601 623 601 595.5 589.5 c 128,-1,113
 568 578 568 578 530.5 571.5 c 128,-1,114
 493 565 493 565 449 565 c 0,115,116
 406 565 406 565 368.5 571.5 c 128,-1,117
 331 578 331 578 303 589.5 c 128,-1,118
 275 601 275 601 259.5 616 c 128,-1,119
 244 631 244 631 244 648 c 256,100,101
324 648 m 0,120,121
 324 637 324 637 333.5 627.5 c 128,-1,122
 343 618 343 618 360 611 c 128,-1,123
 377 604 377 604 400 600 c 128,-1,124
 423 596 423 596 449 596 c 0,125,126
 476 596 476 596 498.5 600 c 128,-1,127
 521 604 521 604 538 611 c 128,-1,128
 555 618 555 618 564.5 627.5 c 128,-1,129
 574 637 574 637 574 648 c 0,130,131
 574 658 574 658 564.5 668 c 128,-1,132
 555 678 555 678 538 685 c 128,-1,133
 521 692 521 692 498.5 696 c 128,-1,134
 476 700 476 700 449 700 c 0,135,136
 423 700 423 700 400 696 c 128,-1,137
 377 692 377 692 360 685 c 128,-1,138
 343 678 343 678 333.5 668 c 128,-1,139
 324 658 324 658 324 648 c 0,120,121
EndSplineSet
EndChar

StartChar: uni0085
Encoding: 133 133 102
Width: 899
Flags: W
LayerCount: 2
Fore
SplineSet
244 85 m 0,0,1
 244 103 244 103 259.5 118 c 128,-1,2
 275 133 275 133 303 144.5 c 128,-1,3
 331 156 331 156 368.5 162.5 c 128,-1,4
 406 169 406 169 449 169 c 0,5,6
 493 169 493 169 530.5 162.5 c 128,-1,7
 568 156 568 156 595.5 144.5 c 128,-1,8
 623 133 623 133 639 118 c 128,-1,9
 655 103 655 103 655 85 c 0,10,11
 655 68 655 68 639 53 c 128,-1,12
 623 38 623 38 595.5 27 c 128,-1,13
 568 16 568 16 530.5 9.5 c 128,-1,14
 493 3 493 3 449 3 c 0,15,16
 406 3 406 3 368.5 9.5 c 128,-1,17
 331 16 331 16 303 27 c 128,-1,18
 275 38 275 38 259.5 53 c 128,-1,19
 244 68 244 68 244 85 c 0,0,1
244 272 m 0,20,21
 244 290 244 290 259.5 305 c 128,-1,22
 275 320 275 320 303 331.5 c 128,-1,23
 331 343 331 343 368.5 349 c 128,-1,24
 406 355 406 355 449 355 c 0,25,26
 493 355 493 355 530.5 349 c 128,-1,27
 568 343 568 343 595.5 331.5 c 128,-1,28
 623 320 623 320 639 305 c 128,-1,29
 655 290 655 290 655 272 c 0,30,31
 655 255 655 255 639 240 c 128,-1,32
 623 225 623 225 595.5 214 c 128,-1,33
 568 203 568 203 530.5 196 c 128,-1,34
 493 189 493 189 449 189 c 0,35,36
 406 189 406 189 368.5 196 c 128,-1,37
 331 203 331 203 303 214 c 128,-1,38
 275 225 275 225 259.5 240 c 128,-1,39
 244 255 244 255 244 272 c 0,20,21
324 272 m 256,40,41
 324 261 324 261 333.5 251.5 c 128,-1,42
 343 242 343 242 360 235 c 128,-1,43
 377 228 377 228 400 224 c 128,-1,44
 423 220 423 220 449 220 c 0,45,46
 476 220 476 220 498.5 224 c 128,-1,47
 521 228 521 228 538 235 c 128,-1,48
 555 242 555 242 564.5 251.5 c 128,-1,49
 574 261 574 261 574 272 c 256,50,51
 574 283 574 283 564.5 292.5 c 128,-1,52
 555 302 555 302 538 309 c 128,-1,53
 521 316 521 316 498.5 320 c 128,-1,54
 476 324 476 324 449 324 c 0,55,56
 423 324 423 324 400 320 c 128,-1,57
 377 316 377 316 360 309 c 128,-1,58
 343 302 343 302 333.5 292.5 c 128,-1,59
 324 283 324 283 324 272 c 256,40,41
244 461 m 256,60,61
 244 478 244 478 259.5 493.5 c 128,-1,62
 275 509 275 509 303 520 c 128,-1,63
 331 531 331 531 368.5 537.5 c 128,-1,64
 406 544 406 544 449 544 c 0,65,66
 493 544 493 544 530.5 537.5 c 128,-1,67
 568 531 568 531 595.5 520 c 128,-1,68
 623 509 623 509 639 493.5 c 128,-1,69
 655 478 655 478 655 461 c 256,70,71
 655 444 655 444 639 429 c 128,-1,72
 623 414 623 414 595.5 402.5 c 128,-1,73
 568 391 568 391 530.5 384.5 c 128,-1,74
 493 378 493 378 449 378 c 0,75,76
 406 378 406 378 368.5 384.5 c 128,-1,77
 331 391 331 391 303 402.5 c 128,-1,78
 275 414 275 414 259.5 429 c 128,-1,79
 244 444 244 444 244 461 c 256,60,61
244 648 m 256,80,81
 244 665 244 665 259.5 680.5 c 128,-1,82
 275 696 275 696 303 707 c 128,-1,83
 331 718 331 718 368.5 724.5 c 128,-1,84
 406 731 406 731 449 731 c 0,85,86
 493 731 493 731 530.5 724.5 c 128,-1,87
 568 718 568 718 595.5 707 c 128,-1,88
 623 696 623 696 639 680.5 c 128,-1,89
 655 665 655 665 655 648 c 256,90,91
 655 631 655 631 639 616 c 128,-1,92
 623 601 623 601 595.5 589.5 c 128,-1,93
 568 578 568 578 530.5 571.5 c 128,-1,94
 493 565 493 565 449 565 c 0,95,96
 406 565 406 565 368.5 571.5 c 128,-1,97
 331 578 331 578 303 589.5 c 128,-1,98
 275 601 275 601 259.5 616 c 128,-1,99
 244 631 244 631 244 648 c 256,80,81
324 648 m 0,100,101
 324 637 324 637 333.5 627.5 c 128,-1,102
 343 618 343 618 360 611 c 128,-1,103
 377 604 377 604 400 600 c 128,-1,104
 423 596 423 596 449 596 c 0,105,106
 476 596 476 596 498.5 600 c 128,-1,107
 521 604 521 604 538 611 c 128,-1,108
 555 618 555 618 564.5 627.5 c 128,-1,109
 574 637 574 637 574 648 c 0,110,111
 574 658 574 658 564.5 668 c 128,-1,112
 555 678 555 678 538 685 c 128,-1,113
 521 692 521 692 498.5 696 c 128,-1,114
 476 700 476 700 449 700 c 0,115,116
 423 700 423 700 400 696 c 128,-1,117
 377 692 377 692 360 685 c 128,-1,118
 343 678 343 678 333.5 668 c 128,-1,119
 324 658 324 658 324 648 c 0,100,101
EndSplineSet
EndChar

StartChar: uni0086
Encoding: 134 134 103
Width: 899
Flags: W
LayerCount: 2
Fore
SplineSet
244 85 m 0,0,1
 244 103 244 103 259.5 118 c 128,-1,2
 275 133 275 133 303 144.5 c 128,-1,3
 331 156 331 156 368.5 162.5 c 128,-1,4
 406 169 406 169 449 169 c 0,5,6
 493 169 493 169 530.5 162.5 c 128,-1,7
 568 156 568 156 595.5 144.5 c 128,-1,8
 623 133 623 133 639 118 c 128,-1,9
 655 103 655 103 655 85 c 0,10,11
 655 68 655 68 639 53 c 128,-1,12
 623 38 623 38 595.5 27 c 128,-1,13
 568 16 568 16 530.5 9.5 c 128,-1,14
 493 3 493 3 449 3 c 0,15,16
 406 3 406 3 368.5 9.5 c 128,-1,17
 331 16 331 16 303 27 c 128,-1,18
 275 38 275 38 259.5 53 c 128,-1,19
 244 68 244 68 244 85 c 0,0,1
324 85 m 256,20,21
 324 74 324 74 333.5 64.5 c 128,-1,22
 343 55 343 55 360 48.5 c 128,-1,23
 377 42 377 42 400 38 c 128,-1,24
 423 34 423 34 449 34 c 0,25,26
 476 34 476 34 498.5 38 c 128,-1,27
 521 42 521 42 538 48.5 c 128,-1,28
 555 55 555 55 564.5 64.5 c 128,-1,29
 574 74 574 74 574 85 c 256,30,31
 574 96 574 96 564.5 105.5 c 128,-1,32
 555 115 555 115 538 122 c 128,-1,33
 521 129 521 129 498.5 133 c 128,-1,34
 476 137 476 137 449 137 c 0,35,36
 423 137 423 137 400 133 c 128,-1,37
 377 129 377 129 360 122 c 128,-1,38
 343 115 343 115 333.5 105.5 c 128,-1,39
 324 96 324 96 324 85 c 256,20,21
244 272 m 0,40,41
 244 290 244 290 259.5 305 c 128,-1,42
 275 320 275 320 303 331.5 c 128,-1,43
 331 343 331 343 368.5 349 c 128,-1,44
 406 355 406 355 449 355 c 0,45,46
 493 355 493 355 530.5 349 c 128,-1,47
 568 343 568 343 595.5 331.5 c 128,-1,48
 623 320 623 320 639 305 c 128,-1,49
 655 290 655 290 655 272 c 0,50,51
 655 255 655 255 639 240 c 128,-1,52
 623 225 623 225 595.5 214 c 128,-1,53
 568 203 568 203 530.5 196 c 128,-1,54
 493 189 493 189 449 189 c 0,55,56
 406 189 406 189 368.5 196 c 128,-1,57
 331 203 331 203 303 214 c 128,-1,58
 275 225 275 225 259.5 240 c 128,-1,59
 244 255 244 255 244 272 c 0,40,41
244 461 m 256,60,61
 244 478 244 478 259.5 493.5 c 128,-1,62
 275 509 275 509 303 520 c 128,-1,63
 331 531 331 531 368.5 537.5 c 128,-1,64
 406 544 406 544 449 544 c 0,65,66
 493 544 493 544 530.5 537.5 c 128,-1,67
 568 531 568 531 595.5 520 c 128,-1,68
 623 509 623 509 639 493.5 c 128,-1,69
 655 478 655 478 655 461 c 256,70,71
 655 444 655 444 639 429 c 128,-1,72
 623 414 623 414 595.5 402.5 c 128,-1,73
 568 391 568 391 530.5 384.5 c 128,-1,74
 493 378 493 378 449 378 c 0,75,76
 406 378 406 378 368.5 384.5 c 128,-1,77
 331 391 331 391 303 402.5 c 128,-1,78
 275 414 275 414 259.5 429 c 128,-1,79
 244 444 244 444 244 461 c 256,60,61
244 648 m 256,80,81
 244 665 244 665 259.5 680.5 c 128,-1,82
 275 696 275 696 303 707 c 128,-1,83
 331 718 331 718 368.5 724.5 c 128,-1,84
 406 731 406 731 449 731 c 0,85,86
 493 731 493 731 530.5 724.5 c 128,-1,87
 568 718 568 718 595.5 707 c 128,-1,88
 623 696 623 696 639 680.5 c 128,-1,89
 655 665 655 665 655 648 c 256,90,91
 655 631 655 631 639 616 c 128,-1,92
 623 601 623 601 595.5 589.5 c 128,-1,93
 568 578 568 578 530.5 571.5 c 128,-1,94
 493 565 493 565 449 565 c 0,95,96
 406 565 406 565 368.5 571.5 c 128,-1,97
 331 578 331 578 303 589.5 c 128,-1,98
 275 601 275 601 259.5 616 c 128,-1,99
 244 631 244 631 244 648 c 256,80,81
324 648 m 0,100,101
 324 637 324 637 333.5 627.5 c 128,-1,102
 343 618 343 618 360 611 c 128,-1,103
 377 604 377 604 400 600 c 128,-1,104
 423 596 423 596 449 596 c 0,105,106
 476 596 476 596 498.5 600 c 128,-1,107
 521 604 521 604 538 611 c 128,-1,108
 555 618 555 618 564.5 627.5 c 128,-1,109
 574 637 574 637 574 648 c 0,110,111
 574 658 574 658 564.5 668 c 128,-1,112
 555 678 555 678 538 685 c 128,-1,113
 521 692 521 692 498.5 696 c 128,-1,114
 476 700 476 700 449 700 c 0,115,116
 423 700 423 700 400 696 c 128,-1,117
 377 692 377 692 360 685 c 128,-1,118
 343 678 343 678 333.5 668 c 128,-1,119
 324 658 324 658 324 648 c 0,100,101
EndSplineSet
EndChar

StartChar: uni0087
Encoding: 135 135 104
Width: 899
Flags: W
LayerCount: 2
Fore
SplineSet
244 85 m 0,0,1
 244 103 244 103 259.5 118 c 128,-1,2
 275 133 275 133 303 144.5 c 128,-1,3
 331 156 331 156 368.5 162.5 c 128,-1,4
 406 169 406 169 449 169 c 0,5,6
 493 169 493 169 530.5 162.5 c 128,-1,7
 568 156 568 156 595.5 144.5 c 128,-1,8
 623 133 623 133 639 118 c 128,-1,9
 655 103 655 103 655 85 c 0,10,11
 655 68 655 68 639 53 c 128,-1,12
 623 38 623 38 595.5 27 c 128,-1,13
 568 16 568 16 530.5 9.5 c 128,-1,14
 493 3 493 3 449 3 c 0,15,16
 406 3 406 3 368.5 9.5 c 128,-1,17
 331 16 331 16 303 27 c 128,-1,18
 275 38 275 38 259.5 53 c 128,-1,19
 244 68 244 68 244 85 c 0,0,1
244 272 m 0,20,21
 244 290 244 290 259.5 305 c 128,-1,22
 275 320 275 320 303 331.5 c 128,-1,23
 331 343 331 343 368.5 349 c 128,-1,24
 406 355 406 355 449 355 c 0,25,26
 493 355 493 355 530.5 349 c 128,-1,27
 568 343 568 343 595.5 331.5 c 128,-1,28
 623 320 623 320 639 305 c 128,-1,29
 655 290 655 290 655 272 c 0,30,31
 655 255 655 255 639 240 c 128,-1,32
 623 225 623 225 595.5 214 c 128,-1,33
 568 203 568 203 530.5 196 c 128,-1,34
 493 189 493 189 449 189 c 0,35,36
 406 189 406 189 368.5 196 c 128,-1,37
 331 203 331 203 303 214 c 128,-1,38
 275 225 275 225 259.5 240 c 128,-1,39
 244 255 244 255 244 272 c 0,20,21
244 461 m 256,40,41
 244 478 244 478 259.5 493.5 c 128,-1,42
 275 509 275 509 303 520 c 128,-1,43
 331 531 331 531 368.5 537.5 c 128,-1,44
 406 544 406 544 449 544 c 0,45,46
 493 544 493 544 530.5 537.5 c 128,-1,47
 568 531 568 531 595.5 520 c 128,-1,48
 623 509 623 509 639 493.5 c 128,-1,49
 655 478 655 478 655 461 c 256,50,51
 655 444 655 444 639 429 c 128,-1,52
 623 414 623 414 595.5 402.5 c 128,-1,53
 568 391 568 391 530.5 384.5 c 128,-1,54
 493 378 493 378 449 378 c 0,55,56
 406 378 406 378 368.5 384.5 c 128,-1,57
 331 391 331 391 303 402.5 c 128,-1,58
 275 414 275 414 259.5 429 c 128,-1,59
 244 444 244 444 244 461 c 256,40,41
244 648 m 256,60,61
 244 665 244 665 259.5 680.5 c 128,-1,62
 275 696 275 696 303 707 c 128,-1,63
 331 718 331 718 368.5 724.5 c 128,-1,64
 406 731 406 731 449 731 c 0,65,66
 493 731 493 731 530.5 724.5 c 128,-1,67
 568 718 568 718 595.5 707 c 128,-1,68
 623 696 623 696 639 680.5 c 128,-1,69
 655 665 655 665 655 648 c 256,70,71
 655 631 655 631 639 616 c 128,-1,72
 623 601 623 601 595.5 589.5 c 128,-1,73
 568 578 568 578 530.5 571.5 c 128,-1,74
 493 565 493 565 449 565 c 0,75,76
 406 565 406 565 368.5 571.5 c 128,-1,77
 331 578 331 578 303 589.5 c 128,-1,78
 275 601 275 601 259.5 616 c 128,-1,79
 244 631 244 631 244 648 c 256,60,61
324 648 m 0,80,81
 324 637 324 637 333.5 627.5 c 128,-1,82
 343 618 343 618 360 611 c 128,-1,83
 377 604 377 604 400 600 c 128,-1,84
 423 596 423 596 449 596 c 0,85,86
 476 596 476 596 498.5 600 c 128,-1,87
 521 604 521 604 538 611 c 128,-1,88
 555 618 555 618 564.5 627.5 c 128,-1,89
 574 637 574 637 574 648 c 0,90,91
 574 658 574 658 564.5 668 c 128,-1,92
 555 678 555 678 538 685 c 128,-1,93
 521 692 521 692 498.5 696 c 128,-1,94
 476 700 476 700 449 700 c 0,95,96
 423 700 423 700 400 696 c 128,-1,97
 377 692 377 692 360 685 c 128,-1,98
 343 678 343 678 333.5 668 c 128,-1,99
 324 658 324 658 324 648 c 0,80,81
EndSplineSet
EndChar

StartChar: uni0088
Encoding: 136 136 105
Width: 899
Flags: W
LayerCount: 2
Fore
SplineSet
244 85 m 0,0,1
 244 103 244 103 259.5 118 c 128,-1,2
 275 133 275 133 303 144.5 c 128,-1,3
 331 156 331 156 368.5 162.5 c 128,-1,4
 406 169 406 169 449 169 c 0,5,6
 493 169 493 169 530.5 162.5 c 128,-1,7
 568 156 568 156 595.5 144.5 c 128,-1,8
 623 133 623 133 639 118 c 128,-1,9
 655 103 655 103 655 85 c 0,10,11
 655 68 655 68 639 53 c 128,-1,12
 623 38 623 38 595.5 27 c 128,-1,13
 568 16 568 16 530.5 9.5 c 128,-1,14
 493 3 493 3 449 3 c 0,15,16
 406 3 406 3 368.5 9.5 c 128,-1,17
 331 16 331 16 303 27 c 128,-1,18
 275 38 275 38 259.5 53 c 128,-1,19
 244 68 244 68 244 85 c 0,0,1
324 85 m 256,20,21
 324 74 324 74 333.5 64.5 c 128,-1,22
 343 55 343 55 360 48.5 c 128,-1,23
 377 42 377 42 400 38 c 128,-1,24
 423 34 423 34 449 34 c 0,25,26
 476 34 476 34 498.5 38 c 128,-1,27
 521 42 521 42 538 48.5 c 128,-1,28
 555 55 555 55 564.5 64.5 c 128,-1,29
 574 74 574 74 574 85 c 256,30,31
 574 96 574 96 564.5 105.5 c 128,-1,32
 555 115 555 115 538 122 c 128,-1,33
 521 129 521 129 498.5 133 c 128,-1,34
 476 137 476 137 449 137 c 0,35,36
 423 137 423 137 400 133 c 128,-1,37
 377 129 377 129 360 122 c 128,-1,38
 343 115 343 115 333.5 105.5 c 128,-1,39
 324 96 324 96 324 85 c 256,20,21
244 272 m 0,40,41
 244 290 244 290 259.5 305 c 128,-1,42
 275 320 275 320 303 331.5 c 128,-1,43
 331 343 331 343 368.5 349 c 128,-1,44
 406 355 406 355 449 355 c 0,45,46
 493 355 493 355 530.5 349 c 128,-1,47
 568 343 568 343 595.5 331.5 c 128,-1,48
 623 320 623 320 639 305 c 128,-1,49
 655 290 655 290 655 272 c 0,50,51
 655 255 655 255 639 240 c 128,-1,52
 623 225 623 225 595.5 214 c 128,-1,53
 568 203 568 203 530.5 196 c 128,-1,54
 493 189 493 189 449 189 c 0,55,56
 406 189 406 189 368.5 196 c 128,-1,57
 331 203 331 203 303 214 c 128,-1,58
 275 225 275 225 259.5 240 c 128,-1,59
 244 255 244 255 244 272 c 0,40,41
324 272 m 256,60,61
 324 261 324 261 333.5 251.5 c 128,-1,62
 343 242 343 242 360 235 c 128,-1,63
 377 228 377 228 400 224 c 128,-1,64
 423 220 423 220 449 220 c 0,65,66
 476 220 476 220 498.5 224 c 128,-1,67
 521 228 521 228 538 235 c 128,-1,68
 555 242 555 242 564.5 251.5 c 128,-1,69
 574 261 574 261 574 272 c 256,70,71
 574 283 574 283 564.5 292.5 c 128,-1,72
 555 302 555 302 538 309 c 128,-1,73
 521 316 521 316 498.5 320 c 128,-1,74
 476 324 476 324 449 324 c 0,75,76
 423 324 423 324 400 320 c 128,-1,77
 377 316 377 316 360 309 c 128,-1,78
 343 302 343 302 333.5 292.5 c 128,-1,79
 324 283 324 283 324 272 c 256,60,61
244 461 m 256,80,81
 244 478 244 478 259.5 493.5 c 128,-1,82
 275 509 275 509 303 520 c 128,-1,83
 331 531 331 531 368.5 537.5 c 128,-1,84
 406 544 406 544 449 544 c 0,85,86
 493 544 493 544 530.5 537.5 c 128,-1,87
 568 531 568 531 595.5 520 c 128,-1,88
 623 509 623 509 639 493.5 c 128,-1,89
 655 478 655 478 655 461 c 256,90,91
 655 444 655 444 639 429 c 128,-1,92
 623 414 623 414 595.5 402.5 c 128,-1,93
 568 391 568 391 530.5 384.5 c 128,-1,94
 493 378 493 378 449 378 c 0,95,96
 406 378 406 378 368.5 384.5 c 128,-1,97
 331 391 331 391 303 402.5 c 128,-1,98
 275 414 275 414 259.5 429 c 128,-1,99
 244 444 244 444 244 461 c 256,80,81
324 461 m 256,100,101
 324 450 324 450 333.5 440.5 c 128,-1,102
 343 431 343 431 360 424 c 128,-1,103
 377 417 377 417 400 413 c 128,-1,104
 423 409 423 409 449 409 c 0,105,106
 476 409 476 409 498.5 413 c 128,-1,107
 521 417 521 417 538 424 c 128,-1,108
 555 431 555 431 564.5 440.5 c 128,-1,109
 574 450 574 450 574 461 c 256,110,111
 574 472 574 472 564.5 481.5 c 128,-1,112
 555 491 555 491 538 498 c 128,-1,113
 521 505 521 505 498.5 509 c 128,-1,114
 476 513 476 513 449 513 c 0,115,116
 423 513 423 513 400 509 c 128,-1,117
 377 505 377 505 360 498 c 128,-1,118
 343 491 343 491 333.5 481.5 c 128,-1,119
 324 472 324 472 324 461 c 256,100,101
244 648 m 256,120,121
 244 665 244 665 259.5 680.5 c 128,-1,122
 275 696 275 696 303 707 c 128,-1,123
 331 718 331 718 368.5 724.5 c 128,-1,124
 406 731 406 731 449 731 c 0,125,126
 493 731 493 731 530.5 724.5 c 128,-1,127
 568 718 568 718 595.5 707 c 128,-1,128
 623 696 623 696 639 680.5 c 128,-1,129
 655 665 655 665 655 648 c 256,130,131
 655 631 655 631 639 616 c 128,-1,132
 623 601 623 601 595.5 589.5 c 128,-1,133
 568 578 568 578 530.5 571.5 c 128,-1,134
 493 565 493 565 449 565 c 0,135,136
 406 565 406 565 368.5 571.5 c 128,-1,137
 331 578 331 578 303 589.5 c 128,-1,138
 275 601 275 601 259.5 616 c 128,-1,139
 244 631 244 631 244 648 c 256,120,121
EndSplineSet
EndChar

StartChar: uni0089
Encoding: 137 137 106
Width: 899
Flags: W
LayerCount: 2
Fore
SplineSet
244 85 m 0,0,1
 244 103 244 103 259.5 118 c 128,-1,2
 275 133 275 133 303 144.5 c 128,-1,3
 331 156 331 156 368.5 162.5 c 128,-1,4
 406 169 406 169 449 169 c 0,5,6
 493 169 493 169 530.5 162.5 c 128,-1,7
 568 156 568 156 595.5 144.5 c 128,-1,8
 623 133 623 133 639 118 c 128,-1,9
 655 103 655 103 655 85 c 0,10,11
 655 68 655 68 639 53 c 128,-1,12
 623 38 623 38 595.5 27 c 128,-1,13
 568 16 568 16 530.5 9.5 c 128,-1,14
 493 3 493 3 449 3 c 0,15,16
 406 3 406 3 368.5 9.5 c 128,-1,17
 331 16 331 16 303 27 c 128,-1,18
 275 38 275 38 259.5 53 c 128,-1,19
 244 68 244 68 244 85 c 0,0,1
244 272 m 0,20,21
 244 290 244 290 259.5 305 c 128,-1,22
 275 320 275 320 303 331.5 c 128,-1,23
 331 343 331 343 368.5 349 c 128,-1,24
 406 355 406 355 449 355 c 0,25,26
 493 355 493 355 530.5 349 c 128,-1,27
 568 343 568 343 595.5 331.5 c 128,-1,28
 623 320 623 320 639 305 c 128,-1,29
 655 290 655 290 655 272 c 0,30,31
 655 255 655 255 639 240 c 128,-1,32
 623 225 623 225 595.5 214 c 128,-1,33
 568 203 568 203 530.5 196 c 128,-1,34
 493 189 493 189 449 189 c 0,35,36
 406 189 406 189 368.5 196 c 128,-1,37
 331 203 331 203 303 214 c 128,-1,38
 275 225 275 225 259.5 240 c 128,-1,39
 244 255 244 255 244 272 c 0,20,21
324 272 m 256,40,41
 324 261 324 261 333.5 251.5 c 128,-1,42
 343 242 343 242 360 235 c 128,-1,43
 377 228 377 228 400 224 c 128,-1,44
 423 220 423 220 449 220 c 0,45,46
 476 220 476 220 498.5 224 c 128,-1,47
 521 228 521 228 538 235 c 128,-1,48
 555 242 555 242 564.5 251.5 c 128,-1,49
 574 261 574 261 574 272 c 256,50,51
 574 283 574 283 564.5 292.5 c 128,-1,52
 555 302 555 302 538 309 c 128,-1,53
 521 316 521 316 498.5 320 c 128,-1,54
 476 324 476 324 449 324 c 0,55,56
 423 324 423 324 400 320 c 128,-1,57
 377 316 377 316 360 309 c 128,-1,58
 343 302 343 302 333.5 292.5 c 128,-1,59
 324 283 324 283 324 272 c 256,40,41
244 461 m 256,60,61
 244 478 244 478 259.5 493.5 c 128,-1,62
 275 509 275 509 303 520 c 128,-1,63
 331 531 331 531 368.5 537.5 c 128,-1,64
 406 544 406 544 449 544 c 0,65,66
 493 544 493 544 530.5 537.5 c 128,-1,67
 568 531 568 531 595.5 520 c 128,-1,68
 623 509 623 509 639 493.5 c 128,-1,69
 655 478 655 478 655 461 c 256,70,71
 655 444 655 444 639 429 c 128,-1,72
 623 414 623 414 595.5 402.5 c 128,-1,73
 568 391 568 391 530.5 384.5 c 128,-1,74
 493 378 493 378 449 378 c 0,75,76
 406 378 406 378 368.5 384.5 c 128,-1,77
 331 391 331 391 303 402.5 c 128,-1,78
 275 414 275 414 259.5 429 c 128,-1,79
 244 444 244 444 244 461 c 256,60,61
324 461 m 256,80,81
 324 450 324 450 333.5 440.5 c 128,-1,82
 343 431 343 431 360 424 c 128,-1,83
 377 417 377 417 400 413 c 128,-1,84
 423 409 423 409 449 409 c 0,85,86
 476 409 476 409 498.5 413 c 128,-1,87
 521 417 521 417 538 424 c 128,-1,88
 555 431 555 431 564.5 440.5 c 128,-1,89
 574 450 574 450 574 461 c 256,90,91
 574 472 574 472 564.5 481.5 c 128,-1,92
 555 491 555 491 538 498 c 128,-1,93
 521 505 521 505 498.5 509 c 128,-1,94
 476 513 476 513 449 513 c 0,95,96
 423 513 423 513 400 509 c 128,-1,97
 377 505 377 505 360 498 c 128,-1,98
 343 491 343 491 333.5 481.5 c 128,-1,99
 324 472 324 472 324 461 c 256,80,81
244 648 m 256,100,101
 244 665 244 665 259.5 680.5 c 128,-1,102
 275 696 275 696 303 707 c 128,-1,103
 331 718 331 718 368.5 724.5 c 128,-1,104
 406 731 406 731 449 731 c 0,105,106
 493 731 493 731 530.5 724.5 c 128,-1,107
 568 718 568 718 595.5 707 c 128,-1,108
 623 696 623 696 639 680.5 c 128,-1,109
 655 665 655 665 655 648 c 256,110,111
 655 631 655 631 639 616 c 128,-1,112
 623 601 623 601 595.5 589.5 c 128,-1,113
 568 578 568 578 530.5 571.5 c 128,-1,114
 493 565 493 565 449 565 c 0,115,116
 406 565 406 565 368.5 571.5 c 128,-1,117
 331 578 331 578 303 589.5 c 128,-1,118
 275 601 275 601 259.5 616 c 128,-1,119
 244 631 244 631 244 648 c 256,100,101
EndSplineSet
EndChar

StartChar: uni008A
Encoding: 138 138 107
Width: 899
Flags: W
LayerCount: 2
Fore
SplineSet
244 85 m 0,0,1
 244 103 244 103 259.5 118 c 128,-1,2
 275 133 275 133 303 144.5 c 128,-1,3
 331 156 331 156 368.5 162.5 c 128,-1,4
 406 169 406 169 449 169 c 0,5,6
 493 169 493 169 530.5 162.5 c 128,-1,7
 568 156 568 156 595.5 144.5 c 128,-1,8
 623 133 623 133 639 118 c 128,-1,9
 655 103 655 103 655 85 c 0,10,11
 655 68 655 68 639 53 c 128,-1,12
 623 38 623 38 595.5 27 c 128,-1,13
 568 16 568 16 530.5 9.5 c 128,-1,14
 493 3 493 3 449 3 c 0,15,16
 406 3 406 3 368.5 9.5 c 128,-1,17
 331 16 331 16 303 27 c 128,-1,18
 275 38 275 38 259.5 53 c 128,-1,19
 244 68 244 68 244 85 c 0,0,1
324 85 m 256,20,21
 324 74 324 74 333.5 64.5 c 128,-1,22
 343 55 343 55 360 48.5 c 128,-1,23
 377 42 377 42 400 38 c 128,-1,24
 423 34 423 34 449 34 c 0,25,26
 476 34 476 34 498.5 38 c 128,-1,27
 521 42 521 42 538 48.5 c 128,-1,28
 555 55 555 55 564.5 64.5 c 128,-1,29
 574 74 574 74 574 85 c 256,30,31
 574 96 574 96 564.5 105.5 c 128,-1,32
 555 115 555 115 538 122 c 128,-1,33
 521 129 521 129 498.5 133 c 128,-1,34
 476 137 476 137 449 137 c 0,35,36
 423 137 423 137 400 133 c 128,-1,37
 377 129 377 129 360 122 c 128,-1,38
 343 115 343 115 333.5 105.5 c 128,-1,39
 324 96 324 96 324 85 c 256,20,21
244 272 m 0,40,41
 244 290 244 290 259.5 305 c 128,-1,42
 275 320 275 320 303 331.5 c 128,-1,43
 331 343 331 343 368.5 349 c 128,-1,44
 406 355 406 355 449 355 c 0,45,46
 493 355 493 355 530.5 349 c 128,-1,47
 568 343 568 343 595.5 331.5 c 128,-1,48
 623 320 623 320 639 305 c 128,-1,49
 655 290 655 290 655 272 c 0,50,51
 655 255 655 255 639 240 c 128,-1,52
 623 225 623 225 595.5 214 c 128,-1,53
 568 203 568 203 530.5 196 c 128,-1,54
 493 189 493 189 449 189 c 0,55,56
 406 189 406 189 368.5 196 c 128,-1,57
 331 203 331 203 303 214 c 128,-1,58
 275 225 275 225 259.5 240 c 128,-1,59
 244 255 244 255 244 272 c 0,40,41
244 461 m 256,60,61
 244 478 244 478 259.5 493.5 c 128,-1,62
 275 509 275 509 303 520 c 128,-1,63
 331 531 331 531 368.5 537.5 c 128,-1,64
 406 544 406 544 449 544 c 0,65,66
 493 544 493 544 530.5 537.5 c 128,-1,67
 568 531 568 531 595.5 520 c 128,-1,68
 623 509 623 509 639 493.5 c 128,-1,69
 655 478 655 478 655 461 c 256,70,71
 655 444 655 444 639 429 c 128,-1,72
 623 414 623 414 595.5 402.5 c 128,-1,73
 568 391 568 391 530.5 384.5 c 128,-1,74
 493 378 493 378 449 378 c 0,75,76
 406 378 406 378 368.5 384.5 c 128,-1,77
 331 391 331 391 303 402.5 c 128,-1,78
 275 414 275 414 259.5 429 c 128,-1,79
 244 444 244 444 244 461 c 256,60,61
324 461 m 256,80,81
 324 450 324 450 333.5 440.5 c 128,-1,82
 343 431 343 431 360 424 c 128,-1,83
 377 417 377 417 400 413 c 128,-1,84
 423 409 423 409 449 409 c 0,85,86
 476 409 476 409 498.5 413 c 128,-1,87
 521 417 521 417 538 424 c 128,-1,88
 555 431 555 431 564.5 440.5 c 128,-1,89
 574 450 574 450 574 461 c 256,90,91
 574 472 574 472 564.5 481.5 c 128,-1,92
 555 491 555 491 538 498 c 128,-1,93
 521 505 521 505 498.5 509 c 128,-1,94
 476 513 476 513 449 513 c 0,95,96
 423 513 423 513 400 509 c 128,-1,97
 377 505 377 505 360 498 c 128,-1,98
 343 491 343 491 333.5 481.5 c 128,-1,99
 324 472 324 472 324 461 c 256,80,81
244 648 m 256,100,101
 244 665 244 665 259.5 680.5 c 128,-1,102
 275 696 275 696 303 707 c 128,-1,103
 331 718 331 718 368.5 724.5 c 128,-1,104
 406 731 406 731 449 731 c 0,105,106
 493 731 493 731 530.5 724.5 c 128,-1,107
 568 718 568 718 595.5 707 c 128,-1,108
 623 696 623 696 639 680.5 c 128,-1,109
 655 665 655 665 655 648 c 256,110,111
 655 631 655 631 639 616 c 128,-1,112
 623 601 623 601 595.5 589.5 c 128,-1,113
 568 578 568 578 530.5 571.5 c 128,-1,114
 493 565 493 565 449 565 c 0,115,116
 406 565 406 565 368.5 571.5 c 128,-1,117
 331 578 331 578 303 589.5 c 128,-1,118
 275 601 275 601 259.5 616 c 128,-1,119
 244 631 244 631 244 648 c 256,100,101
EndSplineSet
EndChar

StartChar: uni008B
Encoding: 139 139 108
Width: 899
Flags: W
LayerCount: 2
Fore
SplineSet
244 85 m 0,0,1
 244 103 244 103 259.5 118 c 128,-1,2
 275 133 275 133 303 144.5 c 128,-1,3
 331 156 331 156 368.5 162.5 c 128,-1,4
 406 169 406 169 449 169 c 0,5,6
 493 169 493 169 530.5 162.5 c 128,-1,7
 568 156 568 156 595.5 144.5 c 128,-1,8
 623 133 623 133 639 118 c 128,-1,9
 655 103 655 103 655 85 c 0,10,11
 655 68 655 68 639 53 c 128,-1,12
 623 38 623 38 595.5 27 c 128,-1,13
 568 16 568 16 530.5 9.5 c 128,-1,14
 493 3 493 3 449 3 c 0,15,16
 406 3 406 3 368.5 9.5 c 128,-1,17
 331 16 331 16 303 27 c 128,-1,18
 275 38 275 38 259.5 53 c 128,-1,19
 244 68 244 68 244 85 c 0,0,1
244 272 m 0,20,21
 244 290 244 290 259.5 305 c 128,-1,22
 275 320 275 320 303 331.5 c 128,-1,23
 331 343 331 343 368.5 349 c 128,-1,24
 406 355 406 355 449 355 c 0,25,26
 493 355 493 355 530.5 349 c 128,-1,27
 568 343 568 343 595.5 331.5 c 128,-1,28
 623 320 623 320 639 305 c 128,-1,29
 655 290 655 290 655 272 c 0,30,31
 655 255 655 255 639 240 c 128,-1,32
 623 225 623 225 595.5 214 c 128,-1,33
 568 203 568 203 530.5 196 c 128,-1,34
 493 189 493 189 449 189 c 0,35,36
 406 189 406 189 368.5 196 c 128,-1,37
 331 203 331 203 303 214 c 128,-1,38
 275 225 275 225 259.5 240 c 128,-1,39
 244 255 244 255 244 272 c 0,20,21
244 461 m 256,40,41
 244 478 244 478 259.5 493.5 c 128,-1,42
 275 509 275 509 303 520 c 128,-1,43
 331 531 331 531 368.5 537.5 c 128,-1,44
 406 544 406 544 449 544 c 0,45,46
 493 544 493 544 530.5 537.5 c 128,-1,47
 568 531 568 531 595.5 520 c 128,-1,48
 623 509 623 509 639 493.5 c 128,-1,49
 655 478 655 478 655 461 c 256,50,51
 655 444 655 444 639 429 c 128,-1,52
 623 414 623 414 595.5 402.5 c 128,-1,53
 568 391 568 391 530.5 384.5 c 128,-1,54
 493 378 493 378 449 378 c 0,55,56
 406 378 406 378 368.5 384.5 c 128,-1,57
 331 391 331 391 303 402.5 c 128,-1,58
 275 414 275 414 259.5 429 c 128,-1,59
 244 444 244 444 244 461 c 256,40,41
324 461 m 256,60,61
 324 450 324 450 333.5 440.5 c 128,-1,62
 343 431 343 431 360 424 c 128,-1,63
 377 417 377 417 400 413 c 128,-1,64
 423 409 423 409 449 409 c 0,65,66
 476 409 476 409 498.5 413 c 128,-1,67
 521 417 521 417 538 424 c 128,-1,68
 555 431 555 431 564.5 440.5 c 128,-1,69
 574 450 574 450 574 461 c 256,70,71
 574 472 574 472 564.5 481.5 c 128,-1,72
 555 491 555 491 538 498 c 128,-1,73
 521 505 521 505 498.5 509 c 128,-1,74
 476 513 476 513 449 513 c 0,75,76
 423 513 423 513 400 509 c 128,-1,77
 377 505 377 505 360 498 c 128,-1,78
 343 491 343 491 333.5 481.5 c 128,-1,79
 324 472 324 472 324 461 c 256,60,61
244 648 m 256,80,81
 244 665 244 665 259.5 680.5 c 128,-1,82
 275 696 275 696 303 707 c 128,-1,83
 331 718 331 718 368.5 724.5 c 128,-1,84
 406 731 406 731 449 731 c 0,85,86
 493 731 493 731 530.5 724.5 c 128,-1,87
 568 718 568 718 595.5 707 c 128,-1,88
 623 696 623 696 639 680.5 c 128,-1,89
 655 665 655 665 655 648 c 256,90,91
 655 631 655 631 639 616 c 128,-1,92
 623 601 623 601 595.5 589.5 c 128,-1,93
 568 578 568 578 530.5 571.5 c 128,-1,94
 493 565 493 565 449 565 c 0,95,96
 406 565 406 565 368.5 571.5 c 128,-1,97
 331 578 331 578 303 589.5 c 128,-1,98
 275 601 275 601 259.5 616 c 128,-1,99
 244 631 244 631 244 648 c 256,80,81
EndSplineSet
EndChar

StartChar: uni008C
Encoding: 140 140 109
Width: 899
Flags: W
LayerCount: 2
Fore
SplineSet
244 85 m 0,0,1
 244 103 244 103 259.5 118 c 128,-1,2
 275 133 275 133 303 144.5 c 128,-1,3
 331 156 331 156 368.5 162.5 c 128,-1,4
 406 169 406 169 449 169 c 0,5,6
 493 169 493 169 530.5 162.5 c 128,-1,7
 568 156 568 156 595.5 144.5 c 128,-1,8
 623 133 623 133 639 118 c 128,-1,9
 655 103 655 103 655 85 c 0,10,11
 655 68 655 68 639 53 c 128,-1,12
 623 38 623 38 595.5 27 c 128,-1,13
 568 16 568 16 530.5 9.5 c 128,-1,14
 493 3 493 3 449 3 c 0,15,16
 406 3 406 3 368.5 9.5 c 128,-1,17
 331 16 331 16 303 27 c 128,-1,18
 275 38 275 38 259.5 53 c 128,-1,19
 244 68 244 68 244 85 c 0,0,1
324 85 m 256,20,21
 324 74 324 74 333.5 64.5 c 128,-1,22
 343 55 343 55 360 48.5 c 128,-1,23
 377 42 377 42 400 38 c 128,-1,24
 423 34 423 34 449 34 c 0,25,26
 476 34 476 34 498.5 38 c 128,-1,27
 521 42 521 42 538 48.5 c 128,-1,28
 555 55 555 55 564.5 64.5 c 128,-1,29
 574 74 574 74 574 85 c 256,30,31
 574 96 574 96 564.5 105.5 c 128,-1,32
 555 115 555 115 538 122 c 128,-1,33
 521 129 521 129 498.5 133 c 128,-1,34
 476 137 476 137 449 137 c 0,35,36
 423 137 423 137 400 133 c 128,-1,37
 377 129 377 129 360 122 c 128,-1,38
 343 115 343 115 333.5 105.5 c 128,-1,39
 324 96 324 96 324 85 c 256,20,21
244 272 m 0,40,41
 244 290 244 290 259.5 305 c 128,-1,42
 275 320 275 320 303 331.5 c 128,-1,43
 331 343 331 343 368.5 349 c 128,-1,44
 406 355 406 355 449 355 c 0,45,46
 493 355 493 355 530.5 349 c 128,-1,47
 568 343 568 343 595.5 331.5 c 128,-1,48
 623 320 623 320 639 305 c 128,-1,49
 655 290 655 290 655 272 c 0,50,51
 655 255 655 255 639 240 c 128,-1,52
 623 225 623 225 595.5 214 c 128,-1,53
 568 203 568 203 530.5 196 c 128,-1,54
 493 189 493 189 449 189 c 0,55,56
 406 189 406 189 368.5 196 c 128,-1,57
 331 203 331 203 303 214 c 128,-1,58
 275 225 275 225 259.5 240 c 128,-1,59
 244 255 244 255 244 272 c 0,40,41
324 272 m 256,60,61
 324 261 324 261 333.5 251.5 c 128,-1,62
 343 242 343 242 360 235 c 128,-1,63
 377 228 377 228 400 224 c 128,-1,64
 423 220 423 220 449 220 c 0,65,66
 476 220 476 220 498.5 224 c 128,-1,67
 521 228 521 228 538 235 c 128,-1,68
 555 242 555 242 564.5 251.5 c 128,-1,69
 574 261 574 261 574 272 c 256,70,71
 574 283 574 283 564.5 292.5 c 128,-1,72
 555 302 555 302 538 309 c 128,-1,73
 521 316 521 316 498.5 320 c 128,-1,74
 476 324 476 324 449 324 c 0,75,76
 423 324 423 324 400 320 c 128,-1,77
 377 316 377 316 360 309 c 128,-1,78
 343 302 343 302 333.5 292.5 c 128,-1,79
 324 283 324 283 324 272 c 256,60,61
244 461 m 256,80,81
 244 478 244 478 259.5 493.5 c 128,-1,82
 275 509 275 509 303 520 c 128,-1,83
 331 531 331 531 368.5 537.5 c 128,-1,84
 406 544 406 544 449 544 c 0,85,86
 493 544 493 544 530.5 537.5 c 128,-1,87
 568 531 568 531 595.5 520 c 128,-1,88
 623 509 623 509 639 493.5 c 128,-1,89
 655 478 655 478 655 461 c 256,90,91
 655 444 655 444 639 429 c 128,-1,92
 623 414 623 414 595.5 402.5 c 128,-1,93
 568 391 568 391 530.5 384.5 c 128,-1,94
 493 378 493 378 449 378 c 0,95,96
 406 378 406 378 368.5 384.5 c 128,-1,97
 331 391 331 391 303 402.5 c 128,-1,98
 275 414 275 414 259.5 429 c 128,-1,99
 244 444 244 444 244 461 c 256,80,81
244 648 m 256,100,101
 244 665 244 665 259.5 680.5 c 128,-1,102
 275 696 275 696 303 707 c 128,-1,103
 331 718 331 718 368.5 724.5 c 128,-1,104
 406 731 406 731 449 731 c 0,105,106
 493 731 493 731 530.5 724.5 c 128,-1,107
 568 718 568 718 595.5 707 c 128,-1,108
 623 696 623 696 639 680.5 c 128,-1,109
 655 665 655 665 655 648 c 256,110,111
 655 631 655 631 639 616 c 128,-1,112
 623 601 623 601 595.5 589.5 c 128,-1,113
 568 578 568 578 530.5 571.5 c 128,-1,114
 493 565 493 565 449 565 c 0,115,116
 406 565 406 565 368.5 571.5 c 128,-1,117
 331 578 331 578 303 589.5 c 128,-1,118
 275 601 275 601 259.5 616 c 128,-1,119
 244 631 244 631 244 648 c 256,100,101
EndSplineSet
EndChar

StartChar: uni008D
Encoding: 141 141 110
Width: 899
Flags: W
LayerCount: 2
Fore
SplineSet
244 85 m 0,0,1
 244 103 244 103 259.5 118 c 128,-1,2
 275 133 275 133 303 144.5 c 128,-1,3
 331 156 331 156 368.5 162.5 c 128,-1,4
 406 169 406 169 449 169 c 0,5,6
 493 169 493 169 530.5 162.5 c 128,-1,7
 568 156 568 156 595.5 144.5 c 128,-1,8
 623 133 623 133 639 118 c 128,-1,9
 655 103 655 103 655 85 c 0,10,11
 655 68 655 68 639 53 c 128,-1,12
 623 38 623 38 595.5 27 c 128,-1,13
 568 16 568 16 530.5 9.5 c 128,-1,14
 493 3 493 3 449 3 c 0,15,16
 406 3 406 3 368.5 9.5 c 128,-1,17
 331 16 331 16 303 27 c 128,-1,18
 275 38 275 38 259.5 53 c 128,-1,19
 244 68 244 68 244 85 c 0,0,1
244 272 m 0,20,21
 244 290 244 290 259.5 305 c 128,-1,22
 275 320 275 320 303 331.5 c 128,-1,23
 331 343 331 343 368.5 349 c 128,-1,24
 406 355 406 355 449 355 c 0,25,26
 493 355 493 355 530.5 349 c 128,-1,27
 568 343 568 343 595.5 331.5 c 128,-1,28
 623 320 623 320 639 305 c 128,-1,29
 655 290 655 290 655 272 c 0,30,31
 655 255 655 255 639 240 c 128,-1,32
 623 225 623 225 595.5 214 c 128,-1,33
 568 203 568 203 530.5 196 c 128,-1,34
 493 189 493 189 449 189 c 0,35,36
 406 189 406 189 368.5 196 c 128,-1,37
 331 203 331 203 303 214 c 128,-1,38
 275 225 275 225 259.5 240 c 128,-1,39
 244 255 244 255 244 272 c 0,20,21
324 272 m 256,40,41
 324 261 324 261 333.5 251.5 c 128,-1,42
 343 242 343 242 360 235 c 128,-1,43
 377 228 377 228 400 224 c 128,-1,44
 423 220 423 220 449 220 c 0,45,46
 476 220 476 220 498.5 224 c 128,-1,47
 521 228 521 228 538 235 c 128,-1,48
 555 242 555 242 564.5 251.5 c 128,-1,49
 574 261 574 261 574 272 c 256,50,51
 574 283 574 283 564.5 292.5 c 128,-1,52
 555 302 555 302 538 309 c 128,-1,53
 521 316 521 316 498.5 320 c 128,-1,54
 476 324 476 324 449 324 c 0,55,56
 423 324 423 324 400 320 c 128,-1,57
 377 316 377 316 360 309 c 128,-1,58
 343 302 343 302 333.5 292.5 c 128,-1,59
 324 283 324 283 324 272 c 256,40,41
244 461 m 256,60,61
 244 478 244 478 259.5 493.5 c 128,-1,62
 275 509 275 509 303 520 c 128,-1,63
 331 531 331 531 368.5 537.5 c 128,-1,64
 406 544 406 544 449 544 c 0,65,66
 493 544 493 544 530.5 537.5 c 128,-1,67
 568 531 568 531 595.5 520 c 128,-1,68
 623 509 623 509 639 493.5 c 128,-1,69
 655 478 655 478 655 461 c 256,70,71
 655 444 655 444 639 429 c 128,-1,72
 623 414 623 414 595.5 402.5 c 128,-1,73
 568 391 568 391 530.5 384.5 c 128,-1,74
 493 378 493 378 449 378 c 0,75,76
 406 378 406 378 368.5 384.5 c 128,-1,77
 331 391 331 391 303 402.5 c 128,-1,78
 275 414 275 414 259.5 429 c 128,-1,79
 244 444 244 444 244 461 c 256,60,61
244 648 m 256,80,81
 244 665 244 665 259.5 680.5 c 128,-1,82
 275 696 275 696 303 707 c 128,-1,83
 331 718 331 718 368.5 724.5 c 128,-1,84
 406 731 406 731 449 731 c 0,85,86
 493 731 493 731 530.5 724.5 c 128,-1,87
 568 718 568 718 595.5 707 c 128,-1,88
 623 696 623 696 639 680.5 c 128,-1,89
 655 665 655 665 655 648 c 256,90,91
 655 631 655 631 639 616 c 128,-1,92
 623 601 623 601 595.5 589.5 c 128,-1,93
 568 578 568 578 530.5 571.5 c 128,-1,94
 493 565 493 565 449 565 c 0,95,96
 406 565 406 565 368.5 571.5 c 128,-1,97
 331 578 331 578 303 589.5 c 128,-1,98
 275 601 275 601 259.5 616 c 128,-1,99
 244 631 244 631 244 648 c 256,80,81
EndSplineSet
EndChar

StartChar: uni008E
Encoding: 142 142 111
Width: 899
Flags: W
LayerCount: 2
Fore
SplineSet
244 85 m 0,0,1
 244 103 244 103 259.5 118 c 128,-1,2
 275 133 275 133 303 144.5 c 128,-1,3
 331 156 331 156 368.5 162.5 c 128,-1,4
 406 169 406 169 449 169 c 0,5,6
 493 169 493 169 530.5 162.5 c 128,-1,7
 568 156 568 156 595.5 144.5 c 128,-1,8
 623 133 623 133 639 118 c 128,-1,9
 655 103 655 103 655 85 c 0,10,11
 655 68 655 68 639 53 c 128,-1,12
 623 38 623 38 595.5 27 c 128,-1,13
 568 16 568 16 530.5 9.5 c 128,-1,14
 493 3 493 3 449 3 c 0,15,16
 406 3 406 3 368.5 9.5 c 128,-1,17
 331 16 331 16 303 27 c 128,-1,18
 275 38 275 38 259.5 53 c 128,-1,19
 244 68 244 68 244 85 c 0,0,1
324 85 m 256,20,21
 324 74 324 74 333.5 64.5 c 128,-1,22
 343 55 343 55 360 48.5 c 128,-1,23
 377 42 377 42 400 38 c 128,-1,24
 423 34 423 34 449 34 c 0,25,26
 476 34 476 34 498.5 38 c 128,-1,27
 521 42 521 42 538 48.5 c 128,-1,28
 555 55 555 55 564.5 64.5 c 128,-1,29
 574 74 574 74 574 85 c 256,30,31
 574 96 574 96 564.5 105.5 c 128,-1,32
 555 115 555 115 538 122 c 128,-1,33
 521 129 521 129 498.5 133 c 128,-1,34
 476 137 476 137 449 137 c 0,35,36
 423 137 423 137 400 133 c 128,-1,37
 377 129 377 129 360 122 c 128,-1,38
 343 115 343 115 333.5 105.5 c 128,-1,39
 324 96 324 96 324 85 c 256,20,21
244 272 m 0,40,41
 244 290 244 290 259.5 305 c 128,-1,42
 275 320 275 320 303 331.5 c 128,-1,43
 331 343 331 343 368.5 349 c 128,-1,44
 406 355 406 355 449 355 c 0,45,46
 493 355 493 355 530.5 349 c 128,-1,47
 568 343 568 343 595.5 331.5 c 128,-1,48
 623 320 623 320 639 305 c 128,-1,49
 655 290 655 290 655 272 c 0,50,51
 655 255 655 255 639 240 c 128,-1,52
 623 225 623 225 595.5 214 c 128,-1,53
 568 203 568 203 530.5 196 c 128,-1,54
 493 189 493 189 449 189 c 0,55,56
 406 189 406 189 368.5 196 c 128,-1,57
 331 203 331 203 303 214 c 128,-1,58
 275 225 275 225 259.5 240 c 128,-1,59
 244 255 244 255 244 272 c 0,40,41
244 461 m 256,60,61
 244 478 244 478 259.5 493.5 c 128,-1,62
 275 509 275 509 303 520 c 128,-1,63
 331 531 331 531 368.5 537.5 c 128,-1,64
 406 544 406 544 449 544 c 0,65,66
 493 544 493 544 530.5 537.5 c 128,-1,67
 568 531 568 531 595.5 520 c 128,-1,68
 623 509 623 509 639 493.5 c 128,-1,69
 655 478 655 478 655 461 c 256,70,71
 655 444 655 444 639 429 c 128,-1,72
 623 414 623 414 595.5 402.5 c 128,-1,73
 568 391 568 391 530.5 384.5 c 128,-1,74
 493 378 493 378 449 378 c 0,75,76
 406 378 406 378 368.5 384.5 c 128,-1,77
 331 391 331 391 303 402.5 c 128,-1,78
 275 414 275 414 259.5 429 c 128,-1,79
 244 444 244 444 244 461 c 256,60,61
244 648 m 256,80,81
 244 665 244 665 259.5 680.5 c 128,-1,82
 275 696 275 696 303 707 c 128,-1,83
 331 718 331 718 368.5 724.5 c 128,-1,84
 406 731 406 731 449 731 c 0,85,86
 493 731 493 731 530.5 724.5 c 128,-1,87
 568 718 568 718 595.5 707 c 128,-1,88
 623 696 623 696 639 680.5 c 128,-1,89
 655 665 655 665 655 648 c 256,90,91
 655 631 655 631 639 616 c 128,-1,92
 623 601 623 601 595.5 589.5 c 128,-1,93
 568 578 568 578 530.5 571.5 c 128,-1,94
 493 565 493 565 449 565 c 0,95,96
 406 565 406 565 368.5 571.5 c 128,-1,97
 331 578 331 578 303 589.5 c 128,-1,98
 275 601 275 601 259.5 616 c 128,-1,99
 244 631 244 631 244 648 c 256,80,81
EndSplineSet
EndChar

StartChar: uni008F
Encoding: 143 143 112
Width: 899
Flags: W
LayerCount: 2
Fore
SplineSet
244 85 m 0,0,1
 244 103 244 103 259.5 118 c 128,-1,2
 275 133 275 133 303 144.5 c 128,-1,3
 331 156 331 156 368.5 162.5 c 128,-1,4
 406 169 406 169 449 169 c 0,5,6
 493 169 493 169 530.5 162.5 c 128,-1,7
 568 156 568 156 595.5 144.5 c 128,-1,8
 623 133 623 133 639 118 c 128,-1,9
 655 103 655 103 655 85 c 0,10,11
 655 68 655 68 639 53 c 128,-1,12
 623 38 623 38 595.5 27 c 128,-1,13
 568 16 568 16 530.5 9.5 c 128,-1,14
 493 3 493 3 449 3 c 0,15,16
 406 3 406 3 368.5 9.5 c 128,-1,17
 331 16 331 16 303 27 c 128,-1,18
 275 38 275 38 259.5 53 c 128,-1,19
 244 68 244 68 244 85 c 0,0,1
244 272 m 0,20,21
 244 290 244 290 259.5 305 c 128,-1,22
 275 320 275 320 303 331.5 c 128,-1,23
 331 343 331 343 368.5 349 c 128,-1,24
 406 355 406 355 449 355 c 0,25,26
 493 355 493 355 530.5 349 c 128,-1,27
 568 343 568 343 595.5 331.5 c 128,-1,28
 623 320 623 320 639 305 c 128,-1,29
 655 290 655 290 655 272 c 0,30,31
 655 255 655 255 639 240 c 128,-1,32
 623 225 623 225 595.5 214 c 128,-1,33
 568 203 568 203 530.5 196 c 128,-1,34
 493 189 493 189 449 189 c 0,35,36
 406 189 406 189 368.5 196 c 128,-1,37
 331 203 331 203 303 214 c 128,-1,38
 275 225 275 225 259.5 240 c 128,-1,39
 244 255 244 255 244 272 c 0,20,21
244 461 m 256,40,41
 244 478 244 478 259.5 493.5 c 128,-1,42
 275 509 275 509 303 520 c 128,-1,43
 331 531 331 531 368.5 537.5 c 128,-1,44
 406 544 406 544 449 544 c 0,45,46
 493 544 493 544 530.5 537.5 c 128,-1,47
 568 531 568 531 595.5 520 c 128,-1,48
 623 509 623 509 639 493.5 c 128,-1,49
 655 478 655 478 655 461 c 256,50,51
 655 444 655 444 639 429 c 128,-1,52
 623 414 623 414 595.5 402.5 c 128,-1,53
 568 391 568 391 530.5 384.5 c 128,-1,54
 493 378 493 378 449 378 c 0,55,56
 406 378 406 378 368.5 384.5 c 128,-1,57
 331 391 331 391 303 402.5 c 128,-1,58
 275 414 275 414 259.5 429 c 128,-1,59
 244 444 244 444 244 461 c 256,40,41
244 648 m 256,60,61
 244 665 244 665 259.5 680.5 c 128,-1,62
 275 696 275 696 303 707 c 128,-1,63
 331 718 331 718 368.5 724.5 c 128,-1,64
 406 731 406 731 449 731 c 0,65,66
 493 731 493 731 530.5 724.5 c 128,-1,67
 568 718 568 718 595.5 707 c 128,-1,68
 623 696 623 696 639 680.5 c 128,-1,69
 655 665 655 665 655 648 c 256,70,71
 655 631 655 631 639 616 c 128,-1,72
 623 601 623 601 595.5 589.5 c 128,-1,73
 568 578 568 578 530.5 571.5 c 128,-1,74
 493 565 493 565 449 565 c 0,75,76
 406 565 406 565 368.5 571.5 c 128,-1,77
 331 578 331 578 303 589.5 c 128,-1,78
 275 601 275 601 259.5 616 c 128,-1,79
 244 631 244 631 244 648 c 256,60,61
EndSplineSet
EndChar

StartChar: uni0090
Encoding: 144 144 113
Width: 899
Flags: W
LayerCount: 2
Fore
SplineSet
448.5 -10 m 0,0,1
 333.5 -10 333.5 -10 277.5 87.5 c 128,-1,2
 221.5 185 221.5 185 221.5 358 c 0,3,4
 221.5 474 221.5 474 244 556 c 128,-1,5
 266.5 638 266.5 638 316.5 681.5 c 128,-1,6
 366.5 725 366.5 725 448.5 725 c 0,7,8
 564.5 725 564.5 725 621 628.5 c 128,-1,9
 677.5 532 677.5 532 677.5 358 c 0,10,11
 677.5 271 677.5 271 665 203 c 128,-1,12
 652.5 135 652.5 135 625.5 87.5 c 128,-1,13
 598.5 40 598.5 40 554.5 15 c 128,-1,14
 510.5 -10 510.5 -10 448.5 -10 c 0,0,1
448.5 66 m 256,15,16
 523.5 66 523.5 66 555.5 138 c 128,-1,17
 587.5 210 587.5 210 587.5 358 c 0,18,19
 587.5 504 587.5 504 555.5 576.5 c 128,-1,20
 523.5 649 523.5 649 448.5 649 c 256,21,22
 373.5 649 373.5 649 342.5 576.5 c 128,-1,23
 311.5 504 311.5 504 311.5 358 c 256,24,25
 311.5 212 311.5 212 342.5 139 c 128,-1,26
 373.5 66 373.5 66 448.5 66 c 256,15,16
EndSplineSet
EndChar

StartChar: uni0091
Encoding: 145 145 114
Width: 899
Flags: W
LayerCount: 2
Fore
SplineSet
493.5 0 m 1,0,-1
 493.5 446 l 2,1,2
 493.5 474 493.5 474 494.5 506.5 c 128,-1,3
 495.5 539 495.5 539 496.5 569.5 c 128,-1,4
 497.5 600 497.5 600 497.5 622 c 1,5,6
 481.5 605 481.5 605 470 594.5 c 128,-1,7
 458.5 584 458.5 584 438.5 567 c 2,8,-1
 366.5 508 l 1,9,-1
 319.5 568 l 1,10,-1
 506.5 714 l 1,11,-1
 579.5 714 l 1,12,-1
 579.5 0 l 1,13,-1
 493.5 0 l 1,0,-1
EndSplineSet
EndChar

StartChar: uni0092
Encoding: 146 146 115
Width: 899
Flags: W
LayerCount: 2
Fore
SplineSet
227 76 m 1,0,-1
 398 262 l 2,1,2
 447 315 447 315 481.5 357 c 128,-1,3
 516 399 516 399 535 440 c 128,-1,4
 554 481 554 481 554 530 c 0,5,6
 554 587 554 587 522 618 c 128,-1,7
 490 649 490 649 439 649 c 0,8,9
 393 649 393 649 355.5 630 c 128,-1,10
 318 611 318 611 284 582 c 1,11,-1
 234 640 l 1,12,13
 260 664 260 664 291.5 683 c 128,-1,14
 323 702 323 702 360.5 713 c 128,-1,15
 398 724 398 724 440 724 c 0,16,17
 503 724 503 724 548.5 701 c 128,-1,18
 594 678 594 678 619 635.5 c 128,-1,19
 644 593 644 593 644 533 c 0,20,21
 644 478 644 478 622 429 c 128,-1,22
 600 380 600 380 561.5 332 c 128,-1,23
 523 284 523 284 473 231 c 2,24,-1
 336 85 l 1,25,-1
 336 81 l 1,26,-1
 672 81 l 1,27,-1
 672 0 l 1,28,-1
 227 0 l 1,29,-1
 227 76 l 1,0,-1
EndSplineSet
EndChar

StartChar: uni0093
Encoding: 147 147 116
Width: 899
Flags: W
LayerCount: 2
Fore
SplineSet
413 -10 m 0,0,1
 360 -10 360 -10 312.5 -1.5 c 128,-1,2
 265 7 265 7 224 29 c 1,3,-1
 224 112 l 1,4,5
 267 90 267 90 316 77.5 c 128,-1,6
 365 65 365 65 411 65 c 0,7,8
 501 65 501 65 542.5 102.5 c 128,-1,9
 584 140 584 140 584 206 c 0,10,11
 584 250 584 250 561.5 278 c 128,-1,12
 539 306 539 306 497.5 319 c 128,-1,13
 456 332 456 332 398 332 c 2,14,-1
 333 332 l 1,15,-1
 333 406 l 1,16,-1
 398 406 l 2,17,18
 451 406 451 406 487.5 423 c 128,-1,19
 524 440 524 440 543 470.5 c 128,-1,20
 562 501 562 501 562 541 c 0,21,22
 562 575 562 575 546.5 599 c 128,-1,23
 531 623 531 623 504 636 c 128,-1,24
 477 649 477 649 440 649 c 0,25,26
 388 649 388 649 348 632.5 c 128,-1,27
 308 616 308 616 272 590 c 1,28,-1
 227 651 l 1,29,30
 264 681 264 681 318 702.5 c 128,-1,31
 372 724 372 724 440 724 c 0,32,33
 510 724 510 724 557.5 701 c 128,-1,34
 605 678 605 678 629 638.5 c 128,-1,35
 653 599 653 599 653 547 c 0,36,37
 653 499 653 499 633.5 463.5 c 128,-1,38
 614 428 614 428 579.5 406 c 128,-1,39
 545 384 545 384 499 376 c 1,40,-1
 499 373 l 1,41,42
 585 363 585 363 630 318.5 c 128,-1,43
 675 274 675 274 675 203 c 0,44,45
 675 141 675 141 647 92.5 c 128,-1,46
 619 44 619 44 561 17 c 128,-1,47
 503 -10 503 -10 413 -10 c 0,0,1
EndSplineSet
EndChar

StartChar: uni0094
Encoding: 148 148 117
Width: 899
Flags: W
LayerCount: 2
Fore
SplineSet
519.5 160 m 1,0,-1
 189.5 160 l 1,1,-1
 189.5 238 l 1,2,-1
 513.5 718 l 1,3,-1
 605.5 718 l 1,4,-1
 605.5 241 l 1,5,-1
 709.5 241 l 1,6,-1
 709.5 160 l 1,7,-1
 605.5 160 l 1,8,-1
 605.5 0 l 1,9,-1
 519.5 0 l 1,10,-1
 519.5 160 l 1,0,-1
519.5 241 m 1,11,-1
 519.5 415 l 2,12,13
 519.5 452 519.5 452 521 492.5 c 128,-1,14
 522.5 533 522.5 533 524 568.5 c 128,-1,15
 525.5 604 525.5 604 525.5 626 c 1,16,-1
 521.5 626 l 1,17,18
 514.5 607 514.5 607 501.5 581 c 128,-1,19
 488.5 555 488.5 555 477.5 538 c 2,20,-1
 276.5 241 l 1,21,-1
 519.5 241 l 1,11,-1
EndSplineSet
EndChar

StartChar: uni0095
Encoding: 149 149 118
Width: 899
Flags: W
LayerCount: 2
Fore
SplineSet
408 -10 m 0,0,1
 358 -10 358 -10 312 -0.5 c 128,-1,2
 266 9 266 9 234 29 c 1,3,-1
 234 113 l 1,4,5
 256 98 256 98 286.5 87.5 c 128,-1,6
 317 77 317 77 350 71.5 c 128,-1,7
 383 66 383 66 410 66 c 0,8,9
 487 66 487 66 530.5 103 c 128,-1,10
 574 140 574 140 574 219 c 0,11,12
 574 290 574 290 531 326.5 c 128,-1,13
 488 363 488 363 406 363 c 0,14,15
 380 363 380 363 346.5 358.5 c 128,-1,16
 313 354 313 354 293 350 c 1,17,-1
 249 378 l 1,18,-1
 276 714 l 1,19,-1
 613 714 l 1,20,-1
 613 633 l 1,21,-1
 353 633 l 1,22,-1
 334 428 l 1,23,24
 350 432 350 432 377.5 435 c 128,-1,25
 405 438 405 438 436 438 c 0,26,27
 501 438 501 438 552.5 414.5 c 128,-1,28
 604 391 604 391 634.5 344.5 c 128,-1,29
 665 298 665 298 665 229 c 0,30,31
 665 117 665 117 599 53.5 c 128,-1,32
 533 -10 533 -10 408 -10 c 0,0,1
EndSplineSet
EndChar

StartChar: uni0096
Encoding: 150 150 119
Width: 899
Flags: W
LayerCount: 2
Fore
SplineSet
457.5 -10 m 0,0,1
 392.5 -10 392.5 -10 339.5 24 c 128,-1,2
 286.5 58 286.5 58 255.5 128 c 128,-1,3
 224.5 198 224.5 198 224.5 305 c 0,4,5
 224.5 367 224.5 367 232 427 c 128,-1,6
 239.5 487 239.5 487 259.5 540.5 c 128,-1,7
 279.5 594 279.5 594 314.5 635.5 c 128,-1,8
 349.5 677 349.5 677 404 700.5 c 128,-1,9
 458.5 724 458.5 724 536.5 724 c 0,10,11
 555.5 724 555.5 724 580 722 c 128,-1,12
 604.5 720 604.5 720 620.5 715 c 1,13,-1
 620.5 639 l 1,14,15
 603.5 645 603.5 645 582 648 c 128,-1,16
 560.5 651 560.5 651 539.5 651 c 0,17,18
 473.5 651 473.5 651 431 628 c 128,-1,19
 388.5 605 388.5 605 364 565.5 c 128,-1,20
 339.5 526 339.5 526 328.5 474 c 128,-1,21
 317.5 422 317.5 422 315.5 364 c 1,22,-1
 321.5 364 l 1,23,24
 341.5 399 341.5 399 377.5 423 c 128,-1,25
 413.5 447 413.5 447 471.5 447 c 0,26,27
 533.5 447 533.5 447 579 421.5 c 128,-1,28
 624.5 396 624.5 396 649.5 347.5 c 128,-1,29
 674.5 299 674.5 299 674.5 230 c 0,30,31
 674.5 156 674.5 156 648 102 c 128,-1,32
 621.5 48 621.5 48 573 19 c 128,-1,33
 524.5 -10 524.5 -10 457.5 -10 c 0,0,1
456.5 65 m 0,34,35
 515.5 65 515.5 65 552 105 c 128,-1,36
 588.5 145 588.5 145 588.5 230 c 0,37,38
 588.5 298 588.5 298 556.5 337.5 c 128,-1,39
 524.5 377 524.5 377 459.5 377 c 0,40,41
 415.5 377 415.5 377 382.5 357.5 c 128,-1,42
 349.5 338 349.5 338 331.5 308.5 c 128,-1,43
 313.5 279 313.5 279 313.5 247 c 0,44,45
 313.5 204 313.5 204 329.5 162 c 128,-1,46
 345.5 120 345.5 120 377 92.5 c 128,-1,47
 408.5 65 408.5 65 456.5 65 c 0,34,35
EndSplineSet
EndChar

StartChar: uni0097
Encoding: 151 151 120
Width: 899
Flags: W
LayerCount: 2
Fore
SplineSet
588 633 m 1,0,-1
 220 633 l 1,1,-1
 220 714 l 1,2,-1
 679 714 l 1,3,-1
 679 643 l 1,4,-1
 408 0 l 1,5,-1
 313 0 l 1,6,-1
 588 633 l 1,0,-1
EndSplineSet
EndChar

StartChar: uni0098
Encoding: 152 152 121
Width: 899
Flags: W
LayerCount: 2
Fore
SplineSet
449.5 -10 m 0,0,1
 342.5 -10 342.5 -10 284 41.5 c 128,-1,2
 225.5 93 225.5 93 225.5 182 c 0,3,4
 225.5 231 225.5 231 244 267 c 128,-1,5
 262.5 303 262.5 303 294 329.5 c 128,-1,6
 325.5 356 325.5 356 363.5 374 c 1,7,8
 331.5 395 331.5 395 305.5 420 c 128,-1,9
 279.5 445 279.5 445 264 478 c 128,-1,10
 248.5 511 248.5 511 248.5 554 c 0,11,12
 248.5 611 248.5 611 276.5 649 c 128,-1,13
 304.5 687 304.5 687 350.5 706 c 128,-1,14
 396.5 725 396.5 725 449.5 725 c 0,15,16
 504.5 725 504.5 725 550 706 c 128,-1,17
 595.5 687 595.5 687 623 649 c 128,-1,18
 650.5 611 650.5 611 650.5 553 c 0,19,20
 650.5 510 650.5 510 633.5 477.5 c 128,-1,21
 616.5 445 616.5 445 588 421 c 128,-1,22
 559.5 397 559.5 397 522.5 378 c 1,23,24
 560.5 358 560.5 358 595 331.5 c 128,-1,25
 629.5 305 629.5 305 651.5 269.5 c 128,-1,26
 673.5 234 673.5 234 673.5 186 c 0,27,28
 673.5 126 673.5 126 645 82 c 128,-1,29
 616.5 38 616.5 38 566.5 14 c 128,-1,30
 516.5 -10 516.5 -10 449.5 -10 c 0,0,1
447.5 64 m 0,31,32
 516.5 64 516.5 64 551.5 97 c 128,-1,33
 586.5 130 586.5 130 586.5 185 c 0,34,35
 586.5 233 586.5 233 550 268.5 c 128,-1,36
 513.5 304 513.5 304 436.5 340 c 1,37,38
 395.5 321 395.5 321 368 297.5 c 128,-1,39
 340.5 274 340.5 274 326.5 245.5 c 128,-1,40
 312.5 217 312.5 217 312.5 181 c 0,41,42
 312.5 129 312.5 129 345 96.5 c 128,-1,43
 377.5 64 377.5 64 447.5 64 c 0,31,32
450.5 414 m 1,44,45
 482.5 429 482.5 429 508 447 c 128,-1,46
 533.5 465 533.5 465 548.5 490 c 128,-1,47
 563.5 515 563.5 515 563.5 550 c 0,48,49
 563.5 600 563.5 600 533 625.5 c 128,-1,50
 502.5 651 502.5 651 448.5 651 c 0,51,52
 414.5 651 414.5 651 389 639.5 c 128,-1,53
 363.5 628 363.5 628 349.5 605.5 c 128,-1,54
 335.5 583 335.5 583 335.5 550 c 0,55,56
 335.5 514 335.5 514 350.5 489.5 c 128,-1,57
 365.5 465 365.5 465 391.5 447.5 c 128,-1,58
 417.5 430 417.5 430 450.5 414 c 1,44,45
EndSplineSet
EndChar

StartChar: uni0099
Encoding: 153 153 122
Width: 899
Flags: W
LayerCount: 2
Fore
SplineSet
362.5 -10 m 0,0,1
 343.5 -10 343.5 -10 319.5 -7.5 c 128,-1,2
 295.5 -5 295.5 -5 278.5 -1 c 1,3,-1
 278.5 75 l 1,4,5
 295.5 69 295.5 69 317 66 c 128,-1,6
 338.5 63 338.5 63 359.5 63 c 0,7,8
 425.5 63 425.5 63 468.5 86 c 128,-1,9
 511.5 109 511.5 109 535.5 148.5 c 128,-1,10
 559.5 188 559.5 188 570.5 240 c 128,-1,11
 581.5 292 581.5 292 583.5 350 c 1,12,-1
 577.5 350 l 1,13,14
 564.5 327 564.5 327 544 308 c 128,-1,15
 523.5 289 523.5 289 495 278 c 128,-1,16
 466.5 267 466.5 267 427.5 267 c 0,17,18
 366.5 267 366.5 267 320.5 292.5 c 128,-1,19
 274.5 318 274.5 318 249.5 366.5 c 128,-1,20
 224.5 415 224.5 415 224.5 484 c 0,21,22
 224.5 559 224.5 559 251 612.5 c 128,-1,23
 277.5 666 277.5 666 326.5 695 c 128,-1,24
 375.5 724 375.5 724 441.5 724 c 256,25,26
 507.5 724 507.5 724 560 690 c 128,-1,27
 612.5 656 612.5 656 643.5 586 c 128,-1,28
 674.5 516 674.5 516 674.5 409 c 0,29,30
 674.5 348 674.5 348 667 287.5 c 128,-1,31
 659.5 227 659.5 227 639.5 173.5 c 128,-1,32
 619.5 120 619.5 120 584.5 78.5 c 128,-1,33
 549.5 37 549.5 37 495 13.5 c 128,-1,34
 440.5 -10 440.5 -10 362.5 -10 c 0,0,1
439.5 337 m 0,35,36
 483.5 337 483.5 337 516.5 356.5 c 128,-1,37
 549.5 376 549.5 376 567.5 406 c 128,-1,38
 585.5 436 585.5 436 585.5 467 c 0,39,40
 585.5 500 585.5 500 576.5 532 c 128,-1,41
 567.5 564 567.5 564 549.5 590.5 c 128,-1,42
 531.5 617 531.5 617 505 633 c 128,-1,43
 478.5 649 478.5 649 442.5 649 c 0,44,45
 384.5 649 384.5 649 347.5 609 c 128,-1,46
 310.5 569 310.5 569 310.5 484 c 0,47,48
 310.5 416 310.5 416 343 376.5 c 128,-1,49
 375.5 337 375.5 337 439.5 337 c 0,35,36
EndSplineSet
EndChar

StartChar: uni009A
Encoding: 154 154 123
Width: 899
Flags: W
LayerCount: 2
Fore
SplineSet
500 723 m 0,0,1
 555 723 555 723 599 711 c 128,-1,2
 643 699 643 699 677 682 c 1,3,-1
 646 612 l 1,4,5
 616 626 616 626 579.5 638 c 128,-1,6
 543 650 543 650 502 650 c 0,7,8
 445 650 445 650 415 620.5 c 128,-1,9
 385 591 385 591 385 525 c 2,10,-1
 385 386 l 1,11,-1
 589 386 l 1,12,-1
 589 320 l 1,13,-1
 385 320 l 1,14,-1
 385 216 l 2,15,16
 385 176 385 176 375.5 149.5 c 128,-1,17
 366 123 366 123 350.5 107 c 128,-1,18
 335 91 335 91 317 80 c 1,19,-1
 701 80 l 1,20,-1
 701 0 l 1,21,-1
 198 0 l 1,22,-1
 198 74 l 1,23,24
 227 81 227 81 249 97.5 c 128,-1,25
 271 114 271 114 284 142.5 c 128,-1,26
 297 171 297 171 297 215 c 2,27,-1
 297 320 l 1,28,-1
 201 320 l 1,29,-1
 201 386 l 1,30,-1
 297 386 l 1,31,-1
 297 534 l 2,32,33
 297 594 297 594 322 636 c 128,-1,34
 347 678 347 678 393 700.5 c 128,-1,35
 439 723 439 723 500 723 c 0,0,1
EndSplineSet
EndChar

StartChar: uni009B
Encoding: 155 155 124
Width: 899
Flags: W
LayerCount: 2
Fore
SplineSet
399 -8 m 4,0,1
 344 -8 344 -8 300 4 c 132,-1,2
 256 16 256 16 222 33 c 5,3,-1
 253 103 l 5,4,5
 283 89 283 89 319.5 77 c 132,-1,6
 356 65 356 65 397 65 c 4,7,8
 454 65 454 65 484 94.5 c 132,-1,9
 514 124 514 124 514 190 c 6,10,-1
 514 329 l 5,11,-1
 310 329 l 5,12,-1
 310 395 l 5,13,-1
 514 395 l 5,14,-1
 514 499 l 6,15,16
 514 539 514 539 523.5 565.5 c 132,-1,17
 533 592 533 592 548.5 608 c 132,-1,18
 564 624 564 624 582 635 c 5,19,-1
 198 635 l 5,20,-1
 198 715 l 5,21,-1
 701 715 l 5,22,-1
 701 641 l 5,23,24
 672 634 672 634 650 617.5 c 132,-1,25
 628 601 628 601 615 572.5 c 132,-1,26
 602 544 602 544 602 500 c 6,27,-1
 602 395 l 5,28,-1
 698 395 l 5,29,-1
 698 329 l 5,30,-1
 602 329 l 5,31,-1
 602 181 l 6,32,33
 602 121 602 121 577 79 c 132,-1,34
 552 37 552 37 506 14.5 c 132,-1,35
 460 -8 460 -8 399 -8 c 4,0,1
EndSplineSet
EndChar

StartChar: uni009C
Encoding: 156 156 125
Width: 899
Flags: W
LayerCount: 2
Fore
SplineSet
636 617 m 0,0,1
 636 583 636 583 622 557.5 c 128,-1,2
 608 532 608 532 587 512.5 c 128,-1,3
 566 493 566 493 545 477 c 128,-1,4
 524 461 524 461 510 445.5 c 128,-1,5
 496 430 496 430 496 412 c 0,6,7
 496 399 496 399 502.5 388 c 128,-1,8
 509 377 509 377 528 362.5 c 128,-1,9
 547 348 547 348 584 323 c 0,10,11
 620 299 620 299 646 275 c 128,-1,12
 672 251 672 251 686 222 c 128,-1,13
 700 193 700 193 700 153 c 0,14,15
 700 96 700 96 676.5 60 c 128,-1,16
 653 24 653 24 611 7 c 128,-1,17
 569 -10 569 -10 514 -10 c 0,18,19
 467 -10 467 -10 431 -1 c 128,-1,20
 395 8 395 8 369 24 c 1,21,-1
 369 103 l 1,22,23
 386 93 386 93 409 83 c 128,-1,24
 432 73 432 73 458.5 67 c 128,-1,25
 485 61 485 61 511 61 c 0,26,27
 566 61 566 61 590 84 c 128,-1,28
 614 107 614 107 614 147 c 0,29,30
 614 171 614 171 605.5 189.5 c 128,-1,31
 597 208 597 208 576.5 226 c 128,-1,32
 556 244 556 244 520 267 c 0,33,34
 478 294 478 294 454.5 315.5 c 128,-1,35
 431 337 431 337 421 359 c 128,-1,36
 411 381 411 381 411 407 c 0,37,38
 411 438 411 438 424.5 460 c 128,-1,39
 438 482 438 482 458.5 498.5 c 128,-1,40
 479 515 479 515 499.5 531 c 128,-1,41
 520 547 520 547 533.5 566 c 128,-1,42
 547 585 547 585 547 612 c 0,43,44
 547 654 547 654 511.5 673 c 128,-1,45
 476 692 476 692 420 692 c 0,46,47
 385 692 385 692 354.5 682.5 c 128,-1,48
 324 673 324 673 305.5 650 c 128,-1,49
 287 627 287 627 287 584 c 2,50,-1
 287 0 l 1,51,-1
 199 0 l 1,52,-1
 199 584 l 2,53,54
 199 651 199 651 228 690.5 c 128,-1,55
 257 730 257 730 307 747.5 c 128,-1,56
 357 765 357 765 420 765 c 0,57,58
 485 765 485 765 533.5 748.5 c 128,-1,59
 582 732 582 732 609 699.5 c 128,-1,60
 636 667 636 667 636 617 c 0,0,1
EndSplineSet
EndChar

StartChar: uni009D
Encoding: 157 157 126
Width: 899
Flags: W
LayerCount: 2
Fore
SplineSet
305.5 -10 m 0,0,1
 243.5 -10 243.5 -10 201 24 c 128,-1,2
 158.5 58 158.5 58 136.5 119 c 128,-1,3
 114.5 180 114.5 180 114.5 260 c 0,4,5
 114.5 322 114.5 322 126 467 c 128,-1,6
 137.5 612 137.5 612 156.5 652 c 5,7,-1
 42.5 652 l 5,8,-1
 42.5 725 l 5,9,-1
 856.5 725 l 5,10,-1
 856.5 652 l 5,11,-1
 742.5 652 l 5,12,13
 762.5 612 762.5 612 773.5 467 c 128,-1,14
 784.5 322 784.5 322 784.5 260 c 0,15,16
 784.5 180 784.5 180 762.5 119 c 128,-1,17
 740.5 58 740.5 58 698 24 c 128,-1,18
 655.5 -10 655.5 -10 593.5 -10 c 0,19,20
 538.5 -10 538.5 -10 503.5 15.5 c 128,-1,21
 468.5 41 468.5 41 451.5 100 c 1,22,-1
 446.5 100 l 1,23,24
 436.5 61 436.5 61 417.5 36.5 c 128,-1,25
 398.5 12 398.5 12 370.5 1 c 128,-1,26
 342.5 -10 342.5 -10 305.5 -10 c 0,0,1
311.5 63 m 0,27,28
 344.5 63 344.5 63 366 80 c 128,-1,29
 387.5 97 387.5 97 397.5 126.5 c 128,-1,30
 407.5 156 407.5 156 407.5 193 c 2,31,-1
 407.5 344 l 1,32,-1
 491.5 344 l 1,33,-1
 491.5 193 l 2,34,35
 491.5 152 491.5 152 503 122.5 c 128,-1,36
 514.5 93 514.5 93 535.5 78 c 128,-1,37
 556.5 63 556.5 63 586.5 63 c 0,38,39
 620.5 63 620.5 63 645 85 c 128,-1,40
 669.5 107 669.5 107 683 151 c 128,-1,41
 696.5 195 696.5 195 696.5 259 c 0,42,43
 696.5 322 696.5 322 685.5 467 c 128,-1,44
 674.5 612 674.5 612 654.5 652 c 5,45,-1
 245.5 652 l 5,46,47
 226.5 612 226.5 612 214.5 467 c 128,-1,48
 202.5 322 202.5 322 202.5 259 c 0,49,50
 202.5 162 202.5 162 232.5 112.5 c 128,-1,51
 262.5 63 262.5 63 311.5 63 c 0,27,28
EndSplineSet
EndChar

StartChar: uni009E
Encoding: 158 158 127
Width: 899
Flags: W
LayerCount: 2
Fore
SplineSet
649 0 m 1,0,-1
 250 0 l 1,1,-1
 250 714 l 1,2,-1
 649 714 l 1,3,-1
 649 635 l 1,4,-1
 340 635 l 1,5,-1
 340 412 l 1,6,-1
 631 412 l 1,7,-1
 631 334 l 1,8,-1
 340 334 l 1,9,-1
 340 79 l 1,10,-1
 649 79 l 1,11,-1
 649 0 l 1,0,-1
EndSplineSet
EndChar

StartChar: uni009F
Encoding: 159 159 128
Width: 899
Flags: W
LayerCount: 2
Fore
SplineSet
340 0 m 1,0,-1
 250 0 l 1,1,-1
 250 714 l 1,2,-1
 649 714 l 1,3,-1
 649 635 l 1,4,-1
 340 635 l 1,5,-1
 340 382 l 1,6,-1
 630 382 l 1,7,-1
 630 303 l 1,8,-1
 340 303 l 1,9,-1
 340 0 l 1,0,-1
EndSplineSet
EndChar

